<svg width="2171" height="2038" viewBox="0 0 2171 2038" fill="none" xmlns="http://www.w3.org/2000/svg">
<path d="M1782.3 616.511H1496.55C1442.89 616.511 1399.39 657.345 1399.39 707.716C1399.39 758.087 1442.89 798.921 1496.55 798.921H1782.3C1835.96 798.921 1879.46 758.087 1879.46 707.716C1879.46 657.345 1835.96 616.511 1782.3 616.511Z" fill="#CBE3F8"/>
<path d="M1537.93 640.739C1534.48 640.739 1531.68 642.94 1531.68 645.655V769.777C1531.68 772.492 1534.48 774.693 1537.93 774.693C1541.38 774.693 1544.18 772.492 1544.18 769.777V645.655C1544.18 642.94 1541.38 640.739 1537.93 640.739Z" fill="#3A739B"/>
<path d="M1561.74 654.565C1558.3 654.565 1555.5 656.766 1555.5 659.481V755.951C1555.5 758.666 1558.3 760.867 1561.74 760.867C1565.19 760.867 1567.99 758.666 1567.99 755.951V659.481C1567.99 656.766 1565.2 654.565 1561.74 654.565Z" fill="#3A739B"/>
<path d="M1514.12 654.565C1510.67 654.565 1507.88 656.766 1507.88 659.481V755.951C1507.88 758.666 1510.67 760.867 1514.12 760.867C1517.57 760.867 1520.36 758.666 1520.36 755.951V659.481C1520.36 656.766 1517.57 654.565 1514.12 654.565Z" fill="#3A739B"/>
<path d="M1585.56 661.323C1582.11 661.323 1579.31 663.524 1579.31 666.239V749.193C1579.31 751.908 1582.1 754.109 1585.56 754.109C1589 754.109 1591.8 751.908 1591.8 749.193V666.239C1591.8 663.524 1589.01 661.323 1585.56 661.323Z" fill="#3A739B"/>
<path d="M1490.31 661.323C1486.86 661.323 1484.06 663.524 1484.06 666.239V749.193C1484.06 751.908 1486.86 754.109 1490.31 754.109C1493.76 754.109 1496.55 751.908 1496.55 749.193V666.239C1496.55 663.524 1493.76 661.323 1490.31 661.323Z" fill="#3A739B"/>
<path d="M1609.37 679.759C1605.92 679.759 1603.12 681.96 1603.12 684.674V730.758C1603.12 733.472 1605.92 735.673 1609.37 735.673C1612.81 735.673 1615.61 733.472 1615.61 730.758V684.674C1615.61 681.96 1612.82 679.759 1609.37 679.759Z" fill="#3A739B"/>
<path d="M1633.18 640.739C1629.73 640.739 1626.93 642.94 1626.93 645.655V769.777C1626.93 772.492 1629.73 774.693 1633.18 774.693C1636.63 774.693 1639.42 772.492 1639.42 769.777V645.655C1639.43 642.94 1636.63 640.739 1633.18 640.739Z" fill="#3A739B"/>
<path d="M1656.99 654.565C1653.55 654.565 1650.75 656.766 1650.75 659.481V755.951C1650.75 758.666 1653.55 760.867 1656.99 760.867C1660.44 760.867 1663.24 758.666 1663.24 755.951V659.481C1663.24 656.766 1660.44 654.565 1656.99 654.565Z" fill="#3A739B"/>
<path d="M1680.81 661.323C1677.36 661.323 1674.56 663.524 1674.56 666.239V749.193C1674.56 751.908 1677.35 754.109 1680.81 754.109C1684.25 754.109 1687.05 751.908 1687.05 749.193V666.239C1687.05 663.524 1684.25 661.323 1680.81 661.323Z" fill="#3A739B"/>
<path d="M1704.62 679.759C1701.17 679.759 1698.37 681.96 1698.37 684.674V730.758C1698.37 733.472 1701.17 735.673 1704.62 735.673C1708.06 735.673 1710.86 733.472 1710.86 730.758V684.674C1710.86 681.96 1708.06 679.759 1704.62 679.759Z" fill="#3A739B"/>
<path d="M1728.43 640.739C1724.98 640.739 1722.18 642.94 1722.18 645.655V769.777C1722.18 772.492 1724.98 774.693 1728.43 774.693C1731.88 774.693 1734.67 772.492 1734.67 769.777V645.655C1734.67 642.94 1731.88 640.739 1728.43 640.739Z" fill="#3A739B"/>
<path d="M1752.24 654.565C1748.79 654.565 1746 656.766 1746 659.481V755.951C1746 758.666 1748.79 760.867 1752.24 760.867C1755.69 760.867 1758.48 758.666 1758.48 755.951V659.481C1758.48 656.766 1755.69 654.565 1752.24 654.565Z" fill="#3A739B"/>
<path d="M1776.05 661.323C1772.6 661.323 1769.81 663.524 1769.81 666.239V749.193C1769.81 751.908 1772.6 754.109 1776.05 754.109C1779.5 754.109 1782.3 751.908 1782.3 749.193V666.239C1782.3 663.524 1779.5 661.323 1776.05 661.323Z" fill="#3A739B"/>
<path d="M1799.86 679.759C1796.42 679.759 1793.62 681.96 1793.62 684.674V730.758C1793.62 733.472 1796.42 735.673 1799.86 735.673C1803.31 735.673 1806.11 733.472 1806.11 730.758V684.674C1806.11 681.96 1803.32 679.759 1799.86 679.759Z" fill="#3A739B"/>
<path d="M1856.86 199.308H1612.5C1564.65 199.308 1525.86 235.719 1525.86 280.637V345.021C1525.86 389.812 1564.43 426.134 1612.09 426.342L1605.43 446.575C1603.93 451.124 1608.76 455.249 1613.44 453.422L1682.81 426.354H1856.86C1904.71 426.354 1943.5 389.939 1943.5 345.025V280.637C1943.5 235.719 1904.71 199.308 1856.86 199.308Z" fill="white"/>
<path d="M1730.1 266.782H1601.54C1596.48 266.782 1592.38 262.931 1592.38 258.182C1592.38 253.429 1596.48 249.578 1601.54 249.578H1730.1C1735.16 249.578 1739.26 253.429 1739.26 258.182C1739.26 262.931 1735.16 266.782 1730.1 266.782Z" fill="#619AC9"/>
<path d="M1867.82 266.782H1766.62C1761.55 266.782 1757.45 262.931 1757.45 258.182C1757.45 253.429 1761.56 249.578 1766.62 249.578H1867.82C1872.88 249.578 1876.98 253.429 1876.98 258.182C1876.99 262.931 1872.88 266.782 1867.82 266.782Z" fill="#619AC9"/>
<path d="M1867.82 376.08H1802.06C1797 376.08 1792.89 372.228 1792.89 367.476C1792.89 362.727 1797 358.875 1802.06 358.875H1867.82C1872.88 358.875 1876.99 362.727 1876.99 367.476C1876.99 372.228 1872.88 376.08 1867.82 376.08Z" fill="#619AC9"/>
<path d="M1867.82 303.218H1691.02C1685.96 303.218 1681.85 299.366 1681.85 294.617C1681.85 289.865 1685.96 286.017 1691.02 286.017H1867.82C1872.88 286.017 1876.98 289.869 1876.98 294.617C1876.99 299.366 1872.88 303.218 1867.82 303.218Z" fill="#619AC9"/>
<path d="M1656.66 303.218H1601.54C1596.48 303.218 1592.38 299.366 1592.38 294.617C1592.38 289.865 1596.48 286.017 1601.54 286.017H1656.66C1661.71 286.017 1665.82 289.869 1665.82 294.617C1665.82 299.366 1661.71 303.218 1656.66 303.218Z" fill="#619AC9"/>
<path d="M1867.82 339.649H1601.54C1596.48 339.649 1592.38 335.797 1592.38 331.049C1592.38 326.3 1596.48 322.448 1601.54 322.448H1867.82C1872.88 322.448 1876.98 326.3 1876.98 331.049C1876.99 335.797 1872.88 339.649 1867.82 339.649Z" fill="#619AC9"/>
<path d="M1768.64 376.08H1601.54C1596.48 376.08 1592.38 372.228 1592.38 367.476C1592.38 362.727 1596.48 358.875 1601.54 358.875H1768.64C1773.7 358.875 1777.8 362.727 1777.8 367.476C1777.8 372.228 1773.7 376.08 1768.64 376.08Z" fill="#619AC9"/>
<path d="M505.513 682.865C428.069 850.665 420.319 1045.83 484.237 1218.58C521.57 1319.47 583.799 1413.89 672.311 1481.01C768.1 1553.64 889.229 1590.82 1010.4 1611.41C1145.98 1634.44 1287.27 1638.24 1420.27 1604.45C1553.26 1570.66 1677.57 1496.69 1751.85 1387.76C1826.13 1278.82 1844.35 1133.68 1783 1017.87C1713.28 886.237 1560.76 813.9 1458.42 702.629C1404.87 644.407 1365.65 576.077 1321.16 511.485C1276.67 446.893 1224.8 384.13 1154.33 344.87C945.375 228.46 731.301 372.249 604.302 526.346C564.673 574.435 531.265 627.072 505.513 682.865Z" fill="#FFDBCA"/>
<path d="M1205.72 1692.94H1339.42V1216.65H1205.72V1692.94Z" fill="#A1C5EB"/>
<path d="M1205.73 1216.66H698.354V1692.95H1205.73V1216.66Z" fill="#CBE3F8"/>
<path d="M1028.42 1582.9C1005.5 1582.9 993.107 1579.44 991.266 1572.51L978.218 1524.64H915.367L903.905 1570.65C902.324 1578.33 889.676 1582.16 865.96 1582.16C853.312 1582.16 843.955 1581.48 837.893 1580.11C831.832 1578.76 828.801 1577.7 828.801 1576.96L898.764 1325.76C898.764 1323.78 916.809 1322.79 952.917 1322.79C989.016 1322.79 1007.07 1323.78 1007.07 1325.76L1075.45 1577.33C1075.45 1579.07 1069.39 1580.43 1057.27 1581.42C1045.15 1582.4 1035.54 1582.9 1028.42 1582.9ZM925.254 1477.52H966.759L948.97 1400.71H946.599L925.254 1477.52Z" fill="#A1C5EB"/>
<path d="M1338.95 1216.7H1472.65V740.408H1338.95V1216.7Z" fill="#FF847B"/>
<path d="M1338.95 740.409H831.58V1216.7H1338.95V740.409Z" fill="#FFB5B3"/>
<path d="M1191.81 913.33C1191.81 939.062 1179.96 958.598 1156.24 971.955C1169.15 976.41 1179.96 984.081 1188.65 994.964C1197.35 1005.85 1201.7 1021.25 1201.7 1041.16C1201.7 1061.08 1193.85 1076.85 1178.18 1088.48C1162.5 1100.1 1140.04 1105.91 1110.79 1105.91H1017.5C1013.02 1105.91 1009.33 1104.49 1006.44 1101.65C1003.53 1098.8 1002.09 1095.03 1002.09 1090.33V852.85C1002.09 850.132 1002.54 848.338 1003.47 847.47C1004.39 846.606 1006.3 846.17 1009.2 846.17H1099.32C1160.98 846.17 1191.81 868.559 1191.81 913.33ZM1077.98 906.278V954.889H1079.95C1105.25 954.889 1117.9 946.977 1117.9 931.142C1117.9 922.489 1115.45 916.179 1110.58 912.217C1105.7 908.263 1097.6 906.278 1086.27 906.278H1077.98ZM1077.98 998.673V1046.91H1085.09C1096.42 1046.91 1104.72 1044.94 1109.99 1040.97C1115.26 1037.02 1117.9 1030.71 1117.9 1022.05C1117.9 1013.39 1115.45 1007.33 1110.58 1003.87C1105.7 1000.41 1097.6 998.673 1086.27 998.673H1077.98Z" fill="#FF847B"/>
<path d="M1725.73 1337.4L1489.07 1429.7L1490.95 1433.95L1727.61 1341.64L1725.73 1337.4Z" fill="#245472"/>
<path d="M1505.39 1337.29L1503.51 1341.54L1740.17 1433.82L1742.05 1429.57L1505.39 1337.29Z" fill="#245472"/>
<path d="M1738.37 1317.59L1780.54 1695.4H1771.79L1704.09 1317.59H1738.37Z" fill="#245472"/>
<path d="M1486.9 1317.59L1444.73 1695.4H1453.48L1521.19 1317.59H1486.9Z" fill="#245472"/>
<path d="M1620.02 1345L1383.36 1437.31L1385.24 1441.55L1621.9 1349.25L1620.02 1345Z" fill="#245472"/>
<path d="M1399.71 1344.88L1397.83 1349.12L1634.49 1441.41L1636.37 1437.16L1399.71 1344.88Z" fill="#245472"/>
<path d="M1644 1317.59L1686.17 1695.4H1677.42L1609.72 1317.59H1644Z" fill="#245472"/>
<path d="M1392.53 1317.59L1350.36 1695.4H1359.11L1426.82 1317.59H1392.53Z" fill="#245472"/>
<path d="M1397.3 1216.49C1413.85 1170.76 1459.52 1140.02 1510.97 1140.02H1607.41L1641.39 1037.72C1647.46 1019.47 1665.47 1007.02 1685.84 1007.02H1856.93C1887.48 1007.02 1909.76 1034.17 1901.93 1061.93L1878.53 1145.02V1145.07L1856.69 1222.59C1840.88 1278.57 1786.93 1317.58 1725.25 1317.58H1384.24C1372.73 1317.58 1364.62 1306.97 1368.32 1296.73L1397.3 1216.49Z" fill="#162A45"/>
<path d="M1388.55 1216.49C1405.1 1170.76 1450.77 1140.02 1502.22 1140.02H1598.66L1632.64 1037.72C1638.71 1019.47 1656.72 1007.02 1677.09 1007.02H1848.19C1878.73 1007.02 1901.01 1034.17 1893.17 1061.93L1869.77 1145.02V1145.07L1847.94 1222.59C1832.12 1278.57 1778.18 1317.58 1716.49 1317.58H1375.48C1363.97 1317.58 1355.86 1306.97 1359.56 1296.73L1388.55 1216.49Z" fill="#3A739B"/>
<path d="M1670.96 1317.59H1725.25C1786.93 1317.59 1840.88 1278.57 1856.69 1222.6L1878.53 1145.07V1145.03H1828.95C1772.87 1145.03 1722.92 1178.29 1704.39 1227.96L1670.96 1317.59Z" fill="#162A45"/>
<path d="M1336.92 1804.93L1336.7 1806.41C1336.48 1808.59 1336.22 1810.69 1335.82 1812.96C1335.36 1814.84 1335 1816.89 1334.6 1818.98L1095.32 1821.19C1095.32 1821.19 1094.91 1818.87 1094.87 1815.22C1094.95 1813.35 1095.07 1811.17 1095.47 1808.63C1095.56 1808.18 1095.6 1807.64 1095.79 1807.16C1098.26 1794.49 1107.9 1776.94 1140.52 1771.03C1142.08 1770.66 1143.74 1770.47 1145.54 1770.23L1145.68 1770.22C1148.24 1769.84 1150.79 1769.6 1153.54 1769.35C1154.44 1769.3 1155.35 1769.2 1156.24 1769.15C1221.65 1763.73 1250.41 1742.85 1250.41 1742.85C1250.41 1742.85 1288.43 1749.63 1323.92 1742.18C1323.92 1742.18 1328.17 1748.64 1331.98 1759.91C1332.57 1761.83 1333.21 1763.86 1333.8 1766.04C1333.95 1766.44 1334.05 1766.89 1334.19 1767.37C1334.44 1768.22 1334.64 1769.2 1334.84 1770.17C1334.89 1770.44 1334.99 1770.8 1334.99 1771.06C1335 1771.29 1335.14 1771.37 1335.14 1771.55C1336.13 1776.17 1336.9 1781.24 1337.24 1786.71C1337.59 1792.42 1337.61 1798.51 1336.92 1804.93Z" fill="#3A739B"/>
<path d="M1226.68 1744.9C1227.49 1744.19 1228.55 1743.66 1229.69 1743.7C1230.9 1743.74 1231.79 1744.15 1232.73 1744.84C1234.3 1745.98 1235.88 1747.1 1237.44 1748.25C1239.68 1749.9 1242.08 1751.33 1244.42 1752.84C1245.36 1753.44 1246.09 1754.17 1246.41 1755.22C1246.7 1756.18 1246.59 1757.46 1246.01 1758.32C1244.86 1760.03 1242.15 1761.08 1240.18 1759.81C1235.59 1756.87 1231.12 1753.78 1226.74 1750.58C1225.93 1749.99 1225.46 1748.66 1225.46 1747.75C1225.45 1746.77 1225.9 1745.58 1226.68 1744.9Z" fill="white"/>
<path d="M1209.82 1752.2C1211.4 1750.81 1214.29 1750.46 1215.86 1752.15C1219.03 1755.54 1222.56 1758.61 1226.37 1761.35C1226.98 1761.77 1227.6 1762.2 1228.22 1762.6C1229.16 1763.21 1229.89 1763.93 1230.21 1764.98C1230.5 1765.94 1230.39 1767.22 1229.81 1768.08C1228.66 1769.79 1225.94 1770.85 1223.98 1769.58C1218.8 1766.21 1214.03 1762.33 1209.88 1757.88C1209.12 1757.07 1208.6 1756.16 1208.59 1755.05C1208.58 1754.07 1209.04 1752.89 1209.82 1752.2Z" fill="white"/>
<path d="M1194.3 1757.54C1195.11 1756.83 1196.17 1756.3 1197.32 1756.33C1198.37 1756.37 1199.67 1756.67 1200.35 1757.48L1210.17 1769.1C1210.91 1769.97 1211.44 1770.76 1211.45 1771.93C1211.46 1772.91 1211.01 1774.09 1210.23 1774.78C1209.42 1775.49 1208.36 1776.02 1207.22 1775.98C1206.17 1775.94 1204.87 1775.64 1204.18 1774.83L1194.36 1763.21C1193.62 1762.34 1193.09 1761.55 1193.08 1760.38C1193.07 1759.4 1193.52 1758.22 1194.3 1757.54Z" fill="white"/>
<path d="M1177.07 1761.48C1179.88 1760.05 1183.76 1761.53 1183.63 1765.66C1185.11 1767.89 1186.21 1769.54 1187.69 1771.76C1190.92 1772.97 1190.78 1777.34 1188.05 1778.73C1185.24 1780.15 1181.37 1778.68 1181.49 1774.56C1180.01 1772.33 1178.91 1770.67 1177.42 1768.44C1174.21 1767.23 1174.34 1762.87 1177.07 1761.48Z" fill="white"/>
<path d="M1336.73 1806.43C1336.47 1808.55 1336.22 1810.72 1335.78 1812.93C1335.39 1814.88 1335.04 1816.92 1334.56 1819L1095.33 1821.2C1095.33 1821.2 1094.89 1818.91 1094.85 1815.23C1094.93 1813.33 1095.04 1811.13 1095.47 1808.66L1336.73 1806.43Z" fill="#245472"/>
<path d="M1652.41 1804.93L1652.19 1806.41C1651.98 1808.59 1651.71 1810.69 1651.31 1812.96C1650.85 1814.84 1650.5 1816.89 1650.09 1818.98L1410.81 1821.19C1410.81 1821.19 1410.4 1818.87 1410.36 1815.22C1410.44 1813.35 1410.56 1811.17 1410.96 1808.63C1411.05 1808.18 1411.09 1807.64 1411.28 1807.16C1413.75 1794.49 1423.39 1776.94 1456.01 1771.03C1457.57 1770.66 1459.23 1770.47 1461.03 1770.23L1461.17 1770.22C1463.73 1769.84 1466.28 1769.6 1469.03 1769.35C1469.93 1769.3 1470.84 1769.2 1471.73 1769.15C1537.14 1763.73 1565.9 1742.85 1565.9 1742.85C1565.9 1742.85 1603.92 1749.63 1639.41 1742.18C1639.41 1742.18 1643.66 1748.64 1647.47 1759.91C1648.06 1761.83 1648.7 1763.86 1649.29 1766.04C1649.44 1766.44 1649.53 1766.89 1649.68 1767.37C1649.93 1768.22 1650.13 1769.2 1650.33 1770.17C1650.38 1770.44 1650.48 1770.8 1650.48 1771.06C1650.49 1771.29 1650.62 1771.37 1650.63 1771.55C1651.62 1776.17 1652.39 1781.24 1652.73 1786.71C1653.09 1792.42 1653.11 1798.51 1652.41 1804.93Z" fill="#3A739B"/>
<path d="M1542.17 1744.9C1542.98 1744.19 1544.05 1743.66 1545.19 1743.7C1546.39 1743.74 1547.28 1744.15 1548.22 1744.84C1549.79 1745.98 1551.37 1747.1 1552.94 1748.25C1555.17 1749.9 1557.57 1751.33 1559.92 1752.84C1560.85 1753.44 1561.59 1754.17 1561.9 1755.22C1562.2 1756.18 1562.08 1757.46 1561.5 1758.32C1560.35 1760.03 1557.64 1761.08 1555.67 1759.81C1551.09 1756.87 1546.62 1753.78 1542.23 1750.58C1541.42 1749.99 1540.96 1748.66 1540.95 1747.75C1540.94 1746.77 1541.4 1745.58 1542.17 1744.9Z" fill="white"/>
<path d="M1525.31 1752.2C1526.9 1750.81 1529.79 1750.46 1531.36 1752.15C1534.53 1755.54 1538.05 1758.61 1541.87 1761.35C1542.48 1761.77 1543.09 1762.2 1543.72 1762.6C1544.65 1763.21 1545.39 1763.93 1545.71 1764.98C1546 1765.94 1545.89 1767.22 1545.31 1768.08C1544.16 1769.79 1541.44 1770.85 1539.47 1769.58C1534.29 1766.21 1529.53 1762.33 1525.37 1757.88C1524.62 1757.07 1524.1 1756.16 1524.09 1755.05C1524.08 1754.07 1524.53 1752.89 1525.31 1752.2Z" fill="white"/>
<path d="M1509.8 1757.54C1510.6 1756.83 1511.67 1756.3 1512.8 1756.33C1513.86 1756.37 1515.16 1756.67 1515.84 1757.48L1525.66 1769.1C1526.4 1769.97 1526.93 1770.76 1526.94 1771.93C1526.95 1772.91 1526.5 1774.09 1525.72 1774.78C1524.91 1775.49 1523.85 1776.02 1522.71 1775.98C1521.66 1775.94 1520.36 1775.64 1519.67 1774.83L1509.85 1763.21C1509.11 1762.34 1508.58 1761.55 1508.57 1760.38C1508.56 1759.4 1509.01 1758.22 1509.8 1757.54Z" fill="white"/>
<path d="M1492.57 1761.48C1495.38 1760.05 1499.25 1761.53 1499.13 1765.66C1500.61 1767.89 1501.71 1769.54 1503.19 1771.76C1506.41 1772.97 1506.28 1777.34 1503.55 1778.73C1500.74 1780.15 1496.87 1778.68 1496.99 1774.56C1495.51 1772.33 1494.4 1770.67 1492.92 1768.44C1489.7 1767.23 1489.83 1762.87 1492.57 1761.48Z" fill="white"/>
<path d="M1652.22 1806.43C1651.97 1808.55 1651.71 1810.72 1651.28 1812.93C1650.88 1814.88 1650.54 1816.92 1650.05 1819L1410.82 1821.2C1410.82 1821.2 1410.39 1818.91 1410.35 1815.23C1410.42 1813.33 1410.53 1811.13 1410.97 1808.66L1652.22 1806.43Z" fill="#245472"/>
<path d="M1230.08 770.963C1169.15 1055.16 1250.42 1742.86 1250.42 1742.86C1250.42 1742.86 1295.83 1753.22 1323.93 1742.18L1400.44 770.963H1230.08Z" fill="#FFCFB8"/>
<path d="M1524.07 1232.5C1524.07 1232.5 1528.88 908.219 1498.27 770.963H1274.32C1272.81 920.141 1316.62 1164.42 1337.48 1232.5C1357.99 1299.43 1565.91 1742.86 1565.91 1742.86C1565.91 1742.86 1598.07 1752.33 1639.43 1742.18L1524.07 1232.5Z" fill="#FFCFB8"/>
<path d="M1535.14 1237.68C1533.88 1232.15 1550.3 952.382 1498.27 770.963H1230.08C1159.22 1096.88 1225.46 1675.35 1225.46 1675.35C1281.14 1692.34 1351.53 1681.01 1351.53 1681.01L1361.79 1298.91C1380.2 1386.54 1513.55 1673.56 1513.55 1673.56C1561.18 1673.56 1635.48 1653 1635.48 1653C1635.48 1653 1564.35 1311.17 1535.14 1237.68Z" fill="#EA5C4C"/>
<path d="M1353.11 1284.74C1339.08 1248.38 1328.17 1210.99 1318.87 1173.33C1309.38 1134.92 1301.61 1096.14 1294.98 1057.2C1288.99 1022.12 1283.94 986.898 1279.64 951.595C1276.48 925.635 1273.73 899.631 1271.43 873.593C1270.73 865.641 1270.07 857.684 1269.47 849.728C1269.2 846.149 1269.26 842.416 1268.71 838.861C1268.68 838.715 1268.69 838.564 1268.68 838.417C1268.63 837.659 1267.37 837.651 1267.42 838.417C1267.99 847.878 1268.78 857.334 1269.57 866.778C1271.67 891.519 1274.21 916.232 1277.1 940.904C1281.11 975.118 1285.83 1009.26 1291.38 1043.29C1297.75 1082.25 1305.19 1121.08 1314.25 1159.57C1323.23 1197.68 1333.74 1235.55 1347.18 1272.49C1348.71 1276.69 1350.28 1280.88 1351.89 1285.06C1352.16 1285.77 1353.39 1285.46 1353.11 1284.74Z" fill="#A83027"/>
<path d="M1254.33 842.676C1259.54 853.339 1264.75 864.006 1269.97 874.669C1270.3 875.358 1271.39 874.759 1271.05 874.074C1265.83 863.411 1260.62 852.744 1255.41 842.081C1255.07 841.397 1253.99 841.992 1254.33 842.676Z" fill="#A83027"/>
<path d="M1587.78 1601.79C1580.66 1546.97 1570.68 1492.48 1557.81 1438.6C1551.35 1411.55 1544.17 1384.65 1536.28 1357.95C1528.37 1331.19 1519.38 1304.72 1511.25 1278.02C1503.07 1251.16 1495.99 1223.96 1492.39 1196.18C1488.8 1168.43 1488.24 1140.4 1489.13 1112.48C1490.89 1057.49 1498.25 1002.77 1499.09 947.735C1499.87 897.05 1495.28 845.326 1475.99 797.571C1473.77 792.077 1471.35 786.66 1468.77 781.304C1468.43 780.615 1467.35 781.214 1467.69 781.899C1490.53 829.238 1497.54 881.464 1497.9 933.013C1498.28 987.105 1491.38 1040.9 1488.62 1094.86C1487.19 1122.79 1486.87 1150.82 1489.26 1178.71C1491.59 1205.81 1496.98 1232.43 1504.3 1258.71C1511.62 1285 1520.49 1310.87 1528.6 1336.94C1536.87 1363.54 1544.44 1390.34 1551.28 1417.31C1564.9 1470.98 1575.67 1525.28 1583.54 1579.96C1584.59 1587.23 1585.58 1594.51 1586.52 1601.79C1586.62 1602.53 1587.88 1602.54 1587.78 1601.79Z" fill="#A83027"/>
<path d="M1424.21 828.337C1422.62 843.545 1426.63 859.123 1435.31 872.036C1443.93 884.847 1457.09 894.511 1472.25 899.635C1480.87 902.549 1490.04 903.939 1499.2 903.686C1500 903.666 1500 902.488 1499.2 902.508C1483.27 902.952 1467.37 898.285 1454.46 889.514C1441.47 880.689 1432.13 867.74 1427.81 853.278C1425.39 845.175 1424.58 836.709 1425.46 828.333C1425.54 827.583 1424.29 827.587 1424.21 828.337Z" fill="#A83027"/>
<path d="M1303.1 1111.42C1308 1180.06 1311.54 1248.78 1313.72 1317.53C1315.89 1386.29 1316.7 1455.09 1316.14 1523.87C1315.83 1562.48 1315.08 1601.08 1313.91 1639.67C1313.89 1640.43 1315.14 1640.43 1315.17 1639.67C1317.25 1570.91 1317.98 1502.11 1317.34 1433.33C1316.7 1364.54 1314.7 1295.76 1311.32 1227.05C1309.43 1188.49 1307.11 1149.94 1304.36 1111.42C1304.31 1110.67 1303.05 1110.67 1303.1 1111.42Z" fill="#A83027"/>
<path d="M1472.12 1603.87L1508.58 1678.48C1576.9 1682.5 1642.14 1654.34 1642.14 1654.34L1626.43 1582.8C1554.99 1601.59 1472.12 1603.87 1472.12 1603.87Z" fill="#FF847B"/>
<path d="M1212.45 1603.87L1221.76 1679.82C1275.74 1695.62 1355.12 1684.71 1355.12 1684.71L1357.97 1613.95C1303.93 1615.45 1212.45 1603.87 1212.45 1603.87Z" fill="#FF847B"/>
<path d="M1470.95 384.281C1464.55 358.831 1447.27 336.568 1442.08 310.868C1436.07 281.085 1446.68 248.518 1433.34 220.94C1426.26 206.323 1412.6 194.682 1396.5 189.55C1390.31 187.578 1383.79 186.599 1377.25 186.546C1357.34 177.037 1335.31 171.555 1313.25 173.365C1284.37 175.733 1255.95 192.302 1245.52 217.866C1229.13 257.999 1259.27 305.525 1242.04 345.339C1231.73 369.172 1205.99 385.561 1199.08 410.474C1194.45 427.181 1199.38 445.405 1209.45 459.834C1219.51 474.263 1234.27 485.264 1250.01 494.056C1280.4 511.041 1315.85 520.64 1351.07 518.553C1386.28 516.462 1421.05 502.147 1444.53 477.255C1468 452.371 1479.13 416.759 1470.95 384.281Z" fill="#181D30"/>
<path d="M1281.05 438.728C1225.26 444.092 1154.41 597.134 1154.41 597.134L1069.68 422.037L1027.77 439.323C1027.77 439.323 1057.62 562.121 1090 618.154C1122.39 674.187 1186.75 677.765 1216.16 635.44C1245.58 593.115 1270.75 536.487 1270.75 536.487L1281.05 438.728Z" fill="#FFCFB8"/>
<path d="M1036.26 382.761C1036.26 382.761 1027.93 346.501 1036.62 344.442C1043.3 342.861 1055.25 386.768 1055.25 386.768C1055.25 386.768 1064.48 386.013 1070.36 394.94C1076.26 403.866 1072.99 426.223 1074.7 431.277L1029.25 443.383C1027.43 439.421 1009.28 423.631 1004.93 411.113C1000.59 398.596 1021.38 386.621 1036.26 382.761Z" fill="#FFCFB8"/>
<path d="M1052.54 388.74C1048.35 389.054 1044.19 389.731 1040.13 390.819C1038.17 391.345 1036.16 391.916 1034.31 392.727C1032.67 393.444 1031.01 394.704 1031.37 396.603C1032.05 400.227 1037.27 401.05 1040.44 401.474C1044.5 402.02 1048.6 401.792 1052.58 400.883C1053.89 400.585 1054.2 402.517 1052.9 402.815C1049.3 403.642 1045.56 403.915 1041.86 403.597C1038.6 403.32 1034.76 402.758 1032.06 400.891C1029.67 399.24 1028.34 396.13 1030 393.595C1031.8 390.844 1035.91 389.975 1038.98 389.12C1043.3 387.913 1047.73 387.147 1052.23 386.812C1053.55 386.711 1053.89 388.639 1052.54 388.74Z" fill="#B85C4B"/>
<path d="M1048.31 402.925C1050.26 409.137 1056.22 413.571 1063.05 414.138C1064.38 414.248 1064.15 416.192 1062.81 416.078C1054.98 415.426 1048.47 410.27 1046.25 403.222C1046.09 402.713 1046.62 402.183 1047.12 402.105C1047.74 402.016 1048.15 402.423 1048.31 402.925Z" fill="#B85C4B"/>
<path d="M1038.04 385.186C1038.07 385.916 1038.15 386.641 1038.29 387.363C1038.35 387.713 1038.43 388.064 1038.52 388.414C1038.57 388.581 1038.62 388.749 1038.66 388.912C1038.68 388.981 1038.73 389.164 1038.68 388.989C1038.71 389.099 1038.76 389.209 1038.79 389.315C1038.96 389.8 1038.83 390.399 1038.27 390.607C1037.79 390.787 1037.07 390.636 1036.9 390.118C1036.37 388.614 1036.05 387.069 1035.98 385.488C1035.96 384.978 1036.25 384.436 1036.85 384.371C1037.36 384.318 1038.02 384.64 1038.04 385.186Z" fill="#B85C4B"/>
<path d="M1042.77 402.648C1044.59 405.322 1044.86 408.77 1042.48 411.24C1040.29 413.498 1036.66 413.991 1033.83 412.532C1030.8 410.971 1028.93 407.694 1027.41 404.906C1025.61 401.596 1024.36 398.042 1023.63 394.39C1023.39 393.151 1025.44 392.853 1025.69 394.088C1026.25 396.921 1027.14 399.668 1028.39 402.301C1029.57 404.775 1030.99 407.331 1032.92 409.361C1034.73 411.252 1037.66 412.19 1040.07 410.641C1042.5 409.084 1042.65 406.088 1041.15 403.883C1040.44 402.831 1042.05 401.588 1042.77 402.648Z" fill="#B85C4B"/>
<path d="M1032.94 411.374C1031.87 413.245 1029.94 414.488 1027.69 414.745C1025.26 415.022 1022.87 414.24 1020.89 412.964C1016.89 410.392 1013.97 406.157 1012.42 401.906C1011.99 400.724 1013.88 399.913 1014.32 401.103C1015.63 404.694 1017.87 408.113 1020.98 410.575C1022.48 411.762 1024.24 412.687 1026.23 412.833C1028.07 412.968 1030.09 412.247 1030.99 410.657C1031.62 409.565 1033.57 410.266 1032.94 411.374Z" fill="#B85C4B"/>
<path d="M1022.77 413.922C1020.42 416.404 1016.66 417.391 1013.28 416.372C1009.4 415.202 1007.32 411.558 1005.75 408.305C1005.19 407.16 1007.1 406.357 1007.65 407.502C1008.94 410.184 1010.53 413.298 1013.66 414.427C1016.17 415.336 1019.29 414.664 1021.09 412.768C1021.97 411.835 1023.66 412.98 1022.77 413.922Z" fill="#B85C4B"/>
<path d="M1281.06 438.741L1278.98 455.33L1278.46 459.447L1271.38 515.329L1270.82 519.649L1266.43 554.255L1265.91 558.697H1265.87L1261.22 595.504L1260.74 599.376C1260.74 599.376 1258.57 598.765 1254.84 597.664C1247.37 595.422 1233.56 591.102 1218.54 585.395C1213.24 583.357 1207.73 581.156 1202.34 578.792C1200.69 578.099 1199.09 577.366 1197.48 576.591H1197.44C1182.76 569.906 1169.17 562.162 1161.35 554.051C1161.35 554.051 1176.51 527.679 1198.96 500.125C1199.91 498.943 1200.91 497.72 1201.91 496.498C1219.02 476.036 1239.94 455.493 1261.52 445.099C1262.83 444.488 1264.13 443.876 1265.43 443.347C1270.64 441.146 1275.85 439.556 1281.06 438.741Z" fill="#619AC9"/>
<path d="M1505.33 792.741C1362.43 825.064 1288.1 822.904 1250.8 815.322C1249.32 814.996 1247.89 814.711 1246.54 814.385C1222.84 808.882 1216.15 801.382 1216.15 801.382L1227.79 744.114L1228.61 740.161L1235.21 707.716L1236.3 702.335L1250.67 631.617C1239.6 631.006 1231.13 624.606 1225.66 614.905C1224.97 613.723 1224.36 612.46 1223.79 611.155C1220.45 603.737 1218.67 594.851 1218.54 585.395C1218.5 581.034 1218.8 576.55 1219.45 572.067C1219.71 570.558 1219.97 569.05 1220.28 567.501C1223.53 551.442 1231.56 535.26 1244.94 522.869C1246.46 521.443 1248.11 520.016 1249.8 518.671C1253.84 515.573 1258.27 512.72 1263.13 510.315L1276.03 458.794L1277.07 454.759L1281.06 438.741L1328.09 432.219L1394.04 432.423L1421.74 438.781L1429.47 440.575L1448.71 444.977C1449.97 451.091 1451.1 457.205 1452.1 463.237C1452.31 464.582 1452.53 465.927 1452.75 467.232C1457.26 495.478 1459.26 522.462 1459.82 546.428C1459.91 547.855 1459.91 549.282 1459.95 550.668C1460.08 560.613 1460.04 569.988 1459.82 578.71C1459.78 580.096 1459.74 581.441 1459.69 582.746C1459.43 591.061 1459.04 598.724 1458.56 605.53C1458.43 606.998 1458.35 608.465 1458.22 609.851C1457.74 616.332 1457.22 621.998 1456.7 626.644C1455.66 636.427 1454.74 641.929 1454.74 641.929C1468.46 651.671 1478.71 672.01 1486.27 694.754C1486.79 696.303 1487.27 697.852 1487.74 699.442C1498.25 733.15 1503.03 770.649 1504.63 785.812C1504.89 788.217 1505.07 790.051 1505.2 791.233C1505.28 792.211 1505.33 792.741 1505.33 792.741Z" fill="#619AC9"/>
<path d="M1384.53 556.276C1369.36 558.013 1352.84 560.511 1341.19 549.086C1334.93 542.948 1325.46 545.385 1320.73 551.56C1319.69 552.918 1317.51 555.294 1315.27 557.862C1315.47 544.66 1315.66 531.457 1315.86 518.255C1316.06 504.625 1293.72 501.438 1290.27 515.003C1287.98 524.047 1285.16 532.591 1280.65 540.926C1278.84 544.264 1265.1 569.034 1269.59 552.29C1273.69 537.025 1248.57 530.512 1244.47 545.789C1239.66 563.711 1246.18 594.22 1273.71 585.11C1279.6 583.161 1284.81 579.505 1289.4 574.802C1290.15 581.503 1291.83 587.89 1298.58 592.023C1314.32 601.662 1326.2 588.028 1335.18 575.352C1349.81 582.909 1366.91 582.742 1384.53 580.728C1400.96 578.853 1401.16 554.373 1384.53 556.276Z" fill="#162A45"/>
<path d="M1265 509.08C1243.17 520.159 1227.25 539.927 1222.02 562.72C1220.45 569.564 1219.84 576.579 1220.19 583.573C1220.23 584.327 1221.49 584.331 1221.45 583.573C1220.26 559.892 1230.56 536.622 1249.38 520.803C1254.33 516.645 1259.79 513.062 1265.63 510.099C1266.34 509.741 1265.71 508.722 1265 509.08Z" fill="#245472"/>
<path d="M1280.44 446.726C1271.82 467.301 1265.99 488.827 1263.04 510.76C1262.94 511.51 1264.2 511.501 1264.3 510.76C1267.23 488.937 1273.08 467.505 1281.65 447.035C1281.94 446.334 1280.73 446.029 1280.44 446.726Z" fill="#245472"/>
<path d="M1448.71 444.961C1516.41 462.871 1496.96 538.273 1496.96 538.273C1496.96 538.273 1473.15 627.688 1459.75 669.87C1449.98 700.624 1407.83 717.111 1364.68 680.105C1339.95 658.885 1250.66 528.148 1250.66 528.148L1287.83 499.559L1401.65 621.138L1448.71 444.961Z" fill="#FFCFB8"/>
<path d="M1505.33 539.744C1504.76 543.005 1503.85 547.366 1502.77 552.379C1502.51 553.684 1502.25 554.988 1501.94 556.374C1500.33 563.874 1498.38 572.515 1496.38 581.197C1496.08 582.542 1495.78 583.846 1495.47 585.191C1492.22 599.539 1488.92 613.601 1486.79 622.487C1486.4 624.239 1486.01 625.788 1485.75 627.093C1485.01 630.109 1484.57 631.861 1484.57 631.861C1476.63 632.024 1466.9 629.905 1456.7 626.644C1441.24 621.671 1424.78 614.09 1412.5 607.854C1410.67 606.957 1408.98 606.06 1407.37 605.245C1398.56 600.639 1392.83 597.297 1392.83 597.297L1398.56 581.645L1400.08 577.569L1411.76 545.654L1413.19 541.823L1439.07 471.267L1440.81 466.539L1448.71 444.977C1460.3 447.667 1469.72 451.498 1477.32 456.104C1478.93 457.042 1480.45 458.061 1481.92 459.08C1514.79 482.639 1508.45 522.421 1505.33 539.744Z" fill="#619AC9"/>
<path d="M1393 596.567C1404.36 566.58 1415.71 536.593 1427.07 506.606C1430.24 498.226 1433.42 489.841 1436.59 481.461C1436.86 480.748 1435.65 480.438 1435.38 481.147C1424.02 511.134 1412.67 541.122 1401.32 571.109C1398.14 579.489 1394.97 587.873 1391.79 596.253C1391.52 596.971 1392.74 597.281 1393 596.567Z" fill="#245472"/>
<path d="M1424.93 487.608C1424.58 495.368 1424.24 503.133 1423.89 510.894C1423.86 511.652 1425.11 511.652 1425.15 510.894C1425.5 503.133 1425.84 495.368 1426.19 487.608C1426.22 486.85 1424.97 486.85 1424.93 487.608Z" fill="#245472"/>
<path d="M1288.92 507.433C1284.23 501.332 1296.5 460.017 1287.4 456.797C1279.08 453.85 1269.5 469.918 1271.23 479.256C1263.1 470.085 1242.95 425.734 1233.75 430.886C1226.95 434.697 1246.09 466.425 1246.09 466.425C1246.09 466.425 1219.61 431.905 1211.77 438.28C1203.93 444.655 1235.37 476.643 1235.37 476.643C1235.37 476.643 1206.99 450.993 1201.66 457.054C1196.42 463.013 1228.16 487.347 1228.16 487.347C1228.16 487.347 1200.14 471.703 1197.42 475.286C1194.7 478.869 1209.42 492.128 1223.67 499.07C1234.52 523.102 1257.71 531.466 1257.71 531.466L1288.92 507.433Z" fill="#FFCFB8"/>
<path d="M1252.69 332.435C1252.75 332.834 1252.84 333.233 1252.9 333.637C1252.99 334.11 1253.05 334.509 1253.14 334.982C1257.48 357.437 1267.24 371.185 1280.13 381.057C1287.04 386.385 1293.38 390.228 1298.97 393.656C1300.76 394.765 1302.44 395.804 1304.08 396.848C1305.35 397.647 1306.56 398.482 1307.8 399.354C1320.32 407.963 1327.76 417.839 1328.35 447.516C1339.61 472.661 1380.86 475.465 1393.57 446.4C1392.41 410.486 1399.04 379.358 1405.05 359.259C1406.56 354.013 1408.06 349.537 1409.37 345.947C1411.83 339.062 1413.63 335.267 1413.63 335.267C1413.63 335.267 1410.27 256.348 1397.75 235.601C1367.26 185.548 1264.13 204.632 1256.89 245.07C1249.92 283.706 1249.13 311.671 1252.69 332.435Z" fill="#FFCFB8"/>
<path d="M1253.94 230.543C1275.1 251.714 1308.6 261.264 1338.73 254.705C1342.79 271.869 1353.8 287.505 1369.03 297.744C1384.26 307.983 1403.57 312.727 1422.19 310.807C1423.59 294.12 1424.39 276.157 1420.14 259.902C1415.9 243.647 1407.13 228.065 1393.36 217.443C1375.2 203.45 1350.35 199.451 1326.88 200.494C1299.22 201.721 1272.81 211.512 1253.94 230.543Z" fill="#181D30"/>
<path d="M1299.74 323.003C1298.2 322.391 1296.59 322.073 1294.91 322.09C1293.42 322.106 1291.79 322.399 1290.62 323.325C1289.37 324.315 1288.81 325.762 1288.8 327.278C1288.78 328.725 1289.39 330.115 1290.06 331.391C1290.42 332.076 1291.19 332.618 1292.04 332.304C1292.75 332.047 1293.4 331.179 1293.02 330.441C1292.53 329.508 1291.99 328.493 1291.92 327.441C1291.89 326.899 1292 326.341 1292.31 325.88C1292.29 325.909 1292.27 325.937 1292.26 325.966C1292.54 325.481 1293.13 325.269 1293.67 325.143C1293.71 325.134 1293.76 325.122 1293.82 325.114C1293.93 325.106 1294.05 325.081 1294.17 325.069C1294.48 325.037 1294.79 325.02 1295.1 325.016C1295.26 325.016 1295.42 325.02 1295.58 325.02C1295.66 325.02 1295.67 325.02 1295.7 325.02C1295.72 325.024 1295.73 325.024 1295.8 325.033C1296.78 325.13 1297.63 325.448 1298.57 325.693C1299.28 325.876 1300.11 325.628 1300.43 324.971C1300.76 324.291 1300.54 323.321 1299.74 323.003Z" fill="#C16B5B"/>
<path d="M1262.41 290.28C1269.55 284.656 1279.21 282.385 1288.28 284.794C1290.49 285.381 1292.15 287.668 1291.45 289.84C1290.53 292.661 1287.89 293.166 1285.18 292.591C1279.62 291.409 1273.89 292.534 1269.27 295.669C1269.11 295.771 1268.97 295.877 1268.72 296.048C1266.96 297.413 1264.28 297.862 1262.53 296.138C1261.03 294.658 1260.52 291.768 1262.41 290.28Z" fill="#181D30"/>
<path d="M1315.9 284.24C1324.64 281.199 1334.55 282.12 1342.23 287.252C1344.11 288.507 1344.85 291.181 1343.4 293.003C1342 294.768 1339.29 295.449 1337.28 294.104C1335 292.579 1332.41 291.54 1329.68 290.957C1329.8 290.998 1329.92 291.043 1330.04 291.084C1326.64 290.431 1323.28 290.737 1319.96 291.613C1317.7 292.213 1315.02 292.115 1313.92 289.791C1313.03 287.925 1313.59 285.043 1315.9 284.24Z" fill="#181D30"/>
<path d="M1334.88 312.189C1335.3 315.866 1332.46 319.167 1328.53 319.554C1324.62 319.946 1321.1 317.28 1320.69 313.599C1320.27 309.923 1323.11 306.621 1327.03 306.234C1330.95 305.847 1334.46 308.512 1334.88 312.189Z" fill="black"/>
<path d="M1327.13 310.807C1327.25 311.879 1326.42 312.841 1325.28 312.955C1324.14 313.069 1323.11 312.291 1322.99 311.219C1322.87 310.147 1323.7 309.185 1324.84 309.071C1325.98 308.957 1327.01 309.735 1327.13 310.807Z" fill="white"/>
<path d="M1282.86 314.378C1283.28 318.054 1280.44 321.356 1276.52 321.743C1272.6 322.134 1269.08 319.469 1268.67 315.788C1268.25 312.111 1271.09 308.814 1275.02 308.423C1278.93 308.031 1282.44 310.697 1282.86 314.378Z" fill="black"/>
<path d="M1275.11 312.992C1275.23 314.064 1274.4 315.026 1273.26 315.14C1272.12 315.254 1271.09 314.476 1270.97 313.404C1270.85 312.332 1271.68 311.37 1272.82 311.256C1273.96 311.145 1274.99 311.92 1275.11 312.992Z" fill="white"/>
<path d="M1317.59 340.366C1315.33 337.998 1310.99 341.467 1305.34 342.735C1299.68 344.002 1294.14 342.743 1293.26 345.816C1292.15 349.7 1299.21 357.168 1308.48 355.093C1317.74 353.014 1320.45 343.362 1317.59 340.366Z" fill="#8E4136"/>
<path d="M1318.25 346.236C1316.43 346.419 1314.5 346.709 1312.5 347.157C1305.92 348.633 1300.61 351.164 1298.44 353.577C1301.12 355.109 1304.58 355.969 1308.48 355.093C1314.05 353.846 1317.2 349.863 1318.25 346.236Z" fill="#C16B5B"/>
<path d="M1306.1 345.718C1311.15 344.585 1315.15 342.502 1316.06 339.592C1313.62 339.25 1309.9 341.711 1305.34 342.735C1300.76 343.758 1296.27 343.134 1294.25 344.479C1296.47 346.688 1301.05 346.851 1306.1 345.718Z" fill="#E1EFF0"/>
<path d="M1436.31 336.674C1427.64 346.762 1413.69 349.701 1405.16 343.236C1396.63 336.771 1396.75 323.353 1405.42 313.265C1414.09 303.177 1428.04 300.238 1436.57 306.703C1445.1 313.167 1444.98 326.586 1436.31 336.674Z" fill="#FFCFB8"/>
<path d="M1430.88 311.667C1427.07 309.862 1422.04 310.037 1417.43 312.148C1415.14 313.196 1413.48 314.455 1412.36 315.992C1410.89 318.026 1410.52 320.557 1411.4 322.595C1412.18 324.421 1413.77 325.591 1415.17 326.622C1416.19 327.368 1417.14 328.073 1417.7 328.925C1418.54 330.234 1418.38 332.092 1417.3 333.246C1416.23 334.395 1414.29 334.795 1412.8 334.179C1411.91 333.816 1410.9 334.195 1410.51 335.015C1410.13 335.838 1410.52 336.8 1411.4 337.163C1412.36 337.558 1413.39 337.738 1414.43 337.721C1416.49 337.685 1418.54 336.861 1419.91 335.39C1421.97 333.176 1422.28 329.749 1420.65 327.234C1419.78 325.876 1418.46 324.914 1417.31 324.063C1416.15 323.207 1415.05 322.4 1414.61 321.376C1414.16 320.349 1414.41 318.959 1415.23 317.83C1415.56 317.374 1416.01 316.962 1416.52 316.559C1418.24 316.514 1420.4 316.974 1421.51 318.071C1422.76 319.31 1423.38 321.128 1423.12 322.811C1422.98 323.704 1423.64 324.527 1424.59 324.658C1424.68 324.67 1424.78 324.678 1424.88 324.674C1425.71 324.662 1426.43 324.079 1426.56 323.28C1426.98 320.59 1426.03 317.806 1424.04 315.829C1423.29 315.095 1422.37 314.606 1421.41 314.211C1424.26 313.436 1427.1 313.53 1429.31 314.578C1432.05 315.874 1434.17 319.31 1432.83 322.167C1432.45 322.991 1432.85 323.948 1433.72 324.315C1434.6 324.674 1435.62 324.303 1436.01 323.48C1437.95 319.318 1435.6 313.913 1430.88 311.667Z" fill="#C16B5B"/>
<path d="M911.759 814.776H741.014C707.581 814.776 680.474 840.219 680.474 871.608V916.599C680.474 947.894 707.425 973.275 740.728 973.422L736.069 987.558C735.022 990.737 738.396 993.619 741.67 992.343L790.14 973.426H911.759C945.193 973.426 972.3 947.984 972.3 916.595V871.604C972.3 840.223 945.193 814.776 911.759 814.776Z" fill="white"/>
<path d="M898.829 857.313C884.704 849.365 867.432 848.595 852.773 854.99C849.912 852.279 846.79 849.817 843.447 847.698C826.1 836.701 803.852 833.611 783.336 835.478C763.393 837.292 743.181 845.106 732.435 861.801C722.392 877.4 724.576 898.815 740.25 910.456C746.959 915.437 755.356 918.359 763.918 918.567C764.175 918.576 764.431 918.551 764.687 918.551C766.159 920.247 767.731 921.849 769.381 923.34C772.546 926.198 775.985 928.704 779.602 930.938C779.328 931.04 779.055 931.154 778.781 931.256C768.434 935.002 757.249 937.211 746.181 935.454C744.271 935.153 743.45 937.896 745.374 938.201C758.356 940.264 770.87 937.443 782.706 932.768C795.467 939.889 810.304 943.814 824.767 946.366C846.095 950.132 869.034 950.955 889.142 942.147C906.115 934.716 919.77 920.63 922.154 902.757C924.564 884.68 915.506 866.696 898.829 857.313ZM866.216 892.986C866.103 894.817 869.134 894.812 869.251 892.986C869.646 886.709 868.535 880.563 866.303 874.787C871.574 876.283 876.146 879.519 878.704 884.48C882.716 892.265 879.185 900.853 871.748 905.492C868.821 907.313 865.447 908.561 861.913 909.294C856.52 902.32 846.308 902.357 838.193 904.346C837.42 904.538 836.66 904.762 835.896 904.974C832.383 902.324 829.965 898.648 829.153 894.156C830.386 891.882 831.81 889.701 833.399 887.688C838.844 880.787 846.733 875.138 856.004 874.013C858.274 873.735 860.558 873.752 862.777 874.045C865.365 880.045 866.624 886.481 866.216 892.986ZM860.007 925.411C855.995 932.128 846.512 933.828 839.226 931.362C831.094 928.611 826.044 920.662 825.058 912.881C825.023 912.616 825.036 912.351 825.01 912.082C826.126 911.597 827.229 911.08 828.362 910.627C830.473 909.784 832.778 908.891 835.179 908.104C840.142 911.271 846.39 912.706 852.391 912.857C854.992 912.922 857.654 912.767 860.276 912.384C862.473 916.317 862.417 921.376 860.007 925.411ZM829.035 902.206C829.991 903.657 831.163 904.892 832.426 906.017C829.873 906.849 827.368 907.786 824.906 908.813C825.019 905.263 825.84 901.762 827.168 898.416C827.659 899.72 828.241 901 829.035 902.206ZM839.091 906.971C844.419 905.642 849.968 905.227 854.792 907.362C856.199 907.986 857.337 908.866 858.326 909.853C853.754 910.354 849.065 910.065 844.819 909.062C842.773 908.585 840.854 907.872 839.091 906.971ZM854.171 871.408C844.528 872.981 836.469 879.01 830.777 886.249C830.108 887.101 829.474 887.985 828.862 888.886C829.309 882.091 832.513 875.537 836.968 870.234C841.084 865.331 846.299 861.357 852.113 858.495C855.513 861.915 858.474 865.755 860.841 870.047C861.023 870.381 861.184 870.727 861.362 871.066C858.978 870.907 856.559 871.021 854.171 871.408ZM757.293 899.871C754.774 892.257 754.366 884.023 757.036 876.397C759.559 869.195 765.338 862.196 773.349 859.995C782.42 857.501 791.573 862.522 795.863 870.01C800.092 877.392 800.044 886.432 796.935 894.156C792.011 906.401 779.784 914.948 766.22 915.633C762.329 910.998 759.242 905.756 757.293 899.871ZM768.651 918.347C775.681 917.622 782.32 914.956 787.852 910.701C801.928 899.879 807.881 878.386 795.441 864.369C789.441 857.607 779.363 854.542 770.527 857.912C762.295 861.055 756.524 868.347 753.936 876.14C749.473 889.587 753.732 904.261 762.316 915.612C761.057 915.535 759.789 915.408 758.521 915.188C750.753 913.835 743.476 910.195 738.123 904.721C731.896 898.354 728.935 889.607 729.248 881.04C729.886 863.545 744.353 849.573 760.892 843.292C770.141 839.778 780.131 838.233 790.066 837.916C799.588 837.61 809.179 838.36 818.432 840.54C830.216 843.316 841.271 848.599 849.881 856.372C848.705 856.979 847.541 857.619 846.408 858.324C838.796 863.048 832.318 869.749 828.714 877.669C826.461 882.621 825.258 888.348 825.983 893.769C823.36 898.888 821.767 904.481 821.862 910.126C808.684 916.04 796.444 924.058 783.08 929.577C777.73 926.426 772.819 922.692 768.651 918.347ZM917.03 911.088C914.295 918.575 909.202 925.15 902.923 930.376C888.833 942.098 869.924 946.435 851.458 946.227C840.972 946.109 830.546 944.682 820.308 942.624C811.181 940.79 802.111 938.385 793.566 934.814C791.056 933.767 788.598 932.593 786.21 931.325C791.651 928.994 796.944 926.332 802.059 923.626C808.684 920.12 815.263 916.501 822.093 913.35C822.097 913.37 822.093 913.387 822.097 913.407C823.217 921.641 828.31 929.87 836.582 933.4C844.176 936.64 854.045 935.801 860.063 930.058C864.922 925.415 866.303 917.76 863.459 911.817C869.494 910.452 875.1 907.68 879.025 903.017C884.8 896.153 884.808 886.934 879.303 879.906C875.721 875.337 870.554 872.594 864.913 871.522C862.451 866.317 859.069 861.475 855.001 857.199C863.459 853.694 872.963 852.495 882.199 854.256C899.61 857.578 913.861 869.916 918.138 886.175C920.278 894.36 919.944 903.103 917.03 911.088Z" fill="#619AC9"/>
<path d="M514.649 1485.17L512.903 1489.11L732.83 1574.89L734.576 1570.95L514.649 1485.17Z" fill="#245472"/>
<path d="M719.213 1485.2L499.286 1570.95L501.031 1574.9L720.959 1489.14L719.213 1485.2Z" fill="#245472"/>
<path d="M502.76 1466.8L463.574 1817.89H471.702L534.622 1466.8H502.76Z" fill="#245472"/>
<path d="M736.451 1466.8L775.638 1817.89H767.505L704.589 1466.8H736.451Z" fill="#245472"/>
<path d="M612.869 1492.17L611.123 1496.12L831.05 1581.9L832.796 1577.95L612.869 1492.17Z" fill="#245472"/>
<path d="M817.385 1492.28L597.458 1578.04L599.203 1581.98L819.131 1496.23L817.385 1492.28Z" fill="#245472"/>
<path d="M590.456 1466.8L551.269 1817.89H559.397L622.317 1466.8H590.456Z" fill="#245472"/>
<path d="M824.146 1466.8L863.333 1817.89H855.205L792.285 1466.8H824.146Z" fill="#245472"/>
<path d="M819.717 1372.84C804.342 1330.35 761.895 1301.78 714.081 1301.78H624.458L592.887 1206.71C587.247 1189.76 570.504 1178.18 551.577 1178.18H392.578C364.19 1178.18 343.491 1203.42 350.768 1229.22L372.513 1306.43V1306.47L392.803 1378.52C407.497 1430.54 457.629 1466.79 514.952 1466.79H831.849C842.552 1466.79 850.085 1456.93 846.651 1447.41L819.717 1372.84Z" fill="#162A45"/>
<path d="M827.846 1372.84C812.471 1330.35 770.023 1301.78 722.209 1301.78H632.586L601.015 1206.71C595.375 1189.76 578.632 1178.18 559.71 1178.18H400.71C372.322 1178.18 351.624 1203.42 358.901 1229.22L380.646 1306.43V1306.47L400.936 1378.52C415.629 1430.54 465.762 1466.79 523.085 1466.79H839.982C850.685 1466.79 858.218 1456.93 854.783 1447.41L827.846 1372.84Z" fill="#3A739B"/>
<path d="M640.558 1340.05L643.532 1343.12C643.532 1343.12 720.264 1362.67 745.547 1373.84C770.827 1385 771.721 1410.41 763.393 1436.1C755.065 1461.78 728.405 1544.43 728.405 1544.43C714.615 1546.1 686.362 1532.7 686.362 1532.7L704.329 1422.7C704.329 1422.7 607.845 1439.45 568.585 1415.99C529.325 1392.54 534.383 1341.45 534.383 1341.45L640.558 1340.05Z" fill="#619AC9"/>
<path d="M796.097 1582.75C796.114 1582.48 796.171 1582.17 796.14 1581.87C798.342 1573.58 795.719 1563.05 768.234 1551.92C755.326 1546.69 746.494 1538.62 741.97 1533.75C742.543 1522.54 756.038 1516.1 749.468 1512.16C734.419 1503.15 724.932 1527.67 724.91 1527.73C715.431 1526.09 702.67 1523.2 692.28 1518.31C692.28 1518.31 688.893 1521.42 685.02 1527.32C684.395 1528.32 683.726 1529.4 683.062 1530.56C682.918 1530.77 682.793 1531.01 682.636 1531.26C682.367 1531.71 682.107 1532.24 681.846 1532.77C681.777 1532.91 681.668 1533.1 681.624 1533.25C681.59 1533.38 681.494 1533.41 681.468 1533.51C680.205 1536 679.002 1538.78 677.982 1541.85C676.926 1545.04 675.993 1548.51 675.42 1552.25L675.324 1553.11C675.116 1554.38 674.951 1555.61 674.834 1556.95C674.808 1558.08 674.703 1559.29 674.617 1560.54L794.286 1589.9C794.286 1589.9 794.864 1588.64 795.437 1586.57C795.68 1585.5 795.941 1584.25 796.097 1582.75Z" fill="#FFB652"/>
<path d="M675.303 1553.14C675.125 1554.37 674.942 1555.64 674.86 1556.95C674.79 1558.12 674.677 1559.32 674.638 1560.57L794.278 1589.92C794.278 1589.92 794.873 1588.67 795.45 1586.59C795.698 1585.5 795.962 1584.23 796.088 1582.77L675.303 1553.14Z" fill="#EA5C4C"/>
<path d="M750.172 1540.64C750.059 1540.69 749.933 1540.74 750.172 1540.64Z" fill="white"/>
<path d="M752.356 1537.89C752.017 1536.95 750.832 1536.12 749.733 1536.54C745.995 1537.96 742.577 1539.84 739.421 1542.2C739.021 1542.49 738.809 1543.18 738.822 1543.63C738.835 1544.11 739.073 1544.68 739.46 1545C739.872 1545.35 740.42 1545.6 740.988 1545.56C741.574 1545.53 741.991 1545.31 742.447 1544.96C741.965 1545.32 742.551 1544.89 742.669 1544.8C742.851 1544.67 743.029 1544.55 743.216 1544.42C743.563 1544.18 743.919 1543.95 744.275 1543.72C745.009 1543.25 745.756 1542.81 746.524 1542.39C747.271 1541.98 748.031 1541.6 748.804 1541.23C749.212 1541.05 749.625 1540.86 750.037 1540.69C750.12 1540.65 750.202 1540.62 750.284 1540.58C750.224 1540.61 750.211 1540.61 750.172 1540.63C750.189 1540.62 750.211 1540.61 750.228 1540.61C750.458 1540.51 750.688 1540.42 750.923 1540.34C751.448 1540.14 751.882 1539.89 752.169 1539.41C752.425 1538.99 752.529 1538.36 752.356 1537.89Z" fill="white"/>
<path d="M757.866 1545.53C757.757 1545.59 757.64 1545.66 757.866 1545.53Z" fill="white"/>
<path d="M759.737 1542.58C759.299 1541.69 758.026 1540.98 756.984 1541.49C753.419 1543.27 750.228 1545.47 747.345 1548.11C746.98 1548.45 746.841 1549.15 746.902 1549.6C746.967 1550.07 747.267 1550.62 747.684 1550.9C748.131 1551.2 748.704 1551.4 749.264 1551.31C749.842 1551.22 750.232 1550.96 750.654 1550.58C750.211 1550.98 750.749 1550.5 750.858 1550.4C751.023 1550.25 751.192 1550.11 751.361 1549.97C751.683 1549.7 752.008 1549.43 752.338 1549.17C753.016 1548.63 753.715 1548.12 754.431 1547.63C755.13 1547.15 755.842 1546.7 756.576 1546.26C756.963 1546.03 757.349 1545.81 757.744 1545.6C757.822 1545.56 757.9 1545.51 757.979 1545.47C757.922 1545.51 757.909 1545.51 757.874 1545.53C757.892 1545.52 757.913 1545.51 757.926 1545.5C758.144 1545.39 758.365 1545.28 758.586 1545.17C759.086 1544.92 759.494 1544.62 759.724 1544.12C759.928 1543.68 759.963 1543.04 759.737 1542.58Z" fill="white"/>
<path d="M766.663 1549.92C766.567 1550 766.467 1550.09 766.663 1549.92Z" fill="white"/>
<path d="M767.787 1546.66C767.149 1545.88 765.738 1545.45 764.843 1546.17C761.786 1548.65 759.199 1551.46 757.01 1554.64C756.732 1555.04 756.767 1555.76 756.932 1556.18C757.106 1556.63 757.527 1557.1 758.005 1557.28C758.517 1557.49 759.116 1557.57 759.646 1557.36C760.189 1557.15 760.51 1556.81 760.823 1556.35C760.488 1556.84 760.896 1556.25 760.979 1556.14C761.105 1555.96 761.235 1555.78 761.365 1555.61C761.613 1555.28 761.869 1554.95 762.13 1554.63C762.664 1553.96 763.219 1553.31 763.806 1552.69C764.374 1552.08 764.96 1551.48 765.573 1550.91C765.894 1550.61 766.22 1550.31 766.554 1550.02C766.619 1549.96 766.689 1549.91 766.754 1549.85C766.706 1549.89 766.693 1549.9 766.663 1549.93C766.68 1549.92 766.697 1549.9 766.706 1549.89C766.893 1549.74 767.079 1549.58 767.27 1549.43C767.7 1549.08 768.026 1548.71 768.135 1548.17C768.23 1547.68 768.113 1547.05 767.787 1546.66Z" fill="white"/>
<path d="M472.071 1337.82C456.262 1383.4 463.344 1433.08 530.319 1450.4C593.669 1466.79 662.567 1442.52 662.567 1442.52L673.079 1567.67C706.569 1573.42 728.562 1567.67 728.562 1567.67C728.562 1567.67 728.892 1462.9 728.297 1425.48C727.702 1388.07 713.213 1377.28 669.406 1365.73C627.024 1354.56 580.777 1343.4 580.777 1343.4L472.071 1337.82Z" fill="#619AC9"/>
<path d="M627.545 1355.55C644.6 1360.11 661.721 1364.5 678.72 1369.24C686.062 1371.29 693.391 1373.61 700.091 1377.15C706.752 1380.66 712.453 1385.41 716.704 1391.39C725.809 1404.19 727.88 1419.89 728.027 1434.93C728.11 1443.22 727.745 1451.5 727.641 1459.78C727.537 1468.15 727.528 1476.53 727.55 1484.9C727.602 1503.79 727.793 1522.68 727.328 1541.56C727.311 1542.32 728.566 1542.32 728.583 1541.56C729.009 1524.34 728.883 1507.11 728.822 1489.88C728.792 1481.31 728.774 1472.73 728.848 1464.16C728.922 1455.56 729.248 1446.98 729.291 1438.39C729.369 1423.25 727.993 1407.51 719.917 1394.06C716.33 1388.09 711.489 1382.91 705.51 1378.96C699.379 1374.91 692.384 1372.17 685.307 1369.95C676.371 1367.15 667.213 1364.92 658.152 1362.5C648.061 1359.81 637.97 1357.12 627.879 1354.42C627.098 1354.21 626.768 1355.34 627.545 1355.55Z" fill="#245472"/>
<path d="M635.747 1352.49C636.78 1354.41 637.818 1356.33 638.851 1358.26C639.003 1358.54 639.429 1358.62 639.711 1358.47C640.019 1358.3 640.089 1357.95 639.937 1357.66C638.904 1355.74 637.866 1353.82 636.832 1351.89C636.68 1351.61 636.255 1351.53 635.973 1351.68C635.664 1351.85 635.595 1352.2 635.747 1352.49Z" fill="#245472"/>
<path d="M707.837 1193.74C712.448 1189.97 710.998 1157.3 718.349 1156.39C725.071 1155.57 729.213 1169.06 726.195 1175.71C733.933 1170.23 757.11 1140.6 762.98 1145.92C767.322 1149.86 747.232 1170.29 747.232 1170.29C747.232 1170.29 773.288 1148.98 777.926 1155C782.567 1161.01 753.294 1179.63 753.294 1179.63C753.294 1179.63 779.115 1165.22 781.951 1170.59C784.738 1175.87 756.663 1188.75 756.663 1188.75C756.663 1188.75 780.366 1181.71 781.721 1184.82C783.075 1187.92 769.693 1195.36 757.822 1198.19C745.313 1214.26 726.551 1216.68 726.551 1216.68L707.837 1193.74Z" fill="#EDA895"/>
<path d="M586.978 1147.41C614.488 1151.67 629.924 1228.6 629.924 1228.6L710.108 1190.75L728.562 1215.32C728.562 1215.32 671.89 1256.67 648.69 1265.86C625.491 1275.05 598.723 1280.94 586.083 1254.13C573.448 1227.33 586.978 1147.41 586.978 1147.41Z" fill="#EDA895"/>
<path d="M586.978 1147.41C618.357 1151.11 642.199 1208.97 642.199 1208.97C631.444 1220.07 604.081 1232.91 604.081 1232.91L586.978 1147.41Z" fill="#EA5C4C"/>
<path d="M471.298 1339.84C616.868 1358.83 645.742 1342.15 645.742 1342.15L586.978 1147.41L549.185 1143.15L515.157 1146.97L477.867 1159.08L471.298 1339.84Z" fill="#EA5C4C"/>
<path d="M566.913 1224.53C569.831 1221.03 572.749 1217.53 575.667 1214.04C585.883 1201.78 567.573 1184.35 557.244 1196.74L529.16 1230.43C523.063 1237.74 525.821 1252.38 538.369 1251.3C540.492 1251.12 542.615 1250.94 544.734 1250.75C539.437 1264.22 535.516 1278.03 533.154 1292.49C530.64 1307.88 555.741 1314.52 558.277 1298.99C561.468 1279.43 567.195 1260.84 576.266 1242.96C579.861 1235.88 576.227 1225.07 566.913 1224.53Z" fill="#FF847B"/>
<path d="M588.914 1156.98C596.113 1180.76 603.312 1204.54 610.507 1228.31C610.728 1229.04 611.94 1228.73 611.718 1228C604.519 1204.22 597.32 1180.45 590.126 1156.67C589.9 1155.94 588.688 1156.25 588.914 1156.98Z" fill="#A83027"/>
<path d="M481.332 1269.62C487.116 1249.25 494.154 1229.2 502.408 1209.6C502.704 1208.89 501.492 1208.59 501.197 1209.28C492.939 1228.89 485.9 1248.94 480.121 1269.31C479.913 1270.04 481.124 1270.35 481.332 1269.62Z" fill="#A83027"/>
<path d="M507.554 1214.33C502.699 1219.84 497.845 1225.34 492.991 1230.84C492.478 1231.42 493.364 1232.26 493.876 1231.67C498.731 1226.17 503.585 1220.66 508.439 1215.17C508.952 1214.59 508.07 1213.75 507.554 1214.33Z" fill="#A83027"/>
<path d="M477.872 1159.08C449.571 1168.55 419.168 1245.03 415.608 1275.69C412.321 1304.03 420.575 1322.49 462.957 1321.76C500.667 1321.11 586.087 1295.03 586.087 1295.03L578.615 1262.85L467.568 1277.16L491.063 1215.24L477.872 1159.08Z" fill="#EDB7A8"/>
<path d="M477.872 1159.08C428.008 1178.18 406.893 1260.27 406.893 1260.27C426.523 1270.88 479.166 1270.88 479.166 1270.88L498.097 1211.76L477.872 1159.08Z" fill="#EA5C4C"/>
<path d="M573.565 1267.81C579.166 1265.51 588.176 1233.92 595.484 1235.12C602.162 1236.22 601.818 1250.26 596.825 1255.75C605.952 1252.69 637.505 1230.92 641.413 1237.64C644.305 1242.62 618.626 1256.48 618.626 1256.48C618.626 1256.48 650.271 1243.46 652.785 1250.5C655.299 1257.54 621.44 1267.09 621.44 1267.09C621.44 1267.09 650.67 1260.58 651.665 1266.51C652.646 1272.33 621.753 1276.75 621.753 1276.75C621.753 1276.75 646.615 1276.68 646.919 1280.02C647.227 1283.36 632.082 1286.71 619.86 1286.08C602.809 1297.9 584.129 1294.95 584.129 1294.95L573.565 1267.81Z" fill="#EDB7A8"/>
<path d="M660.844 916.228C661.3 905.263 657.648 893.85 649.363 886.106C643.128 880.281 634.648 876.849 625.951 875.61C617.254 874.371 608.874 875.553 600.308 877.42C599.209 867.654 591.228 859.416 581.715 855.332C572.202 851.248 561.368 850.759 550.939 851.517C517.119 853.983 484.585 869.439 462.44 893.557C456.566 899.956 451.125 908.178 448.698 916.309C442.068 917.34 436.019 920.719 431.204 925.126C426.389 929.532 422.724 934.924 419.62 940.525C406.494 964.214 403.116 992.526 410.336 1018.36C411.27 1021.69 412.468 1025.13 415.126 1027.51C417.783 1029.88 422.233 1031.11 425.008 1028.86C422.737 1044.26 428.564 1060.54 440.292 1071.52C452.02 1082.5 469.366 1087.93 485.766 1085.76L633.454 1025.64C653.788 1004.95 660.744 973.883 650.571 947.401C656.18 937.769 660.392 927.196 660.844 916.228Z" fill="#181D30"/>
<path d="M651.695 1023.89C651.756 1029.9 651.552 1035.54 651.044 1040.78C648.573 1069.03 638.543 1086.87 623.737 1099.64C613.616 1108.36 602.539 1113.42 592.44 1117.98C573.322 1126.57 557.795 1133.21 559.336 1159.11C542.789 1175.1 517.892 1170.79 508.826 1157.28C506.39 1104.98 479.743 1089.87 470.838 1069.85C468.115 1063.71 466.009 1059.66 465.137 1058.13C464.868 1057.58 464.768 1057.33 464.768 1057.33C464.768 1057.33 464.42 1048.92 464.39 1036.5L464.342 1031.79C464.342 1002.72 465.619 957.008 473.986 940.476C504.658 879.951 626.038 893.687 638.196 939.962C647.288 974.588 651.439 1001.92 651.695 1023.89Z" fill="#EDB7A8"/>
<path d="M643.715 939.824C637.015 949.096 623.572 951.24 611.645 951.595C580.881 952.504 549.919 946.899 521.717 935.315C526.507 936.432 529.094 941.996 527.601 946.41C526.107 950.825 521.461 953.845 516.611 954.685C511.761 955.524 506.746 954.501 502.105 952.928C506.121 970.124 504.141 988.507 496.538 1004.6C488.94 1020.7 475.757 1034.42 459.488 1043.17C450.456 1013.31 449.931 980.967 459.375 951.216C464.099 936.326 471.433 921.632 483.885 911.406C502.973 895.733 530.375 893.235 555.733 893.492C574.568 893.683 593.834 895.081 611.08 902.194C628.331 909.302 640.006 922.488 643.715 939.824Z" fill="#181D30"/>
<path d="M572.067 1040.57C574.651 1036.55 581.95 1040.47 590.512 1040.85C599.074 1041.23 606.738 1037.99 608.905 1042.22C611.64 1047.56 603.59 1060.19 589.561 1059.56C575.532 1058.93 568.802 1045.64 572.067 1040.57Z" fill="#8E4136"/>
<path d="M572.827 1049.24C575.523 1049.04 578.394 1048.96 581.42 1049.1C591.385 1049.55 599.821 1051.85 603.664 1054.79C600.234 1057.69 595.475 1059.83 589.565 1059.56C581.129 1059.18 575.402 1054.22 572.827 1049.24Z" fill="#C16B5B"/>
<path d="M590.282 1045.37C582.636 1045.03 576.227 1043.03 574.052 1039.05C577.499 1037.92 583.595 1040.54 590.512 1040.85C597.433 1041.16 603.759 1039.1 607.081 1040.53C604.511 1044.3 597.928 1045.71 590.282 1045.37Z" fill="white"/>
<path d="M602.505 1029.46C602.939 1029.44 603.325 1029.15 603.429 1028.73C604.971 1022.46 602.613 1020.48 600.364 1019.93C598.084 1019.37 595.427 1020.05 592.475 1021.98C592.019 1022.28 591.906 1022.87 592.227 1023.3C592.553 1023.72 593.187 1023.83 593.634 1023.53C596.07 1021.94 598.163 1021.34 599.847 1021.76C601.866 1022.25 602.409 1024.45 601.463 1028.31C601.337 1028.81 601.675 1029.32 602.218 1029.44C602.314 1029.46 602.413 1029.47 602.505 1029.46Z" fill="#C16B5B"/>
<path d="M617.22 1006.74C617.059 1011.84 621.327 1016.1 626.759 1016.25C632.191 1016.4 636.724 1012.4 636.885 1007.3C637.045 1002.2 632.777 997.943 627.345 997.792C621.918 997.638 617.38 1001.64 617.22 1006.74Z" fill="black"/>
<path d="M627.723 1004.09C627.675 1005.57 628.921 1006.81 630.502 1006.86C632.082 1006.9 633.407 1005.73 633.454 1004.25C633.502 1002.77 632.256 1001.52 630.675 1001.48C629.095 1001.43 627.771 1002.6 627.723 1004.09Z" fill="white"/>
<path d="M549.076 1006.74C548.911 1011.84 553.184 1016.1 558.616 1016.25C564.048 1016.4 568.581 1012.4 568.741 1007.3C568.902 1002.2 564.634 997.943 559.202 997.792C553.774 997.638 549.237 1001.64 549.076 1006.74Z" fill="black"/>
<path d="M559.58 1004.09C559.532 1005.57 560.778 1006.81 562.359 1006.86C563.939 1006.9 565.263 1005.73 565.311 1004.25C565.359 1002.76 564.113 1001.52 562.532 1001.48C560.952 1001.43 559.627 1002.6 559.58 1004.09Z" fill="white"/>
<path d="M639.09 980.897C632.46 976.377 623.919 974.881 615.939 976.373C614.02 976.732 612.743 978.969 613.334 980.681C613.993 982.593 615.869 983.51 617.923 983.127C618.257 983.066 618.587 983.013 618.922 982.96C618.961 982.964 619.738 982.866 619.855 982.858C620.728 982.789 621.605 982.764 622.482 982.78C623.251 982.797 624.01 982.858 624.779 982.919C624.857 982.927 624.849 982.927 624.896 982.931C625.07 982.956 625.244 982.98 625.413 983.009C625.847 983.078 626.277 983.16 626.703 983.249C627.558 983.433 628.405 983.653 629.234 983.914C629.547 984.011 629.855 984.113 630.163 984.223C630.332 984.285 630.497 984.346 630.662 984.407C630.71 984.427 630.706 984.427 630.788 984.46C632.382 985.173 633.893 985.968 635.321 986.946C636.906 988.026 639.551 987.248 640.428 985.691C641.452 983.869 640.784 982.051 639.09 980.897Z" fill="black"/>
<path d="M546.871 980.897C553.496 976.377 562.042 974.881 570.022 976.373C571.941 976.732 573.218 978.969 572.627 980.681C571.967 982.593 570.092 983.51 568.038 983.127C567.703 983.066 567.373 983.013 567.039 982.96C567 982.964 566.223 982.866 566.106 982.858C565.233 982.789 564.356 982.764 563.479 982.78C562.71 982.797 561.95 982.858 561.182 982.919C561.104 982.927 561.112 982.927 561.065 982.931C560.891 982.956 560.717 982.98 560.548 983.009C560.114 983.078 559.684 983.16 559.258 983.249C558.403 983.433 557.556 983.653 556.727 983.914C556.414 984.011 556.106 984.113 555.798 984.223C555.628 984.285 555.463 984.346 555.294 984.407C555.246 984.427 555.251 984.427 555.168 984.46C553.575 985.173 552.064 985.968 550.635 986.946C549.05 988.026 546.406 987.248 545.529 985.691C544.508 983.869 545.177 982.051 546.871 980.897Z" fill="black"/>
<path d="M438.533 1067.28C449.523 1078.28 465.97 1080.56 475.271 1072.37C484.572 1064.18 483.204 1048.63 472.214 1037.63C461.225 1026.63 444.777 1024.36 435.477 1032.54C426.176 1040.73 427.544 1056.28 438.533 1067.28Z" fill="#EDB7A8"/>
<path d="M442.537 1037.84C446.787 1035.43 452.64 1035.23 458.177 1037.31C460.938 1038.34 462.97 1039.66 464.407 1041.35C466.309 1043.59 466.969 1046.5 466.135 1048.93C465.393 1051.12 463.656 1052.6 462.128 1053.91C461.021 1054.86 459.97 1055.75 459.41 1056.78C458.55 1058.37 458.915 1060.51 460.269 1061.76C461.62 1063.01 463.899 1063.31 465.58 1062.48C466.57 1061.99 467.785 1062.34 468.306 1063.26C468.827 1064.18 468.458 1065.33 467.473 1065.82C466.396 1066.36 465.211 1066.65 464.008 1066.71C461.615 1066.84 459.166 1066.05 457.438 1064.45C454.842 1062.05 454.165 1058.1 455.823 1055.06C456.718 1053.41 458.15 1052.19 459.418 1051.11C460.686 1050.02 461.885 1049 462.301 1047.77C462.723 1046.55 462.314 1044.96 461.255 1043.71C460.829 1043.21 460.265 1042.77 459.644 1042.34C457.642 1042.43 455.172 1043.14 453.986 1044.5C452.649 1046.04 452.102 1048.2 452.558 1050.13C452.801 1051.15 452.115 1052.16 451.025 1052.39C450.917 1052.41 450.808 1052.42 450.695 1052.43C449.727 1052.48 448.837 1051.86 448.62 1050.95C447.886 1047.86 448.724 1044.56 450.86 1042.1C451.655 1041.19 452.68 1040.55 453.761 1040.01C450.378 1039.34 447.1 1039.68 444.625 1041.08C441.568 1042.81 439.428 1046.97 441.243 1050.17C441.764 1051.09 441.39 1052.24 440.409 1052.73C439.423 1053.22 438.208 1052.87 437.682 1051.95C435.034 1047.28 437.261 1040.82 442.537 1037.84Z" fill="#C16B5B"/>
<path d="M795.628 1604C795.576 1603.74 795.55 1603.43 795.441 1603.14C795.441 1594.59 790.179 1584.97 760.645 1580.42C746.772 1578.28 736.121 1572.46 730.481 1568.76C728.145 1557.75 739.581 1548.43 732.187 1546.11C715.262 1540.78 712.379 1566.74 712.375 1566.79C702.757 1567.36 689.627 1567.45 678.285 1565.07C678.285 1565.07 675.802 1568.86 673.566 1575.46C673.218 1576.58 672.845 1577.78 672.498 1579.05C672.411 1579.29 672.354 1579.55 672.267 1579.84C672.124 1580.33 672.007 1580.91 671.89 1581.48C671.859 1581.63 671.803 1581.84 671.803 1582C671.803 1582.13 671.716 1582.18 671.716 1582.28C671.134 1584.99 670.683 1587.96 670.483 1591.17C670.283 1594.51 670.27 1598.08 670.678 1601.84L670.809 1602.7C670.934 1603.98 671.086 1605.21 671.325 1606.54C671.59 1607.64 671.803 1608.84 672.042 1610.07L795.724 1611.36C795.724 1611.36 795.958 1610.01 795.984 1607.87C795.932 1606.77 795.863 1605.49 795.628 1604Z" fill="#FFB652"/>
<path d="M670.787 1602.72C670.934 1603.96 671.086 1605.23 671.343 1606.52C671.573 1607.66 671.777 1608.86 672.059 1610.08L795.711 1611.37C795.711 1611.37 795.967 1610.03 795.988 1607.88C795.945 1606.76 795.88 1605.47 795.624 1604.02L670.787 1602.72Z" fill="#EA5C4C"/>
<path d="M740.211 1573.58C740.111 1573.65 740.003 1573.73 740.211 1573.58Z" fill="white"/>
<path d="M741.618 1570.41C741.049 1569.58 739.681 1569.04 738.726 1569.7C735.465 1571.93 732.634 1574.53 730.177 1577.53C729.868 1577.91 729.834 1578.62 729.964 1579.06C730.099 1579.52 730.476 1580.02 730.937 1580.24C731.427 1580.49 732.022 1580.61 732.565 1580.44C733.125 1580.27 733.472 1579.97 733.828 1579.53C733.451 1579.99 733.911 1579.44 734.002 1579.33C734.145 1579.16 734.289 1579 734.432 1578.83C734.71 1578.52 734.988 1578.21 735.279 1577.91C735.869 1577.29 736.481 1576.69 737.115 1576.11C737.736 1575.54 738.374 1574.99 739.03 1574.47C739.377 1574.2 739.729 1573.93 740.085 1573.66C740.155 1573.61 740.228 1573.56 740.298 1573.5C740.246 1573.54 740.233 1573.55 740.202 1573.58C740.22 1573.56 740.237 1573.55 740.25 1573.54C740.45 1573.4 740.65 1573.26 740.854 1573.12C741.31 1572.81 741.67 1572.46 741.826 1571.93C741.97 1571.46 741.909 1570.83 741.618 1570.41Z" fill="white"/>
<path d="M748.938 1576.58C748.847 1576.66 748.747 1576.75 748.938 1576.58Z" fill="white"/>
<path d="M749.994 1573.29C749.338 1572.52 747.918 1572.12 747.041 1572.86C744.041 1575.39 741.509 1578.26 739.395 1581.48C739.13 1581.88 739.173 1582.6 739.351 1583.02C739.534 1583.46 739.968 1583.92 740.446 1584.1C740.958 1584.3 741.566 1584.36 742.087 1584.14C742.625 1583.92 742.938 1583.58 743.242 1583.11C742.916 1583.61 743.311 1583.01 743.394 1582.89C743.515 1582.71 743.641 1582.54 743.767 1582.36C744.006 1582.02 744.253 1581.69 744.51 1581.36C745.026 1580.69 745.573 1580.03 746.142 1579.39C746.698 1578.77 747.271 1578.16 747.87 1577.58C748.183 1577.27 748.504 1576.96 748.834 1576.67C748.899 1576.6 748.965 1576.55 749.03 1576.49C748.982 1576.53 748.973 1576.54 748.943 1576.57C748.956 1576.56 748.973 1576.54 748.986 1576.53C749.169 1576.37 749.355 1576.21 749.542 1576.05C749.963 1575.7 750.28 1575.32 750.38 1574.78C750.458 1574.31 750.328 1573.68 749.994 1573.29Z" fill="white"/>
<path d="M758.604 1578.84C758.534 1578.94 758.46 1579.05 758.604 1578.84Z" fill="white"/>
<path d="M758.851 1575.41C758.031 1574.8 756.55 1574.71 755.868 1575.61C753.541 1578.7 751.752 1582.02 750.45 1585.6C750.285 1586.06 750.502 1586.74 750.771 1587.12C751.057 1587.51 751.587 1587.87 752.095 1587.95C752.642 1588.03 753.246 1587.97 753.706 1587.65C754.179 1587.32 754.401 1586.92 754.592 1586.4C754.392 1586.95 754.635 1586.29 754.687 1586.16C754.765 1585.96 754.844 1585.76 754.926 1585.56C755.082 1585.18 755.243 1584.81 755.412 1584.43C755.76 1583.66 756.133 1582.91 756.537 1582.17C756.928 1581.45 757.349 1580.74 757.792 1580.04C758.026 1579.67 758.265 1579.31 758.513 1578.96C758.565 1578.89 758.613 1578.81 758.665 1578.74C758.63 1578.8 758.621 1578.81 758.599 1578.84C758.613 1578.83 758.626 1578.81 758.634 1578.79C758.773 1578.6 758.916 1578.41 759.064 1578.21C759.39 1577.78 759.611 1577.35 759.576 1576.8C759.546 1576.31 759.272 1575.73 758.851 1575.41Z" fill="white"/>
<path d="M565.407 1466.8H514.952C457.629 1466.8 407.497 1430.54 392.803 1378.52L372.513 1306.48V1306.44H418.586C470.694 1306.44 517.11 1337.34 534.335 1383.51L565.407 1466.8Z" fill="#162A45"/>
<path d="M1817.9 1511.63C1813.15 1493.41 1800.12 1477.23 1782.75 1467.96C1770.95 1461.67 1756.7 1457.96 1748.84 1447.59C1741.09 1437.35 1741.9 1423.72 1741.2 1411.18C1740.33 1395.55 1736.34 1379.58 1726.34 1367.05C1716.33 1354.52 1699.45 1346.1 1682.99 1348.6C1662.27 1351.74 1647.59 1371.82 1647.43 1391.52C1647.27 1411.23 1659.07 1429.68 1674.66 1442.87C1681.98 1449.06 1690.62 1454.96 1693.33 1463.85C1696.65 1474.77 1689.83 1485.93 1688.16 1497.18C1686.02 1511.58 1692.59 1526.08 1702.05 1537.59C1716.33 1554.98 1737.79 1566.58 1760.61 1570.79C1772.15 1572.92 1784.11 1573.18 1795.72 1571.33C1807.95 1569.38 1810.24 1564.22 1814.63 1553.89C1820.28 1540.57 1821.53 1525.58 1817.9 1511.63Z" fill="#FFB652"/>
<path d="M1688.69 1363.89C1696.12 1391.4 1706.04 1418.3 1718.29 1444.24C1730.51 1470.13 1745.05 1495.06 1761.73 1518.67C1771.06 1531.89 1781.07 1544.68 1791.69 1557.01C1792.18 1557.57 1793.03 1556.77 1792.54 1556.2C1773.6 1534.22 1756.66 1510.72 1741.93 1486.06C1727.2 1461.39 1714.68 1435.57 1704.56 1408.94C1698.9 1394.05 1694 1378.91 1689.86 1363.59C1689.67 1362.88 1688.5 1363.18 1688.69 1363.89Z" fill="#162A45"/>
<path d="M1744.76 1534.76C1730.73 1511.38 1727.63 1482.45 1736.4 1456.91C1741.47 1442.14 1750.27 1428.58 1754.19 1413.5C1760.59 1388.89 1753.36 1363.03 1743.91 1339.3C1734.47 1315.58 1722.65 1292.26 1719.47 1267.11C1716.28 1241.96 1723.72 1213.7 1745.79 1199.13C1765.98 1185.79 1794.78 1187.25 1815.66 1199.62C1836.54 1211.99 1849.88 1233.66 1855.14 1256.3C1860.41 1278.95 1858.3 1302.59 1853.51 1325.33C1849.52 1344.27 1843.82 1364.55 1851.99 1382.27C1856.23 1391.48 1863.81 1398.88 1870.56 1406.66C1888.26 1427.09 1901.06 1451.68 1904.56 1477.81C1908.05 1503.93 1901.74 1531.57 1884.89 1552.62C1870.59 1570.48 1838.09 1592.29 1812.73 1584.53C1785.37 1576.16 1758.97 1558.46 1744.76 1534.76Z" fill="#FF884D"/>
<path d="M1787.34 1209.31C1793.64 1232.56 1799.24 1255.97 1804.12 1279.52C1808.97 1302.95 1813.11 1326.51 1816.53 1350.17C1820 1374.12 1822.73 1398.17 1824.72 1422.27C1826.69 1446.19 1827.94 1470.15 1828.46 1494.14C1828.98 1518.12 1828.76 1542.11 1827.81 1566.08C1827.7 1569.02 1827.57 1571.96 1827.43 1574.9C1827.4 1575.63 1828.61 1575.63 1828.64 1574.9C1829.76 1550.93 1830.16 1526.94 1829.82 1502.95C1829.48 1478.85 1828.4 1454.75 1826.59 1430.71C1824.78 1406.78 1822.25 1382.9 1818.99 1359.11C1815.75 1335.38 1811.79 1311.74 1807.11 1288.23C1802.41 1264.65 1797 1241.2 1790.88 1217.9C1790.09 1214.94 1789.3 1211.97 1788.5 1209.01C1788.31 1208.31 1787.15 1208.6 1787.34 1209.31Z" fill="#162A45"/>
<path d="M1808.24 1517.78C1808.37 1493.72 1819.46 1469.89 1838.18 1453.45C1850.89 1442.29 1867.49 1433.67 1873.99 1418.52C1880.39 1403.58 1875.04 1386.81 1871.92 1370.97C1868.04 1351.22 1867.92 1330.18 1876.42 1311.75C1884.91 1293.31 1903.28 1278.06 1924.61 1276.56C1951.46 1274.68 1976.16 1295.59 1982.64 1320.13C1989.11 1344.66 1980.27 1370.99 1965.02 1391.82C1957.87 1401.59 1948.97 1411.37 1948.42 1423.22C1947.75 1437.78 1959.81 1449.78 1965.48 1463.35C1972.73 1480.71 1969.15 1500.64 1961.03 1517.66C1948.75 1543.34 1925.68 1563.84 1898.55 1575.5C1884.83 1581.39 1870 1585.07 1854.93 1586.02C1839.05 1587.03 1834.55 1581.24 1825.78 1569.58C1814.48 1554.55 1808.15 1536.2 1808.24 1517.78Z" fill="#FFB652"/>
<path d="M1920.98 1297.22C1920.73 1315.24 1919.68 1333.26 1917.82 1351.2C1915.94 1369.35 1913.23 1387.43 1909.72 1405.37C1906.24 1423.1 1901.98 1440.69 1896.95 1458.09C1891.89 1475.57 1886.05 1492.86 1879.45 1509.88C1872.83 1526.93 1865.44 1543.73 1857.3 1560.19C1856.28 1562.26 1855.25 1564.32 1854.21 1566.37C1853.87 1567.03 1854.92 1567.6 1855.25 1566.94C1863.53 1550.63 1871.09 1533.99 1877.89 1517.07C1884.73 1500.04 1890.8 1482.73 1896.09 1465.22C1901.38 1447.71 1905.88 1429.99 1909.58 1412.12C1913.25 1394.38 1916.14 1376.49 1918.23 1358.51C1920.32 1340.42 1921.6 1322.24 1922.06 1304.04C1922.11 1301.77 1922.16 1299.49 1922.19 1297.22C1922.19 1296.49 1920.99 1296.49 1920.98 1297.22Z" fill="#162A45"/>
<path d="M1919.35 1789.67H1740.22L1718.76 1581.22H1940.8L1919.35 1789.67Z" fill="#FF847B"/>
<path d="M1951.69 1559.62H1707.87V1602.83H1951.69V1559.62Z" fill="#A83027"/>
</svg>
