<?xml version="1.0" encoding="utf-8"?>
<!-- Generator: Adobe Illustrator 27.5.0, SVG Export Plug-In . SVG Version: 6.00 Build 0)  -->
<svg version="1.1" xmlns="http://www.w3.org/2000/svg" xmlns:xlink="http://www.w3.org/1999/xlink" x="0px" y="0px"
	 viewBox="0 0 500 500" style="enable-background:new 0 0 500 500;" xml:space="preserve">
<g id="BACKGROUND">
	<rect style="fill:#E6F3FF;" width="500" height="500"/>
</g>
<g id="OBJECTS">
	<g>
		<g>
			<path style="fill:#CBE3F8;" d="M410.479,151.254h-65.811c-12.358,0-22.376,10.018-22.376,22.376l0,0
				c0,12.358,10.018,22.376,22.376,22.376h65.811c12.358,0,22.376-10.018,22.376-22.376l0,0
				C432.856,161.272,422.838,151.254,410.479,151.254z"/>
			<g>
				<g>
					<path style="fill:#3A739B;" d="M354.199,157.198c-0.794,0-1.439,0.54-1.439,1.206v30.452c0,0.666,0.644,1.206,1.439,1.206
						c0.794,0,1.438-0.54,1.438-1.206v-30.452C355.637,157.738,354.993,157.198,354.199,157.198z"/>
					<path style="fill:#3A739B;" d="M359.683,160.59c-0.794,0-1.438,0.54-1.438,1.206v23.668c0,0.666,0.644,1.206,1.438,1.206
						s1.438-0.54,1.438-1.206v-23.668C361.122,161.13,360.478,160.59,359.683,160.59z"/>
					<path style="fill:#3A739B;" d="M348.715,160.59c-0.794,0-1.438,0.54-1.438,1.206v23.668c0,0.666,0.644,1.206,1.438,1.206
						s1.438-0.54,1.438-1.206v-23.668C350.153,161.13,349.509,160.59,348.715,160.59z"/>
					<path style="fill:#3A739B;" d="M365.167,162.248L365.167,162.248c-0.794,0-1.439,0.54-1.439,1.206v20.352
						c0,0.666,0.644,1.206,1.439,1.206l0,0c0.794,0,1.438-0.54,1.438-1.206v-20.352
						C366.606,162.788,365.962,162.248,365.167,162.248z"/>
					<path style="fill:#3A739B;" d="M343.231,162.248c-0.794,0-1.439,0.54-1.439,1.206v20.352c0,0.666,0.644,1.206,1.439,1.206
						c0.794,0,1.438-0.54,1.438-1.206v-20.352C344.669,162.788,344.025,162.248,343.231,162.248z"/>
					<path style="fill:#3A739B;" d="M370.651,166.771L370.651,166.771c-0.794,0-1.438,0.54-1.438,1.206v11.306
						c0,0.666,0.644,1.206,1.438,1.206l0,0c0.794,0,1.438-0.54,1.438-1.206v-11.306C372.09,167.311,371.446,166.771,370.651,166.771
						z"/>
					<path style="fill:#3A739B;" d="M376.135,157.198c-0.794,0-1.439,0.54-1.439,1.206v30.452c0,0.666,0.644,1.206,1.439,1.206
						c0.794,0,1.438-0.54,1.438-1.206v-30.452C377.574,157.738,376.93,157.198,376.135,157.198z"/>
					<path style="fill:#3A739B;" d="M381.62,160.59c-0.794,0-1.438,0.54-1.438,1.206v23.668c0,0.666,0.644,1.206,1.438,1.206
						s1.438-0.54,1.438-1.206v-23.668C383.058,161.13,382.414,160.59,381.62,160.59z"/>
					<path style="fill:#3A739B;" d="M387.104,162.248c-0.794,0-1.439,0.54-1.439,1.206v20.352c0,0.666,0.644,1.206,1.439,1.206
						c0.794,0,1.438-0.54,1.438-1.206v-20.352C388.542,162.788,387.898,162.248,387.104,162.248z"/>
					<path style="fill:#3A739B;" d="M392.588,166.771c-0.795,0-1.438,0.54-1.438,1.206v11.306c0,0.666,0.644,1.206,1.438,1.206
						c0.794,0,1.438-0.54,1.438-1.206v-11.306C394.026,167.311,393.382,166.771,392.588,166.771z"/>
					<path style="fill:#3A739B;" d="M398.072,157.198c-0.795,0-1.438,0.54-1.438,1.206v30.452c0,0.666,0.644,1.206,1.438,1.206
						c0.794,0,1.438-0.54,1.438-1.206v-30.452C399.51,157.738,398.866,157.198,398.072,157.198z"/>
					<path style="fill:#3A739B;" d="M403.556,160.59c-0.795,0-1.438,0.54-1.438,1.206v23.668c0,0.666,0.644,1.206,1.438,1.206
						c0.794,0,1.438-0.54,1.438-1.206v-23.668C404.994,161.13,404.35,160.59,403.556,160.59z"/>
					<path style="fill:#3A739B;" d="M409.04,162.248c-0.795,0-1.438,0.54-1.438,1.206v20.352c0,0.666,0.644,1.206,1.438,1.206
						c0.794,0,1.438-0.54,1.438-1.206v-20.352C410.479,162.788,409.835,162.248,409.04,162.248z"/>
					<path style="fill:#3A739B;" d="M414.524,166.771c-0.794,0-1.438,0.54-1.438,1.206v11.306c0,0.666,0.644,1.206,1.438,1.206
						c0.794,0,1.438-0.54,1.438-1.206v-11.306C415.963,167.311,415.319,166.771,414.524,166.771z"/>
				</g>
			</g>
		</g>
		<g>
			<path style="fill:#FFFFFF;" d="M427.65,48.898h-56.278c-11.02,0-19.953,8.933-19.953,19.953v15.796
				c0,10.989,8.883,19.9,19.86,19.951l-1.535,4.964c-0.345,1.116,0.767,2.128,1.846,1.68l15.975-6.641h40.086
				c11.02,0,19.954-8.934,19.954-19.953V68.851C447.604,57.831,438.671,48.898,427.65,48.898z"/>
			<g>
				<path style="fill:#619AC9;" d="M398.456,65.452h-29.608c-1.165,0-2.11-0.945-2.11-2.11l0,0c0-1.166,0.945-2.111,2.11-2.111
					h29.608c1.166,0,2.111,0.945,2.111,2.111l0,0C400.567,64.507,399.622,65.452,398.456,65.452z"/>
				<path style="fill:#619AC9;" d="M430.175,65.452h-23.308c-1.166,0-2.11-0.945-2.11-2.11l0,0c0-1.166,0.945-2.111,2.11-2.111
					h23.308c1.165,0,2.11,0.945,2.11,2.111l0,0C432.286,64.507,431.341,65.452,430.175,65.452z"/>
				<path style="fill:#619AC9;" d="M430.175,92.267H415.03c-1.166,0-2.111-0.945-2.111-2.111l0,0c0-1.165,0.945-2.11,2.111-2.11
					h15.146c1.165,0,2.11,0.945,2.11,2.11l0,0C432.286,91.322,431.341,92.267,430.175,92.267z"/>
				<path style="fill:#619AC9;" d="M430.175,74.391h-40.719c-1.166,0-2.111-0.945-2.111-2.11l0,0c0-1.166,0.945-2.11,2.111-2.11
					h40.719c1.165,0,2.11,0.945,2.11,2.11l0,0C432.286,73.446,431.341,74.391,430.175,74.391z"/>
				<path style="fill:#619AC9;" d="M381.542,74.391h-12.694c-1.165,0-2.11-0.945-2.11-2.11l0,0c0-1.166,0.945-2.11,2.11-2.11h12.694
					c1.165,0,2.11,0.945,2.11,2.11l0,0C383.652,73.446,382.707,74.391,381.542,74.391z"/>
				<path style="fill:#619AC9;" d="M430.175,83.329h-61.327c-1.165,0-2.11-0.945-2.11-2.11v0c0-1.165,0.945-2.11,2.11-2.11h61.327
					c1.165,0,2.11,0.945,2.11,2.11v0C432.286,82.384,431.341,83.329,430.175,83.329z"/>
				<path style="fill:#619AC9;" d="M407.333,92.267h-38.485c-1.165,0-2.11-0.945-2.11-2.111l0,0c0-1.165,0.945-2.11,2.11-2.11
					h38.485c1.166,0,2.11,0.945,2.11,2.11l0,0C409.443,91.322,408.498,92.267,407.333,92.267z"/>
			</g>
		</g>
	</g>
	<path style="fill:#F0F8FF;" d="M116.424,167.533c-17.836,41.168-19.621,89.049-4.9,131.431
		c8.598,24.754,22.93,47.917,43.315,64.384c22.061,17.82,49.958,26.941,77.865,31.992c31.224,5.651,63.766,6.583,94.396-1.707
		c30.63-8.289,59.258-26.438,76.366-53.163c17.107-26.725,21.303-62.334,7.175-90.747c-16.059-32.295-51.185-50.042-74.755-77.341
		c-12.333-14.284-21.365-31.048-31.612-46.895c-10.247-15.847-22.193-31.245-38.422-40.877
		c-48.124-28.56-97.427,6.717-126.676,44.523C130.049,140.931,122.355,153.845,116.424,167.533z"/>
	<g>
		<g>
			<rect x="57.389" y="65.452" style="fill:none;stroke:#A1C5EB;stroke-miterlimit:10;" width="97.711" height="213.142"/>
			<rect x="53.419" y="278.594" style="fill:none;stroke:#A1C5EB;stroke-miterlimit:10;" width="105.65" height="8.685"/>
			<line style="fill:none;stroke:#A1C5EB;stroke-miterlimit:10;" x1="106.244" y1="65.452" x2="106.244" y2="278.594"/>
			<line style="fill:none;stroke:#A1C5EB;stroke-miterlimit:10;" x1="57.389" y1="136.749" x2="155.1" y2="136.749"/>
			<line style="fill:none;stroke:#A1C5EB;stroke-miterlimit:10;" x1="57.389" y1="207.298" x2="155.1" y2="207.298"/>
		</g>
		<g>
			<rect x="171.181" y="65.452" style="fill:none;stroke:#A1C5EB;stroke-miterlimit:10;" width="97.711" height="213.142"/>
			<rect x="167.212" y="278.594" style="fill:none;stroke:#A1C5EB;stroke-miterlimit:10;" width="105.65" height="8.685"/>
			<line style="fill:none;stroke:#A1C5EB;stroke-miterlimit:10;" x1="220.037" y1="65.452" x2="220.037" y2="278.594"/>
			<line style="fill:none;stroke:#A1C5EB;stroke-miterlimit:10;" x1="171.181" y1="136.749" x2="268.892" y2="136.749"/>
			<line style="fill:none;stroke:#A1C5EB;stroke-miterlimit:10;" x1="171.181" y1="207.298" x2="268.892" y2="207.298"/>
		</g>
	</g>
	<g>
		<g>
			
				<rect x="277.688" y="298.493" transform="matrix(-1 -1.224647e-16 1.224647e-16 -1 586.1685 713.837)" style="fill:#A1C5EB;" width="30.792" height="116.852"/>
			<rect x="160.837" y="298.493" style="fill:#CBE3F8;" width="116.852" height="116.852"/>
			<g>
				<g>
					<path style="fill:#A1C5EB;" d="M236.854,388.346c-5.279,0-8.133-0.849-8.557-2.549l-3.005-11.743h-14.475l-2.64,11.288
						c-0.364,1.882-3.277,2.822-8.739,2.822c-2.913,0-5.068-0.166-6.464-0.501c-1.396-0.333-2.094-0.592-2.094-0.773l16.113-61.631
						c0-0.485,4.156-0.728,12.472-0.728c8.314,0,12.472,0.243,12.472,0.728l15.749,61.722c0,0.426-1.396,0.76-4.188,1.002
						C240.708,388.224,238.493,388.346,236.854,388.346z M213.094,362.492h9.559l-4.097-18.845h-0.546L213.094,362.492z"/>
				</g>
			</g>
		</g>
		<g>
			
				<rect x="308.372" y="181.651" transform="matrix(-1 -1.224647e-16 1.224647e-16 -1 647.5351 480.1536)" style="fill:#FF847B;" width="30.792" height="116.852"/>
			<rect x="191.52" y="181.651" style="fill:#FFB5B3;" width="116.852" height="116.852"/>
			<g>
				<g>
					<path style="fill:#FF847B;" d="M274.485,224.075c0,6.313-2.731,11.106-8.193,14.383c2.973,1.093,5.462,2.975,7.465,5.645
						c2.003,2.671,3.004,6.449,3.004,11.334c0,4.886-1.806,8.755-5.416,11.608c-3.611,2.853-8.785,4.278-15.521,4.278h-21.484
						c-1.032,0-1.882-0.349-2.549-1.047c-0.669-0.697-1.002-1.623-1.002-2.776v-58.263c0-0.667,0.105-1.107,0.319-1.32
						c0.212-0.212,0.651-0.319,1.319-0.319h20.756C267.384,207.598,274.485,213.091,274.485,224.075z M248.267,222.345v11.926h0.455
						c5.826,0,8.739-1.941,8.739-5.826c0-2.123-0.563-3.671-1.685-4.643c-1.123-0.97-2.989-1.457-5.599-1.457H248.267z
						 M248.267,245.013v11.835h1.639c2.608,0,4.52-0.485,5.734-1.457c1.214-0.97,1.821-2.518,1.821-4.643
						c0-2.124-0.563-3.61-1.685-4.461c-1.123-0.849-2.989-1.274-5.599-1.274H248.267z"/>
				</g>
			</g>
		</g>
	</g>
	<g>
		<g>
			
				<rect x="340.886" y="339.387" transform="matrix(0.9235 -0.3837 0.3837 0.9235 -102.0858 168.1354)" style="fill:#245472;" width="59.02" height="1.128"/>
			
				<rect x="373.186" y="310.44" transform="matrix(0.3836 -0.9235 0.9235 0.3836 -83.5741 554.6829)" style="fill:#245472;" width="1.128" height="59.02"/>
			<polygon style="fill:#245472;" points="400.362,323.255 410.074,415.947 408.059,415.947 392.466,323.255 			"/>
			<polygon style="fill:#245472;" points="342.446,323.255 332.734,415.947 334.749,415.947 350.342,323.255 			"/>
		</g>
		<g>
			
				<rect x="316.545" y="341.244" transform="matrix(0.9235 -0.3837 0.3837 0.9235 -104.6653 158.9468)" style="fill:#245472;" width="59.02" height="1.128"/>
			
				<rect x="348.845" y="312.298" transform="matrix(0.3836 -0.9235 0.9235 0.3836 -100.2913 533.3532)" style="fill:#245472;" width="1.128" height="59.02"/>
			<polygon style="fill:#245472;" points="378.628,323.255 388.34,415.947 386.325,415.947 370.732,323.255 			"/>
			<polygon style="fill:#245472;" points="320.712,323.255 311,415.947 313.015,415.947 328.608,323.255 			"/>
		</g>
		<g>
			<path style="fill:#162A45;" d="M321.81,298.451c3.811-11.218,14.33-18.761,26.18-18.761h22.211l7.825-25.098
				c1.398-4.476,5.547-7.532,10.237-7.532h39.405c7.035,0,12.166,6.663,10.362,13.473l-5.389,20.385v0.011l-5.029,19.02
				c-3.642,13.733-16.066,23.305-30.272,23.305h-78.537c-2.652,0-4.52-2.605-3.668-5.117L321.81,298.451z"/>
			<path style="fill:#3A739B;" d="M319.795,298.451c3.811-11.218,14.33-18.761,26.18-18.761h22.211l7.825-25.098
				c1.398-4.476,5.547-7.532,10.237-7.532h39.405c7.035,0,12.165,6.663,10.361,13.473l-5.389,20.385v0.011l-5.029,19.02
				c-3.642,13.733-16.066,23.305-30.273,23.305h-78.537c-2.652,0-4.52-2.605-3.668-5.117L319.795,298.451z"/>
		</g>
		<path style="fill:#162A45;" d="M384.836,323.255h12.504c14.206,0,26.631-9.572,30.272-23.305l5.029-19.02v-0.011h-11.419
			c-12.914,0-24.418,8.16-28.686,20.348L384.836,323.255z"/>
	</g>
	<g>
		<g>
			<g>
				<path style="fill:#3A739B;" d="M307.904,442.82l-0.051,0.361c-0.049,0.536-0.11,1.05-0.203,1.608
					c-0.105,0.46-0.187,0.963-0.281,1.478l-55.108,0.54c0,0-0.093-0.567-0.102-1.463c0.017-0.459,0.045-0.995,0.137-1.618
					c0.021-0.109,0.031-0.241,0.073-0.361c0.57-3.108,2.789-7.412,10.302-8.863c0.36-0.091,0.742-0.138,1.156-0.197l0.033-0.001
					c0.589-0.093,1.178-0.154,1.811-0.214c0.207-0.013,0.415-0.037,0.622-0.05c15.063-1.328,21.687-6.451,21.687-6.451
					s8.756,1.662,16.931-0.166c0,0,0.977,1.585,1.856,4.352c0.136,0.469,0.283,0.969,0.419,1.503
					c0.034,0.098,0.057,0.207,0.09,0.327c0.057,0.207,0.103,0.447,0.149,0.687c0.011,0.065,0.034,0.153,0.035,0.218
					c0.001,0.055,0.034,0.076,0.034,0.12c0.229,1.134,0.406,2.378,0.484,3.72C308.059,439.749,308.063,441.245,307.904,442.82z"/>
				<path style="fill:#FFFFFF;" d="M282.515,428.091c0.186-0.174,0.431-0.305,0.694-0.295c0.278,0.01,0.482,0.112,0.699,0.281
					c0.361,0.28,0.726,0.554,1.086,0.837c0.514,0.404,1.068,0.755,1.607,1.125c0.215,0.147,0.385,0.326,0.458,0.584
					c0.067,0.236,0.041,0.549-0.092,0.76c-0.266,0.421-0.889,0.678-1.344,0.367c-1.055-0.723-2.085-1.481-3.095-2.266
					c-0.186-0.145-0.293-0.47-0.295-0.694C282.231,428.549,282.335,428.259,282.515,428.091z"/>
				<path style="fill:#FFFFFF;" d="M278.631,429.883c0.365-0.342,1.03-0.427,1.393-0.014c0.729,0.832,1.541,1.586,2.42,2.258
					c0.141,0.104,0.282,0.208,0.426,0.307c0.215,0.149,0.384,0.325,0.458,0.584c0.067,0.235,0.041,0.549-0.092,0.76
					c-0.265,0.419-0.891,0.68-1.344,0.367c-1.193-0.826-2.291-1.778-3.247-2.87c-0.175-0.199-0.293-0.421-0.296-0.694
					C278.347,430.341,278.452,430.052,278.631,429.883z"/>
				<path style="fill:#FFFFFF;" d="M275.058,431.192c0.186-0.174,0.431-0.305,0.694-0.296c0.242,0.009,0.542,0.082,0.699,0.281
					l2.262,2.851c0.17,0.214,0.292,0.408,0.295,0.694c0.002,0.241-0.102,0.531-0.282,0.699c-0.186,0.174-0.431,0.305-0.693,0.295
					c-0.242-0.009-0.541-0.082-0.699-0.282l-2.262-2.85c-0.17-0.214-0.293-0.408-0.295-0.694
					C274.774,431.649,274.878,431.36,275.058,431.192z"/>
				<path style="fill:#FFFFFF;" d="M271.089,432.159c0.647-0.35,1.54,0.013,1.512,1.026c0.341,0.546,0.594,0.951,0.935,1.497
					c0.742,0.297,0.712,1.368,0.083,1.708c-0.647,0.35-1.539-0.012-1.512-1.023c-0.341-0.546-0.595-0.954-0.936-1.5
					C270.43,433.57,270.46,432.5,271.089,432.159z"/>
				<path style="fill:#245472;" d="M307.86,443.188c-0.059,0.52-0.117,1.051-0.218,1.594c-0.091,0.478-0.171,0.978-0.282,1.488
					l-55.096,0.54c0,0-0.101-0.561-0.11-1.463c0.017-0.467,0.043-1.008,0.143-1.614L307.86,443.188z"/>
			</g>
			<g>
				<path style="fill:#3A739B;" d="M380.565,442.82l-0.051,0.361c-0.049,0.536-0.11,1.05-0.203,1.608
					c-0.105,0.46-0.187,0.963-0.281,1.478l-55.109,0.54c0,0-0.093-0.567-0.102-1.463c0.017-0.459,0.045-0.995,0.137-1.618
					c0.021-0.109,0.031-0.241,0.073-0.361c0.57-3.108,2.789-7.412,10.302-8.863c0.359-0.091,0.742-0.138,1.156-0.197l0.033-0.001
					c0.589-0.093,1.178-0.154,1.811-0.214c0.207-0.013,0.415-0.037,0.622-0.05c15.063-1.328,21.687-6.451,21.687-6.451
					s8.756,1.662,16.931-0.166c0,0,0.977,1.585,1.856,4.352c0.136,0.469,0.283,0.969,0.419,1.503
					c0.034,0.098,0.056,0.207,0.09,0.327c0.057,0.207,0.103,0.447,0.149,0.687c0.011,0.065,0.034,0.153,0.035,0.218
					c0.001,0.055,0.033,0.076,0.034,0.12c0.229,1.134,0.406,2.378,0.484,3.72C380.721,439.749,380.725,441.245,380.565,442.82z"/>
				<path style="fill:#FFFFFF;" d="M355.176,428.091c0.186-0.174,0.431-0.305,0.694-0.295c0.278,0.01,0.482,0.112,0.699,0.281
					c0.361,0.28,0.726,0.554,1.086,0.837c0.514,0.404,1.067,0.755,1.607,1.125c0.215,0.147,0.385,0.326,0.458,0.584
					c0.067,0.236,0.041,0.549-0.092,0.76c-0.266,0.421-0.889,0.678-1.344,0.367c-1.055-0.723-2.085-1.481-3.095-2.266
					c-0.186-0.145-0.293-0.47-0.295-0.694C354.892,428.549,354.997,428.259,355.176,428.091z"/>
				<path style="fill:#FFFFFF;" d="M351.293,429.883c0.365-0.342,1.03-0.427,1.393-0.014c0.729,0.832,1.541,1.586,2.42,2.258
					c0.141,0.104,0.282,0.208,0.426,0.307c0.215,0.149,0.384,0.325,0.458,0.584c0.067,0.235,0.041,0.549-0.092,0.76
					c-0.265,0.419-0.891,0.68-1.344,0.367c-1.193-0.826-2.291-1.778-3.247-2.87c-0.175-0.199-0.293-0.421-0.296-0.694
					C351.009,430.341,351.113,430.052,351.293,429.883z"/>
				<path style="fill:#FFFFFF;" d="M347.719,431.192c0.186-0.174,0.431-0.305,0.693-0.296c0.242,0.009,0.542,0.082,0.699,0.281
					l2.262,2.851c0.17,0.214,0.293,0.408,0.295,0.694c0.002,0.241-0.102,0.531-0.282,0.699c-0.186,0.174-0.431,0.305-0.693,0.295
					c-0.242-0.009-0.541-0.082-0.699-0.282l-2.262-2.85c-0.17-0.214-0.292-0.408-0.295-0.694
					C347.435,431.649,347.539,431.36,347.719,431.192z"/>
				<path style="fill:#FFFFFF;" d="M343.751,432.159c0.647-0.35,1.54,0.013,1.512,1.026c0.341,0.546,0.594,0.951,0.935,1.497
					c0.742,0.297,0.712,1.368,0.083,1.708c-0.647,0.35-1.539-0.012-1.512-1.023c-0.341-0.546-0.595-0.954-0.936-1.5
					C343.091,433.57,343.121,432.5,343.751,432.159z"/>
				<path style="fill:#245472;" d="M380.521,443.188c-0.059,0.52-0.117,1.051-0.218,1.594c-0.091,0.478-0.17,0.978-0.282,1.488
					l-55.096,0.54c0,0-0.101-0.561-0.11-1.463c0.017-0.467,0.043-1.008,0.143-1.614L380.521,443.188z"/>
			</g>
			<path style="fill:#FFCFB8;" d="M283.299,189.147c-14.033,69.724,4.683,238.443,4.683,238.443s10.459,2.542,16.931-0.166
				l17.62-238.277L283.299,189.147z"/>
			<path style="fill:#FFCFB8;" d="M351.006,302.38c0,0,1.109-79.559-5.942-113.233h-51.577
				c-0.349,36.599,9.742,96.529,14.547,113.233c4.723,16.42,52.609,125.21,52.609,125.21s7.407,2.323,16.931-0.166L351.006,302.38z"
				/>
			<path style="fill:#EA5C4C;" d="M353.557,303.651c-0.292-1.358,3.491-69.995-8.492-114.504h-61.766
				c-16.321,79.959-1.065,221.881-1.065,221.881c12.824,4.168,29.036,1.389,29.036,1.389l2.361-93.744
				c4.241,21.498,34.953,91.917,34.953,91.917c10.969,0,28.08-5.046,28.08-5.046S360.284,321.681,353.557,303.651z"/>
			<path style="fill:#A83027;" d="M311.633,315.196c-3.231-8.921-5.745-18.094-7.887-27.332c-2.185-9.424-3.973-18.939-5.502-28.491
				c-1.378-8.608-2.542-17.249-3.532-25.91c-0.728-6.369-1.362-12.749-1.891-19.137c-0.161-1.951-0.313-3.903-0.451-5.855
				c-0.062-0.878-0.049-1.794-0.176-2.666c-0.005-0.036-0.004-0.073-0.006-0.109c-0.011-0.186-0.302-0.188-0.291,0
				c0.133,2.321,0.313,4.641,0.497,6.958c0.483,6.07,1.067,12.133,1.733,18.186c0.924,8.394,2.011,16.77,3.29,25.118
				c1.465,9.56,3.179,19.086,5.267,28.53c2.067,9.349,4.488,18.639,7.584,27.703c0.352,1.031,0.714,2.059,1.085,3.083
				C311.415,315.448,311.697,315.373,311.633,315.196L311.633,315.196z"/>
			<path style="fill:#A83027;" d="M288.882,206.741c1.201,2.616,2.401,5.233,3.602,7.849c0.078,0.169,0.327,0.022,0.249-0.146
				c-1.201-2.616-2.401-5.233-3.602-7.849C289.054,206.427,288.805,206.573,288.882,206.741L288.882,206.741z"/>
			<path style="fill:#A83027;" d="M365.679,392.981c-1.64-13.45-3.938-26.817-6.902-40.038c-1.488-6.635-3.141-13.234-4.959-19.786
				c-1.822-6.566-3.891-13.058-5.763-19.609c-1.884-6.591-3.515-13.264-4.344-20.078c-0.828-6.81-0.956-13.685-0.751-20.536
				c0.404-13.492,2.101-26.916,2.294-40.418c0.178-12.435-0.879-25.125-5.32-36.841c-0.511-1.348-1.069-2.677-1.664-3.991
				c-0.077-0.169-0.326-0.022-0.249,0.146c5.261,11.614,6.876,24.427,6.959,37.074c0.087,13.271-1.503,26.468-2.139,39.708
				c-0.329,6.852-0.403,13.729,0.149,20.572c0.537,6.648,1.778,13.179,3.464,19.627c1.686,6.448,3.729,12.795,5.596,19.191
				c1.905,6.528,3.647,13.103,5.223,19.718c3.137,13.167,5.618,26.49,7.43,39.904c0.241,1.784,0.469,3.57,0.687,5.358
				C365.413,393.163,365.702,393.165,365.679,392.981L365.679,392.981z"/>
			<path style="fill:#A83027;" d="M328.008,203.223c-0.367,3.731,0.557,7.553,2.557,10.721c1.984,3.143,5.016,5.514,8.507,6.771
				c1.985,0.715,4.097,1.056,6.206,0.994c0.186-0.005,0.186-0.294,0-0.289c-3.669,0.109-7.33-1.036-10.303-3.188
				c-2.991-2.165-5.143-5.342-6.138-8.89c-0.557-1.988-0.743-4.065-0.541-6.12C328.315,203.038,328.026,203.039,328.008,203.223
				L328.008,203.223z"/>
			<path style="fill:#A83027;" d="M300.116,272.675c1.127,16.839,1.943,33.698,2.444,50.567c0.5,16.869,0.687,33.747,0.558,50.623
				c-0.072,9.471-0.244,18.941-0.513,28.409c-0.005,0.186,0.284,0.186,0.289,0c0.48-16.87,0.648-33.748,0.501-50.624
				c-0.147-16.876-0.609-33.749-1.386-50.607c-0.436-9.461-0.971-18.918-1.604-28.368
				C300.393,272.49,300.104,272.489,300.116,272.675L300.116,272.675z"/>
			<path style="fill:#FF847B;" d="M339.042,393.49l8.396,18.306c15.735,0.987,30.762-5.923,30.762-5.923l-3.62-17.55
				C358.127,392.931,339.042,393.49,339.042,393.49z"/>
			<path style="fill:#FF847B;" d="M279.237,393.49l2.146,18.635c12.431,3.876,30.712,1.2,30.712,1.2l0.658-17.36
				C300.307,396.331,279.237,393.49,279.237,393.49z"/>
		</g>
		<path style="fill:#181D30;" d="M338.773,94.279c-1.475-6.244-5.455-11.706-6.649-18.011c-1.384-7.307,1.059-15.297-2.014-22.063
			c-1.629-3.586-4.775-6.442-8.483-7.701c-1.427-0.484-2.929-0.724-4.434-0.737c-4.585-2.333-9.659-3.678-14.741-3.234
			c-6.65,0.581-13.195,4.646-15.599,10.918c-3.773,9.846,3.168,21.506-0.801,31.274c-2.375,5.847-8.301,9.868-9.893,15.98
			c-1.067,4.099,0.069,8.57,2.387,12.11c2.318,3.54,5.718,6.239,9.341,8.396c7,4.167,15.164,6.522,23.275,6.01
			c8.11-0.513,16.118-4.025,21.525-10.132C338.094,110.984,340.656,102.247,338.773,94.279z"/>
		<g>
			<g>
				<g>
					<path style="fill:#FFCFB8;" d="M295.036,107.637c-12.849,1.316-29.166,38.863-29.166,38.863l-19.514-42.958l-9.652,4.241
						c0,0,6.874,30.127,14.332,43.874c7.459,13.747,22.283,14.625,29.057,4.241c6.774-10.384,12.571-24.277,12.571-24.277
						L295.036,107.637z"/>
					<g>
						<path style="fill:#FFCFB8;" d="M238.66,93.906c0,0-1.919-8.896,0.083-9.401c1.537-0.388,4.291,10.384,4.291,10.384
							s2.124-0.185,3.48,2.005c1.357,2.19,0.604,7.675,0.998,8.915l-10.466,2.97c-0.42-0.972-4.6-4.846-5.601-7.917
							S235.233,94.853,238.66,93.906z"/>
						<g>
							<path style="fill:#B85C4B;" d="M242.41,95.373c-0.967,0.077-1.925,0.243-2.858,0.51c-0.452,0.129-0.915,0.269-1.342,0.468
								c-0.378,0.176-0.759,0.485-0.676,0.951c0.157,0.889,1.359,1.091,2.088,1.195c0.936,0.134,1.88,0.078,2.797-0.145
								c0.3-0.073,0.372,0.401,0.074,0.474c-0.831,0.203-1.692,0.27-2.544,0.192c-0.751-0.068-1.634-0.206-2.257-0.664
								c-0.55-0.405-0.857-1.168-0.475-1.79c0.416-0.675,1.362-0.888,2.069-1.098c0.995-0.296,2.016-0.484,3.051-0.566
								C242.642,94.875,242.719,95.348,242.41,95.373L242.41,95.373z"/>
							<path style="fill:#B85C4B;" d="M241.435,98.853c0.45,1.524,1.822,2.612,3.395,2.751c0.307,0.027,0.253,0.504-0.055,0.476
								c-1.805-0.16-3.304-1.425-3.814-3.154c-0.037-0.125,0.084-0.255,0.2-0.274C241.303,98.63,241.399,98.73,241.435,98.853
								L241.435,98.853z"/>
							<path style="fill:#B85C4B;" d="M239.07,94.501c0.007,0.179,0.026,0.357,0.057,0.534c0.015,0.086,0.033,0.172,0.054,0.258
								c0.01,0.041,0.021,0.082,0.032,0.122c0.005,0.017,0.016,0.062,0.005,0.019c0.007,0.027,0.017,0.054,0.025,0.08
								c0.038,0.119,0.009,0.266-0.12,0.317c-0.11,0.044-0.276,0.007-0.317-0.12c-0.12-0.369-0.195-0.748-0.21-1.136
								c-0.005-0.125,0.061-0.258,0.2-0.274C238.913,94.288,239.064,94.367,239.07,94.501L239.07,94.501z"/>
							<path style="fill:#B85C4B;" d="M240.158,98.785c0.419,0.656,0.483,1.502-0.067,2.108c-0.504,0.554-1.339,0.675-1.992,0.317
								c-0.698-0.383-1.128-1.187-1.478-1.871c-0.415-0.812-0.703-1.684-0.87-2.58c-0.056-0.304,0.417-0.377,0.474-0.074
								c0.129,0.695,0.335,1.369,0.623,2.015c0.27,0.607,0.597,1.234,1.043,1.732c0.417,0.464,1.092,0.694,1.647,0.314
								c0.559-0.382,0.594-1.117,0.248-1.658C239.622,98.83,239.992,98.525,240.158,98.785L240.158,98.785z"/>
							<path style="fill:#B85C4B;" d="M237.894,100.926c-0.246,0.459-0.689,0.764-1.209,0.827c-0.558,0.068-1.109-0.124-1.566-0.437
								c-0.92-0.631-1.592-1.67-1.95-2.713c-0.1-0.29,0.337-0.489,0.437-0.197c0.302,0.881,0.818,1.72,1.535,2.324
								c0.345,0.291,0.75,0.518,1.208,0.554c0.424,0.033,0.889-0.144,1.098-0.534C237.591,100.482,238.039,100.654,237.894,100.926
								L237.894,100.926z"/>
							<path style="fill:#B85C4B;" d="M235.552,101.551c-0.541,0.609-1.406,0.851-2.184,0.601c-0.895-0.287-1.373-1.181-1.735-1.979
								c-0.128-0.281,0.31-0.478,0.437-0.197c0.298,0.658,0.664,1.422,1.385,1.699c0.578,0.223,1.296,0.058,1.71-0.407
								C235.368,101.039,235.757,101.32,235.552,101.551L235.552,101.551z"/>
						</g>
					</g>
				</g>
				<path style="fill:#619AC9;" d="M295.04,107.64l-0.48,4.07l-0.12,1.01l-1.63,13.71l-0.13,1.06l-1.01,8.49l-0.12,1.09h-0.01
					l-1.07,9.03l-0.11,0.95c0,0-0.5-0.15-1.36-0.42c-1.72-0.55-4.9-1.61-8.36-3.01c-1.22-0.5-2.49-1.04-3.73-1.62
					c-0.38-0.17-0.75-0.35-1.12-0.54h-0.01c-3.38-1.64-6.51-3.54-8.31-5.53c0,0,3.49-6.47,8.66-13.23c0.22-0.29,0.45-0.59,0.68-0.89
					c3.94-5.02,8.76-10.06,13.73-12.61c0.3-0.15,0.6-0.3,0.9-0.43C292.64,108.23,293.84,107.84,295.04,107.64z"/>
			</g>
			<path style="fill:#619AC9;" d="M346.69,194.49c-32.91,7.93-50.03,7.4-58.62,5.54c-0.34-0.08-0.67-0.15-0.98-0.23
				c-5.46-1.35-7-3.19-7-3.19l2.68-14.05l0.19-0.97l1.52-7.96l0.25-1.32l3.31-17.35c-2.55-0.15-4.5-1.72-5.76-4.1
				c-0.16-0.29-0.3-0.6-0.43-0.92c-0.77-1.82-1.18-4-1.21-6.32c-0.01-1.07,0.06-2.17,0.21-3.27c0.06-0.37,0.12-0.74,0.19-1.12
				c0.75-3.94,2.6-7.91,5.68-10.95c0.35-0.35,0.73-0.7,1.12-1.03c0.93-0.76,1.95-1.46,3.07-2.05l2.97-12.64l0.24-0.99l0.92-3.93
				l10.83-1.6l15.19,0.05l6.38,1.56l1.78,0.44l4.43,1.08c0.29,1.5,0.55,3,0.78,4.48c0.05,0.33,0.1,0.66,0.15,0.98
				c1.04,6.93,1.5,13.55,1.63,19.43c0.02,0.35,0.02,0.7,0.03,1.04c0.03,2.44,0.02,4.74-0.03,6.88c-0.01,0.34-0.02,0.67-0.03,0.99
				c-0.06,2.04-0.15,3.92-0.26,5.59c-0.03,0.36-0.05,0.72-0.08,1.06c-0.11,1.59-0.23,2.98-0.35,4.12c-0.24,2.4-0.45,3.75-0.45,3.75
				c3.16,2.39,5.52,7.38,7.26,12.96c0.12,0.38,0.23,0.76,0.34,1.15c2.42,8.27,3.52,17.47,3.89,21.19c0.06,0.59,0.1,1.04,0.13,1.33
				C346.68,194.36,346.69,194.49,346.69,194.49z"/>
			<path style="fill:#162A45;" d="M318.869,136.476c-3.494,0.426-7.298,1.039-9.981-1.764c-1.441-1.506-3.622-0.908-4.712,0.607
				c-0.24,0.333-0.743,0.916-1.259,1.546c0.046-3.239,0.091-6.478,0.137-9.717c0.047-3.344-5.1-4.126-5.893-0.798
				c-0.528,2.219-1.177,4.315-2.217,6.36c-0.417,0.819-3.58,6.896-2.546,2.788c0.943-3.745-4.842-5.343-5.786-1.595
				c-1.107,4.397,0.395,11.882,6.735,9.647c1.356-0.478,2.556-1.375,3.614-2.529c0.171,1.644,0.558,3.211,2.113,4.225
				c3.626,2.365,6.361-0.98,8.429-4.09c3.369,1.854,7.308,1.813,11.366,1.319C322.653,142.015,322.699,136.009,318.869,136.476z"/>
			<g>
				<path style="fill:#245472;" d="M291.34,124.897c-5.027,2.718-8.693,7.568-9.898,13.16c-0.362,1.679-0.502,3.4-0.421,5.116
					c0.009,0.185,0.298,0.186,0.289,0c-0.273-5.81,2.098-11.519,6.433-15.4c1.14-1.02,2.398-1.899,3.743-2.626
					C291.65,125.059,291.504,124.809,291.34,124.897L291.34,124.897z"/>
				<path style="fill:#245472;" d="M294.897,109.599c-1.985,5.048-3.329,10.329-4.007,15.71c-0.023,0.184,0.266,0.182,0.289,0
					c0.675-5.354,2.023-10.612,3.997-15.634C295.243,109.503,294.964,109.428,294.897,109.599L294.897,109.599z"/>
			</g>
			<g>
				<path style="fill:#FFCFB8;" d="M333.65,109.166c15.592,4.394,11.113,22.893,11.113,22.893s-5.483,21.937-8.57,32.286
					c-2.251,7.545-11.958,11.59-21.895,2.511c-5.697-5.206-26.26-37.281-26.26-37.281l8.56-7.014l26.213,29.828L333.65,109.166z"/>
				<path style="fill:#619AC9;" d="M346.69,132.42c-0.13,0.8-0.34,1.87-0.59,3.1c-0.06,0.32-0.12,0.64-0.19,0.98
					c-0.37,1.84-0.82,3.96-1.28,6.09c-0.07,0.33-0.14,0.65-0.21,0.98c-0.75,3.52-1.51,6.97-2,9.15c-0.09,0.43-0.18,0.81-0.24,1.13
					c-0.17,0.74-0.27,1.17-0.27,1.17c-1.83,0.04-4.07-0.48-6.42-1.28c-3.56-1.22-7.35-3.08-10.18-4.61
					c-0.42-0.22-0.81-0.44-1.18-0.64c-2.03-1.13-3.35-1.95-3.35-1.95l1.32-3.84l0.35-1l2.69-7.83l0.33-0.94l5.96-17.31l0.4-1.16
					l1.82-5.29c2.67,0.66,4.84,1.6,6.59,2.73c0.37,0.23,0.72,0.48,1.06,0.73C348.87,118.41,347.41,128.17,346.69,132.42z"/>
				<path style="fill:#245472;" d="M320.821,146.361c2.615-7.357,5.23-14.714,7.845-22.071c0.731-2.056,1.462-4.113,2.193-6.169
					c0.062-0.175-0.217-0.251-0.279-0.077c-2.615,7.357-5.23,14.714-7.845,22.071c-0.731,2.056-1.462,4.113-2.193,6.169
					C320.48,146.46,320.759,146.536,320.821,146.361L320.821,146.361z"/>
				<path style="fill:#245472;" d="M328.174,119.629c-0.08,1.904-0.159,3.809-0.239,5.713c-0.008,0.186,0.281,0.186,0.289,0
					c0.08-1.904,0.159-3.809,0.239-5.713C328.471,119.443,328.182,119.443,328.174,119.629L328.174,119.629z"/>
				<path style="fill:#FFCFB8;" d="M296.85,124.493c-1.08-1.497,1.745-11.633-0.35-12.423c-1.916-0.723-4.124,3.219-3.725,5.51
					c-1.873-2.25-6.514-13.131-8.632-11.867c-1.566,0.935,2.843,8.719,2.843,8.719s-6.099-8.469-7.905-6.905
					c-1.806,1.564,5.436,9.412,5.436,9.412s-6.536-6.293-7.764-4.806c-1.208,1.462,6.104,7.432,6.104,7.432
					s-6.454-3.838-7.081-2.959c-0.627,0.879,2.763,4.132,6.046,5.835c2.499,5.896,7.839,7.948,7.839,7.948L296.85,124.493z"/>
			</g>
		</g>
		<g>
			<g>
				<path style="fill:#FFCFB8;" d="M288.506,81.559c0.013,0.098,0.034,0.196,0.047,0.295c0.022,0.116,0.035,0.214,0.057,0.33
					c0.998,5.509,3.247,8.882,6.215,11.304c1.591,1.307,3.051,2.25,4.338,3.091c0.414,0.272,0.8,0.527,1.177,0.783
					c0.294,0.196,0.571,0.401,0.857,0.615c2.885,2.112,4.597,4.535,4.734,11.816c2.592,6.169,12.092,6.857,15.019-0.274
					c-0.265-8.811,1.262-16.448,2.645-21.379c0.348-1.287,0.694-2.385,0.994-3.266c0.567-1.689,0.982-2.62,0.982-2.62
					s-0.773-19.362-3.658-24.452c-7.022-12.28-30.773-7.598-32.441,2.323C287.867,69.604,287.685,76.465,288.506,81.559z"/>
				<path style="fill:#181D30;" d="M288.794,56.561c4.872,5.194,12.588,7.537,19.526,5.928c0.936,4.211,3.471,8.047,6.979,10.559
					c3.508,2.512,7.956,3.676,12.244,3.205c0.321-4.094,0.506-8.501-0.472-12.489c-0.978-3.988-2.996-7.811-6.169-10.417
					c-4.181-3.433-9.905-4.414-15.309-4.158C299.222,49.49,293.14,51.892,288.794,56.561z"/>
				<g>
					<path style="fill:#C16B5B;" d="M299.341,79.245c-0.355-0.15-0.726-0.228-1.112-0.224c-0.344,0.004-0.718,0.076-0.987,0.303
						c-0.289,0.243-0.418,0.598-0.421,0.97c-0.003,0.355,0.137,0.696,0.291,1.009c0.083,0.168,0.26,0.301,0.457,0.224
						c0.162-0.063,0.313-0.276,0.224-0.457c-0.113-0.229-0.236-0.478-0.252-0.736c-0.008-0.133,0.017-0.27,0.088-0.383
						c-0.004,0.007-0.008,0.014-0.011,0.021c0.065-0.119,0.202-0.171,0.326-0.202c0.009-0.002,0.019-0.005,0.033-0.007
						c0.027-0.002,0.054-0.008,0.081-0.011c0.071-0.008,0.143-0.012,0.215-0.013c0.037,0,0.073,0.001,0.11,0.001
						c0.019,0,0.021,0,0.027,0c0.006,0.001,0.007,0.001,0.023,0.003c0.226,0.024,0.423,0.102,0.639,0.162
						c0.163,0.045,0.355-0.016,0.428-0.177C299.576,79.561,299.526,79.323,299.341,79.245z"/>
					<path style="fill:#181D30;" d="M290.743,71.217c1.645-1.38,3.87-1.937,5.958-1.346c0.511,0.144,0.892,0.705,0.73,1.238
						c-0.211,0.692-0.819,0.816-1.443,0.675c-1.281-0.29-2.6-0.014-3.665,0.755c-0.035,0.025-0.069,0.051-0.125,0.093
						c-0.406,0.335-1.023,0.445-1.426,0.022C290.425,72.291,290.308,71.582,290.743,71.217z"/>
					<path style="fill:#181D30;" d="M303.063,69.735c2.014-0.746,4.296-0.52,6.064,0.739c0.433,0.308,0.603,0.964,0.27,1.411
						c-0.322,0.433-0.948,0.6-1.411,0.27c-0.525-0.374-1.12-0.629-1.749-0.772c0.027,0.01,0.055,0.021,0.082,0.031
						c-0.783-0.16-1.557-0.085-2.32,0.13c-0.521,0.147-1.139,0.123-1.393-0.447C302.402,70.639,302.531,69.932,303.063,69.735z"/>
					<g>
						<g>
							<path d="M307.434,76.592c0.096,0.902-0.558,1.712-1.461,1.807c-0.902,0.096-1.712-0.558-1.807-1.461
								c-0.096-0.902,0.558-1.712,1.461-1.807C306.529,75.036,307.338,75.69,307.434,76.592z"/>
							<path style="fill:#FFFFFF;" d="M305.649,76.253c0.028,0.263-0.163,0.499-0.426,0.527s-0.499-0.163-0.527-0.426
								c-0.028-0.263,0.163-0.499,0.426-0.527S305.621,75.99,305.649,76.253z"/>
						</g>
						<g>
							<path d="M295.454,77.129c0.096,0.902-0.558,1.712-1.461,1.807c-0.902,0.096-1.712-0.558-1.807-1.461
								c-0.096-0.902,0.558-1.711,1.461-1.807C294.549,75.572,295.358,76.226,295.454,77.129z"/>
							<path style="fill:#FFFFFF;" d="M293.668,76.789c0.028,0.263-0.163,0.499-0.426,0.527s-0.499-0.163-0.527-0.426
								s0.163-0.499,0.426-0.527C293.405,76.336,293.641,76.526,293.668,76.789z"/>
						</g>
					</g>
					<g>
						<path style="fill:#8E4136;" d="M303.453,83.505c-0.521-0.581-1.52,0.27-2.823,0.581c-1.302,0.311-2.579,0.002-2.781,0.756
							c-0.255,0.953,1.37,2.785,3.505,2.276C303.488,86.608,304.112,84.24,303.453,83.505z"/>
						<path style="fill:#C16B5B;" d="M303.604,84.945c-0.42,0.045-0.863,0.116-1.323,0.226c-1.516,0.362-2.74,0.983-3.239,1.575
							c0.616,0.376,1.413,0.587,2.312,0.372C302.637,86.812,303.363,85.835,303.604,84.945z"/>
						<path style="fill:#E1EFF0;" d="M300.805,84.818c1.163-0.278,2.085-0.789,2.296-1.503c-0.564-0.084-1.419,0.52-2.471,0.771
							c-1.053,0.251-2.088,0.098-2.553,0.428C298.588,85.056,299.642,85.096,300.805,84.818z"/>
					</g>
				</g>
				<g>
					<path style="fill:#FFCFB8;" d="M330.795,82.599c-1.998,2.475-5.21,3.196-7.175,1.61c-1.964-1.586-1.937-4.878,0.06-7.353
						c1.998-2.475,5.21-3.196,7.175-1.61C332.819,76.832,332.792,80.124,330.795,82.599z"/>
					<path style="fill:#C16B5B;" d="M329.543,76.464c-0.877-0.443-2.036-0.4-3.096,0.118c-0.529,0.257-0.91,0.566-1.168,0.943
						c-0.34,0.499-0.425,1.12-0.222,1.62c0.181,0.448,0.546,0.735,0.869,0.988c0.234,0.183,0.454,0.356,0.582,0.565
						c0.195,0.321,0.156,0.777-0.092,1.06c-0.247,0.282-0.693,0.38-1.037,0.229c-0.203-0.089-0.437,0.004-0.527,0.205
						c-0.088,0.202,0.003,0.438,0.205,0.527c0.221,0.097,0.46,0.141,0.698,0.137c0.474-0.009,0.946-0.211,1.262-0.572
						c0.475-0.543,0.547-1.384,0.172-2.001c-0.202-0.333-0.505-0.569-0.771-0.778c-0.267-0.21-0.52-0.408-0.622-0.659
						c-0.102-0.252-0.046-0.593,0.143-0.87c0.076-0.112,0.181-0.213,0.297-0.312c0.397-0.011,0.895,0.102,1.151,0.371
						c0.288,0.304,0.43,0.75,0.37,1.163c-0.032,0.219,0.119,0.421,0.338,0.453c0.022,0.003,0.044,0.005,0.066,0.004
						c0.192-0.003,0.358-0.146,0.387-0.342c0.097-0.66-0.12-1.343-0.58-1.828c-0.171-0.18-0.384-0.3-0.605-0.397
						c0.657-0.19,1.31-0.167,1.82,0.09c0.631,0.318,1.119,1.161,0.811,1.862c-0.088,0.202,0.003,0.437,0.205,0.527
						c0.202,0.088,0.437-0.003,0.527-0.205C331.173,78.341,330.632,77.015,329.543,76.464z"/>
				</g>
			</g>
		</g>
	</g>
	<g>
		<g>
			<g>
				<path style="fill:#FFFFFF;" d="M209.986,199.896h-39.324c-7.7,0-13.943,6.242-13.943,13.943v11.038
					c0,7.678,6.207,13.905,13.877,13.941l-1.073,3.468c-0.241,0.78,0.536,1.487,1.29,1.174l11.163-4.641h28.01
					c7.7,0,13.943-6.242,13.943-13.943v-11.038C223.929,206.139,217.686,199.896,209.986,199.896z"/>
			</g>
			<path style="fill:#619AC9;" d="M207.008,210.332c-3.253-1.95-7.231-2.139-10.607-0.57c-0.659-0.665-1.378-1.269-2.148-1.789
				c-3.995-2.698-9.119-3.456-13.844-2.998c-4.593,0.445-9.248,2.362-11.723,6.458c-2.313,3.827-1.81,9.081,1.8,11.937
				c1.545,1.222,3.479,1.939,5.451,1.99c0.059,0.002,0.118-0.004,0.177-0.004c0.339,0.416,0.701,0.809,1.081,1.175
				c0.729,0.701,1.521,1.316,2.354,1.864c-0.063,0.025-0.126,0.053-0.189,0.078c-2.383,0.919-4.959,1.461-7.508,1.03
				c-0.44-0.074-0.629,0.599-0.186,0.674c2.99,0.506,5.872-0.186,8.598-1.333c2.939,1.747,6.356,2.71,9.687,3.336
				c4.912,0.924,10.195,1.126,14.826-1.035c3.909-1.823,7.054-5.279,7.603-9.664C212.935,217.046,210.849,212.634,207.008,210.332z
				 M199.497,219.084c-0.026,0.449,0.672,0.448,0.699,0c0.091-1.54-0.165-3.048-0.679-4.465c1.214,0.367,2.267,1.161,2.856,2.378
				c0.924,1.91,0.111,4.017-1.602,5.155c-0.674,0.447-1.451,0.753-2.265,0.933c-1.242-1.711-3.594-1.702-5.463-1.214
				c-0.178,0.047-0.353,0.102-0.529,0.154c-0.809-0.65-1.366-1.552-1.553-2.654c0.284-0.558,0.612-1.093,0.978-1.587
				c1.254-1.693,3.071-3.079,5.206-3.355c0.523-0.068,1.049-0.064,1.56,0.008C199.301,215.909,199.591,217.488,199.497,219.084z
				 M198.067,227.039c-0.924,1.648-3.108,2.065-4.786,1.46c-1.873-0.675-3.036-2.625-3.263-4.534
				c-0.008-0.065-0.005-0.13-0.011-0.196c0.257-0.119,0.511-0.246,0.772-0.357c0.486-0.207,1.017-0.426,1.57-0.619
				c1.143,0.777,2.582,1.129,3.964,1.166c0.599,0.016,1.212-0.022,1.816-0.116C198.635,224.808,198.622,226.049,198.067,227.039z
				 M190.934,221.346c0.22,0.356,0.49,0.659,0.781,0.935c-0.588,0.204-1.165,0.434-1.732,0.686c0.026-0.871,0.215-1.73,0.521-2.551
				C190.617,220.736,190.751,221.05,190.934,221.346z M193.25,222.515c1.227-0.326,2.505-0.428,3.616,0.096
				c0.324,0.153,0.586,0.369,0.814,0.611c-1.053,0.123-2.133,0.052-3.111-0.194C194.098,222.911,193.656,222.736,193.25,222.515z
				 M196.723,213.79c-2.221,0.386-4.077,1.865-5.388,3.641c-0.154,0.209-0.3,0.426-0.441,0.647c0.103-1.667,0.841-3.275,1.867-4.576
				c0.948-1.203,2.149-2.178,3.488-2.88c0.783,0.839,1.465,1.781,2.01,2.834c0.042,0.082,0.079,0.167,0.12,0.25
				C197.83,213.667,197.273,213.695,196.723,213.79z M174.411,220.773c-0.58-1.868-0.674-3.888-0.059-5.759
				c0.581-1.767,1.912-3.484,3.757-4.024c2.089-0.612,4.197,0.62,5.185,2.457c0.974,1.811,0.963,4.029,0.247,5.924
				c-1.134,3.004-3.95,5.101-7.074,5.269C175.571,223.503,174.86,222.217,174.411,220.773z M177.027,225.306
				c1.619-0.178,3.148-0.832,4.422-1.876c3.242-2.655,4.613-7.928,1.748-11.367c-1.382-1.659-3.703-2.411-5.738-1.584
				c-1.896,0.771-3.225,2.56-3.821,4.472c-1.028,3.299-0.047,6.899,1.93,9.684c-0.29-0.019-0.582-0.05-0.874-0.104
				c-1.789-0.332-3.465-1.225-4.698-2.568c-1.434-1.562-2.116-3.708-2.044-5.81c0.147-4.292,3.479-7.72,7.288-9.261
				c2.13-0.862,4.431-1.241,6.719-1.319c2.193-0.075,4.402,0.109,6.533,0.644c2.714,0.681,5.26,1.977,7.243,3.884
				c-0.271,0.149-0.539,0.306-0.8,0.479c-1.753,1.159-3.245,2.803-4.075,4.746c-0.519,1.215-0.796,2.62-0.629,3.95
				c-0.604,1.256-0.971,2.628-0.949,4.013c-3.035,1.451-5.854,3.418-8.932,4.772C179.118,227.288,177.987,226.372,177.027,225.306z
				 M211.2,223.525c-0.63,1.837-1.803,3.45-3.249,4.732c-3.245,2.876-7.6,3.94-11.853,3.889c-2.415-0.029-4.816-0.379-7.174-0.884
				c-2.102-0.45-4.191-1.04-6.159-1.916c-0.578-0.257-1.144-0.545-1.694-0.856c1.253-0.572,2.472-1.225,3.65-1.889
				c1.526-0.86,3.041-1.748,4.614-2.521c0.001,0.005,0,0.009,0.001,0.014c0.258,2.02,1.431,4.039,3.336,4.905
				c1.749,0.795,4.022,0.589,5.408-0.82c1.119-1.139,1.437-3.017,0.782-4.475c1.39-0.335,2.681-1.015,3.585-2.159
				c1.33-1.684,1.332-3.946,0.064-5.67c-0.825-1.121-2.015-1.794-3.314-2.057c-0.567-1.277-1.346-2.465-2.283-3.514
				c1.948-0.86,4.137-1.154,6.264-0.722c4.01,0.815,7.292,3.842,8.277,7.831C211.948,219.421,211.871,221.566,211.2,223.525z"/>
		</g>
		<g>
			<g>
				
					<rect x="143.113" y="347.953" transform="matrix(0.3837 -0.9235 0.9235 0.3837 -258.1211 363.9922)" style="fill:#245472;" width="1.048" height="54.847"/>
				
					<rect x="113.097" y="374.852" transform="matrix(0.9235 -0.3836 0.3836 0.9235 -133.2485 82.6238)" style="fill:#245472;" width="54.847" height="1.048"/>
				<polygon style="fill:#245472;" points="115.79,359.862 106.765,445.999 108.637,445.999 123.128,359.862 				"/>
				<polygon style="fill:#245472;" points="169.611,359.862 178.636,445.999 176.763,445.999 162.273,359.862 				"/>
			</g>
			<g>
				
					<rect x="165.733" y="349.68" transform="matrix(0.3837 -0.9235 0.9235 0.3837 -245.7744 385.9379)" style="fill:#245472;" width="1.048" height="54.847"/>
				
					<rect x="135.717" y="376.579" transform="matrix(0.9235 -0.3836 0.3836 0.9235 -132.1907 91.4442)" style="fill:#245472;" width="54.847" height="1.048"/>
				<polygon style="fill:#245472;" points="135.987,359.862 126.962,445.999 128.834,445.999 143.325,359.862 				"/>
				<polygon style="fill:#245472;" points="189.808,359.862 198.833,445.999 196.961,445.999 182.47,359.862 				"/>
			</g>
			<g>
				<path style="fill:#162A45;" d="M188.788,336.811c-3.541-10.425-13.317-17.435-24.329-17.435h-20.641l-7.271-23.323
					c-1.299-4.16-5.155-6.999-9.514-6.999H90.414c-6.538,0-11.305,6.192-9.629,12.521l5.008,18.943v0.01l4.673,17.676
					c3.384,12.762,14.93,21.657,28.132,21.657h72.984c2.465,0,4.2-2.421,3.409-4.755L188.788,336.811z"/>
				<path style="fill:#3A739B;" d="M190.66,336.811c-3.541-10.425-13.317-17.435-24.329-17.435h-20.641l-7.271-23.323
					c-1.299-4.16-5.155-6.999-9.513-6.999H92.287c-6.538,0-11.305,6.192-9.629,12.521l5.008,18.943v0.01l4.673,17.676
					c3.384,12.762,14.93,21.657,28.132,21.657h72.984c2.465,0,4.2-2.421,3.409-4.755L190.66,336.811z"/>
			</g>
			<g>
				<g>
					<path style="fill:#619AC9;" d="M147.526,328.766l0.685,0.754c0,0,17.672,4.795,23.495,7.535
						c5.822,2.74,6.028,8.973,4.11,15.275c-1.918,6.302-8.058,26.578-8.058,26.578c-3.176,0.41-9.683-2.878-9.683-2.878
						l4.138-26.988c0,0-22.221,4.11-31.263-1.644c-9.042-5.754-7.877-18.289-7.877-18.289L147.526,328.766z"/>
					<g>
						<path style="fill:#FFB652;" d="M183.348,388.309c0.004-0.065,0.017-0.141,0.01-0.216c0.507-2.033-0.097-4.617-6.427-7.348
							c-2.973-1.283-5.007-3.261-6.049-4.457c0.132-2.75,3.24-4.331,1.727-5.297c-3.466-2.211-5.651,3.806-5.656,3.819
							c-2.183-0.401-5.122-1.111-7.515-2.31c0,0-0.78,0.763-1.672,2.21c-0.144,0.247-0.298,0.511-0.451,0.795
							c-0.033,0.051-0.062,0.11-0.098,0.173c-0.062,0.11-0.122,0.239-0.182,0.369c-0.016,0.036-0.041,0.082-0.051,0.119
							c-0.008,0.031-0.03,0.039-0.036,0.063c-0.291,0.612-0.568,1.294-0.803,2.046c-0.243,0.783-0.458,1.634-0.59,2.551
							l-0.022,0.212c-0.048,0.312-0.086,0.612-0.113,0.943c-0.006,0.276-0.03,0.574-0.05,0.88l27.561,7.202
							c0,0,0.133-0.309,0.265-0.817C183.252,388.985,183.312,388.677,183.348,388.309z"/>
						<path style="fill:#EA5C4C;" d="M155.528,381.044c-0.041,0.304-0.083,0.614-0.102,0.937c-0.016,0.285-0.042,0.58-0.051,0.886
							l27.554,7.201c0,0,0.137-0.305,0.27-0.816c0.057-0.268,0.118-0.579,0.147-0.938L155.528,381.044z"/>
						<g>
							<path style="fill:#FFFFFF;" d="M172.771,377.978C172.745,377.99,172.716,378.004,172.771,377.978L172.771,377.978z"/>
							<path style="fill:#FFFFFF;" d="M173.274,377.303c-0.078-0.229-0.351-0.433-0.604-0.331c-0.861,0.349-1.648,0.811-2.375,1.388
								c-0.092,0.073-0.141,0.241-0.138,0.352c0.003,0.117,0.058,0.257,0.147,0.336c0.095,0.085,0.221,0.147,0.352,0.138
								c0.135-0.009,0.231-0.063,0.336-0.147c-0.111,0.088,0.024-0.018,0.051-0.039c0.042-0.032,0.083-0.063,0.126-0.094
								c0.08-0.059,0.162-0.116,0.244-0.172c0.169-0.115,0.341-0.224,0.518-0.327c0.172-0.1,0.347-0.194,0.525-0.283
								c0.094-0.046,0.189-0.091,0.284-0.134c0.019-0.009,0.038-0.017,0.057-0.026c-0.014,0.006-0.017,0.008-0.026,0.012
								c0.004-0.002,0.009-0.004,0.013-0.006c0.053-0.023,0.106-0.045,0.16-0.066c0.121-0.049,0.221-0.11,0.287-0.228
								C173.29,377.573,173.314,377.419,173.274,377.303z"/>
						</g>
						<g>
							<path style="fill:#FFFFFF;" d="M174.543,379.179C174.518,379.193,174.491,379.21,174.543,379.179L174.543,379.179z"/>
							<path style="fill:#FFFFFF;" d="M174.974,378.455c-0.101-0.22-0.394-0.394-0.634-0.267c-0.821,0.435-1.556,0.975-2.22,1.624
								c-0.084,0.082-0.116,0.254-0.102,0.364c0.015,0.116,0.084,0.25,0.18,0.319c0.103,0.075,0.235,0.124,0.364,0.102
								c0.133-0.023,0.223-0.087,0.32-0.18c-0.102,0.099,0.022-0.02,0.047-0.044c0.038-0.036,0.077-0.071,0.116-0.106
								c0.074-0.067,0.149-0.132,0.225-0.196c0.156-0.132,0.317-0.258,0.482-0.378c0.161-0.117,0.325-0.229,0.494-0.335
								c0.089-0.056,0.178-0.11,0.269-0.163c0.018-0.01,0.036-0.021,0.054-0.031c-0.013,0.008-0.016,0.01-0.024,0.014
								c0.004-0.002,0.009-0.005,0.012-0.007c0.05-0.028,0.101-0.055,0.152-0.082c0.115-0.061,0.209-0.133,0.262-0.256
								C175.018,378.723,175.026,378.567,174.974,378.455z"/>
						</g>
						<g>
							<path style="fill:#FFFFFF;" d="M176.569,380.256C176.547,380.276,176.524,380.298,176.569,380.256L176.569,380.256z"/>
							<path style="fill:#FFFFFF;" d="M176.828,379.455c-0.147-0.192-0.472-0.297-0.678-0.119c-0.704,0.607-1.3,1.297-1.804,2.077
								c-0.064,0.098-0.056,0.274-0.018,0.378c0.04,0.11,0.137,0.225,0.247,0.271c0.118,0.05,0.256,0.069,0.378,0.018
								c0.125-0.052,0.199-0.134,0.271-0.247c-0.077,0.119,0.017-0.025,0.036-0.053c0.029-0.043,0.059-0.086,0.089-0.129
								c0.057-0.081,0.116-0.162,0.176-0.241c0.123-0.163,0.251-0.322,0.386-0.476c0.131-0.15,0.266-0.296,0.407-0.436
								c0.074-0.074,0.149-0.147,0.226-0.218c0.015-0.014,0.031-0.028,0.046-0.043c-0.011,0.01-0.014,0.013-0.021,0.02
								c0.004-0.003,0.008-0.007,0.01-0.009c0.043-0.038,0.086-0.076,0.13-0.114c0.099-0.085,0.174-0.176,0.199-0.308
								C176.93,379.706,176.903,379.552,176.828,379.455z"/>
						</g>
					</g>
					<path style="fill:#619AC9;" d="M108.722,328.218c-3.641,11.183-2.01,23.371,13.415,27.622
						c14.59,4.021,30.458-1.935,30.458-1.935l2.421,30.704c7.713,1.412,12.778,0,12.778,0s0.076-25.704-0.061-34.883
						c-0.137-9.179-3.474-11.827-13.563-14.659c-9.761-2.74-20.412-5.48-20.412-5.48L108.722,328.218z"/>
					<g>
						<path style="fill:#245472;" d="M144.529,332.569c3.928,1.118,7.871,2.195,11.786,3.359c1.691,0.503,3.379,1.072,4.922,1.939
							c1.534,0.862,2.847,2.027,3.826,3.494c2.097,3.141,2.574,6.992,2.608,10.683c0.019,2.033-0.065,4.065-0.089,6.097
							c-0.024,2.054-0.026,4.108-0.021,6.163c0.012,4.634,0.056,9.268-0.051,13.901c-0.004,0.186,0.285,0.186,0.289,0
							c0.098-4.226,0.069-8.453,0.055-12.679c-0.007-2.104-0.011-4.208,0.006-6.312c0.017-2.108,0.092-4.214,0.102-6.322
							c0.018-3.715-0.299-7.576-2.159-10.876c-0.826-1.465-1.941-2.736-3.318-3.705c-1.412-0.993-3.023-1.664-4.653-2.209
							c-2.058-0.688-4.167-1.234-6.254-1.827c-2.324-0.661-4.648-1.322-6.972-1.983C144.426,332.24,144.35,332.518,144.529,332.569
							L144.529,332.569z"/>
						<path style="fill:#245472;" d="M146.418,331.818c0.238,0.472,0.477,0.943,0.715,1.415c0.035,0.07,0.133,0.089,0.198,0.052
							c0.071-0.042,0.087-0.128,0.052-0.198c-0.238-0.472-0.477-0.943-0.715-1.415c-0.035-0.07-0.133-0.09-0.198-0.052
							C146.399,331.661,146.383,331.748,146.418,331.818L146.418,331.818z"/>
					</g>
					<g>
						<path style="fill:#EDA895;" d="M163.021,292.87c1.062-0.924,0.728-8.94,2.421-9.162c1.548-0.203,2.502,3.107,1.807,4.739
							c1.782-1.345,7.12-8.615,8.472-7.308c1,0.967-3.627,5.978-3.627,5.978s6.001-5.227,7.069-3.751
							c1.069,1.475-5.673,6.042-5.673,6.042s5.947-3.535,6.6-2.218c0.642,1.296-5.824,4.456-5.824,4.456s5.459-1.727,5.771-0.965
							c0.312,0.761-2.77,2.587-5.504,3.28c-2.881,3.943-7.202,4.537-7.202,4.537L163.021,292.87z"/>
						<path style="fill:#EDA895;" d="M135.186,281.503c6.336,1.045,9.891,19.919,9.891,19.919l18.467-9.284l4.25,6.028
							c0,0-13.052,10.143-18.395,12.398s-11.508,3.699-14.419-2.877C132.07,301.111,135.186,281.503,135.186,281.503z"/>
						<path style="fill:#EA5C4C;" d="M135.186,281.503c7.227,0.908,12.718,15.104,12.718,15.104
							c-2.477,2.723-8.779,5.874-8.779,5.874L135.186,281.503z"/>
					</g>
					<g>
						<g>
							<g>
								<path style="fill:#EA5C4C;" d="M108.544,328.714c33.526,4.659,40.176,0.567,40.176,0.567l-13.534-47.778l-8.704-1.044
									l-7.837,0.937l-8.588,2.971L108.544,328.714z"/>
							</g>
						</g>
					</g>
					<path style="fill:#FF847B;" d="M130.565,300.425c0.672-0.858,1.344-1.717,2.016-2.575c2.353-3.007-1.864-7.282-4.243-4.243
						l-6.468,8.264c-1.404,1.794-0.769,5.385,2.121,5.121c0.489-0.045,0.978-0.089,1.466-0.134
						c-1.22,3.304-2.123,6.691-2.667,10.239c-0.579,3.777,5.202,5.406,5.786,1.595c0.735-4.799,2.054-9.359,4.143-13.747
						C133.547,303.209,132.71,300.557,130.565,300.425z"/>
					<g>
						<path style="fill:#A83027;" d="M135.632,283.853c1.658,5.833,3.316,11.666,4.973,17.499c0.051,0.179,0.33,0.103,0.279-0.077
							c-1.658-5.833-3.316-11.666-4.973-17.499C135.859,283.597,135.58,283.673,135.632,283.853L135.632,283.853z"/>
						<path style="fill:#A83027;" d="M110.855,311.487c1.332-4.998,2.953-9.916,4.854-14.726c0.068-0.173-0.211-0.248-0.279-0.077
							c-1.902,4.81-3.523,9.728-4.854,14.726C110.528,311.591,110.807,311.667,110.855,311.487L110.855,311.487z"/>
						<path style="fill:#A83027;" d="M116.894,297.923c-1.118,1.35-2.236,2.7-3.354,4.049c-0.118,0.142,0.086,0.348,0.204,0.204
							c1.118-1.35,2.236-2.7,3.354-4.049C117.216,297.985,117.013,297.78,116.894,297.923L116.894,297.923z"/>
					</g>
					<g>
						<path style="fill:#EDB7A8;" d="M110.058,284.366c-6.518,2.325-13.52,21.089-14.34,28.611
							c-0.757,6.952,1.144,11.48,10.905,11.302c8.685-0.159,28.358-6.559,28.358-6.559l-1.721-7.895l-25.575,3.511l5.411-15.19
							L110.058,284.366z"/>
						<path style="fill:#EA5C4C;" d="M110.058,284.366c-11.484,4.688-16.347,24.827-16.347,24.827
							c4.521,2.603,16.645,2.603,16.645,2.603l4.36-14.504L110.058,284.366z"/>
						<path style="fill:#EDB7A8;" d="M132.097,311.043c1.29-0.564,3.365-8.314,5.048-8.02c1.538,0.269,1.459,3.713,0.309,5.062
							c2.102-0.751,9.369-6.094,10.269-4.443c0.666,1.221-5.248,4.622-5.248,4.622s7.288-3.195,7.867-1.468
							c0.579,1.727-7.219,4.071-7.219,4.071s6.732-1.597,6.961-0.144c0.226,1.428-6.889,2.512-6.889,2.512s5.726-0.017,5.796,0.803
							c0.071,0.82-3.417,1.641-6.232,1.486c-3.927,2.902-8.229,2.178-8.229,2.178L132.097,311.043z"/>
					</g>
					<g>
						<path style="fill:#181D30;" d="M152.198,224.786c0.105-2.69-0.736-5.49-2.644-7.39c-1.436-1.429-3.389-2.271-5.392-2.575
							c-2.003-0.304-3.933-0.014-5.906,0.444c-0.253-2.396-2.091-4.417-4.282-5.419c-2.191-1.002-4.686-1.122-7.088-0.936
							c-7.789,0.605-15.282,4.397-20.382,10.314c-1.353,1.57-2.606,3.587-3.165,5.582c-1.527,0.253-2.92,1.082-4.029,2.163
							c-1.109,1.081-1.953,2.404-2.668,3.778c-3.023,5.812-3.801,12.758-2.138,19.095c0.215,0.817,0.491,1.662,1.103,2.245
							c0.612,0.582,1.637,0.885,2.276,0.333c-0.523,3.778,0.819,7.771,3.52,10.465c2.701,2.694,6.696,4.027,10.473,3.495
							l34.014-14.75c4.683-5.076,6.285-12.699,3.942-19.196C151.124,230.071,152.094,227.477,152.198,224.786z"/>
						<path style="fill:#EDB7A8;" d="M150.091,251.199c0.014,1.474-0.033,2.858-0.15,4.145c-0.569,6.931-2.879,11.308-6.289,14.441
							c-2.331,2.139-4.882,3.381-7.208,4.499c-4.403,2.106-7.979,3.736-7.624,10.091c-3.811,3.923-9.545,2.866-11.633-0.449
							c-0.561-12.833-6.698-16.54-8.749-21.45c-0.627-1.506-1.112-2.5-1.313-2.876c-0.062-0.135-0.085-0.196-0.085-0.196
							s-0.08-2.063-0.087-5.11l-0.011-1.157c0-7.13,0.294-18.346,2.221-22.402c7.064-14.849,35.019-11.479,37.819-0.126
							C149.076,239.104,150.032,245.809,150.091,251.199z"/>
						<path style="fill:#181D30;" d="M148.253,230.575c-1.543,2.275-4.639,2.801-7.386,2.888
							c-7.085,0.223-14.216-1.152-20.711-3.994c1.103,0.274,1.699,1.639,1.355,2.722c-0.344,1.083-1.414,1.824-2.531,2.03
							c-1.117,0.206-2.272-0.045-3.341-0.431c0.925,4.219,0.469,8.729-1.282,12.678c-1.75,3.949-4.786,7.315-8.533,9.463
							c-2.08-7.327-2.201-15.262-0.026-22.561c1.088-3.653,2.777-7.258,5.645-9.767c4.396-3.845,10.707-4.458,16.547-4.395
							c4.338,0.047,8.775,0.39,12.747,2.135C144.71,223.087,147.399,226.322,148.253,230.575z"/>
						<g>
							<g>
								<path style="fill:#8E4136;" d="M131.752,255.291c0.595-0.985,2.276-0.024,4.248,0.07c1.972,0.094,3.737-0.702,4.236,0.335
									c0.63,1.311-1.224,4.409-4.455,4.255C132.55,259.796,131,256.536,131.752,255.291z"/>
								<path style="fill:#C16B5B;" d="M131.927,257.418c0.621-0.049,1.282-0.068,1.979-0.034c2.295,0.11,4.238,0.675,5.123,1.396
									c-0.79,0.713-1.886,1.236-3.247,1.171C133.839,259.858,132.52,258.642,131.927,257.418z"/>
								<path style="fill:#FFFFFF;" d="M135.947,256.469c-1.761-0.084-3.237-0.573-3.738-1.55c0.794-0.276,2.198,0.365,3.791,0.441
									c1.594,0.076,3.051-0.429,3.816-0.078C139.224,256.207,137.708,256.553,135.947,256.469z"/>
							</g>
							<path style="fill:#C16B5B;" d="M138.762,252.567c0.1-0.006,0.189-0.077,0.213-0.18c0.355-1.538-0.188-2.024-0.706-2.16
								c-0.525-0.136-1.137,0.031-1.817,0.504c-0.105,0.073-0.131,0.218-0.057,0.324c0.075,0.104,0.221,0.129,0.324,0.057
								c0.561-0.391,1.043-0.539,1.431-0.436c0.465,0.122,0.59,0.662,0.372,1.607c-0.029,0.124,0.049,0.249,0.174,0.278
								C138.718,252.567,138.741,252.568,138.762,252.567z"/>
							<g>
								<path d="M142.151,246.993c-0.037,1.251,0.946,2.295,2.197,2.333c1.251,0.037,2.295-0.946,2.332-2.197
									c0.037-1.251-0.946-2.295-2.197-2.332C143.233,244.759,142.188,245.742,142.151,246.993z"/>
								<path style="fill:#FFFFFF;" d="M144.57,246.341c-0.011,0.364,0.276,0.669,0.64,0.68c0.364,0.011,0.669-0.276,0.68-0.64
									s-0.276-0.669-0.64-0.68C144.886,245.689,144.581,245.976,144.57,246.341z"/>
							</g>
							<g>
								<path d="M126.457,246.993c-0.038,1.251,0.946,2.295,2.197,2.333c1.251,0.037,2.295-0.946,2.332-2.197
									c0.037-1.251-0.946-2.295-2.197-2.332C127.539,244.759,126.494,245.742,126.457,246.993z"/>
								<path style="fill:#FFFFFF;" d="M128.876,246.341c-0.011,0.364,0.276,0.669,0.64,0.68c0.364,0.011,0.669-0.276,0.68-0.64
									c0.011-0.365-0.276-0.669-0.64-0.68C129.192,245.689,128.887,245.976,128.876,246.341z"/>
							</g>
							<path d="M147.188,240.652c-1.527-1.109-3.494-1.476-5.332-1.11c-0.442,0.088-0.736,0.637-0.6,1.057
								c0.152,0.469,0.584,0.694,1.057,0.6c0.077-0.015,0.153-0.028,0.23-0.041c0.009,0.001,0.188-0.023,0.215-0.025
								c0.201-0.017,0.403-0.023,0.605-0.019c0.177,0.004,0.352,0.019,0.529,0.034c0.018,0.002,0.016,0.002,0.027,0.003
								c0.04,0.006,0.08,0.012,0.119,0.019c0.1,0.017,0.199,0.037,0.297,0.059c0.197,0.045,0.392,0.099,0.583,0.163
								c0.072,0.024,0.143,0.049,0.214,0.076c0.039,0.015,0.077,0.03,0.115,0.045c0.011,0.005,0.01,0.005,0.029,0.013
								c0.367,0.175,0.715,0.37,1.044,0.61c0.365,0.265,0.974,0.074,1.176-0.308C147.732,241.381,147.578,240.935,147.188,240.652z"
								/>
							<path d="M125.949,240.652c1.526-1.109,3.494-1.476,5.332-1.11c0.442,0.088,0.736,0.637,0.6,1.057
								c-0.152,0.469-0.584,0.694-1.057,0.6c-0.077-0.015-0.153-0.028-0.23-0.041c-0.009,0.001-0.188-0.023-0.215-0.025
								c-0.201-0.017-0.403-0.023-0.605-0.019c-0.177,0.004-0.352,0.019-0.529,0.034c-0.018,0.002-0.016,0.002-0.027,0.003
								c-0.04,0.006-0.08,0.012-0.119,0.019c-0.1,0.017-0.199,0.037-0.297,0.059c-0.197,0.045-0.392,0.099-0.583,0.163
								c-0.072,0.024-0.143,0.049-0.214,0.076c-0.039,0.015-0.077,0.03-0.116,0.045c-0.011,0.005-0.01,0.005-0.029,0.013
								c-0.367,0.175-0.715,0.37-1.044,0.61c-0.365,0.265-0.974,0.074-1.176-0.308C125.405,241.381,125.559,240.935,125.949,240.652
								z"/>
						</g>
						<g>
							<path style="fill:#EDB7A8;" d="M100.998,261.845c2.531,2.699,6.319,3.258,8.461,1.249c2.142-2.009,1.827-5.825-0.704-8.523
								c-2.531-2.698-6.319-3.257-8.461-1.249C98.152,255.331,98.467,259.147,100.998,261.845z"/>
							<path style="fill:#C16B5B;" d="M101.92,254.621c0.979-0.59,2.327-0.64,3.602-0.13c0.636,0.253,1.104,0.578,1.435,0.993
								c0.438,0.55,0.59,1.263,0.398,1.86c-0.171,0.536-0.571,0.899-0.923,1.221c-0.255,0.232-0.497,0.452-0.626,0.705
								c-0.198,0.389-0.114,0.914,0.198,1.221c0.311,0.306,0.836,0.381,1.223,0.176c0.228-0.121,0.508-0.034,0.628,0.192
								c0.12,0.226,0.035,0.508-0.192,0.628c-0.248,0.132-0.521,0.204-0.798,0.219c-0.551,0.031-1.115-0.163-1.513-0.555
								c-0.598-0.589-0.754-1.558-0.372-2.305c0.206-0.403,0.536-0.704,0.828-0.969c0.292-0.266,0.568-0.518,0.664-0.818
								c0.097-0.301,0.003-0.691-0.241-0.997c-0.098-0.123-0.228-0.231-0.371-0.336c-0.461,0.022-1.03,0.196-1.303,0.53
								c-0.308,0.378-0.434,0.907-0.329,1.381c0.056,0.251-0.102,0.498-0.353,0.554c-0.025,0.006-0.05,0.009-0.076,0.01
								c-0.223,0.012-0.428-0.138-0.478-0.363c-0.169-0.757,0.024-1.568,0.516-2.17c0.183-0.223,0.419-0.382,0.668-0.513
								c-0.779-0.164-1.534-0.081-2.104,0.262c-0.704,0.424-1.197,1.444-0.779,2.229c0.12,0.227,0.034,0.508-0.192,0.629
								c-0.227,0.12-0.507,0.035-0.628-0.192C100.192,256.938,100.705,255.353,101.92,254.621z"/>
						</g>
					</g>
					<g>
						<path style="fill:#FFB652;" d="M183.24,393.523c-0.012-0.064-0.018-0.141-0.043-0.212c0-2.096-1.212-4.456-8.014-5.574
							c-3.195-0.525-5.648-1.952-6.947-2.86c-0.538-2.7,2.096-4.987,0.393-5.557c-3.898-1.307-4.562,5.061-4.563,5.074
							c-2.215,0.14-5.239,0.162-7.851-0.422c0,0-0.572,0.929-1.087,2.55c-0.08,0.274-0.166,0.568-0.246,0.881
							c-0.02,0.057-0.033,0.121-0.053,0.192c-0.033,0.121-0.06,0.262-0.087,0.402c-0.007,0.038-0.02,0.09-0.02,0.128
							c0,0.032-0.02,0.044-0.02,0.07c-0.134,0.664-0.238,1.393-0.284,2.18c-0.046,0.819-0.049,1.696,0.045,2.618l0.03,0.211
							c0.029,0.314,0.064,0.615,0.119,0.942c0.061,0.269,0.11,0.564,0.165,0.866l28.485,0.317c0,0,0.054-0.332,0.06-0.857
							C183.31,394.202,183.294,393.888,183.24,393.523z"/>
						<path style="fill:#EA5C4C;" d="M154.488,393.208c0.034,0.305,0.069,0.616,0.128,0.934c0.053,0.28,0.1,0.573,0.165,0.872
							l28.478,0.317c0,0,0.059-0.329,0.064-0.857c-0.01-0.273-0.025-0.591-0.084-0.945L154.488,393.208z"/>
						<g>
							<path style="fill:#FFFFFF;" d="M170.477,386.06C170.454,386.077,170.429,386.098,170.477,386.06L170.477,386.06z"/>
							<path style="fill:#FFFFFF;" d="M170.801,385.282c-0.131-0.203-0.446-0.335-0.666-0.175c-0.751,0.547-1.403,1.186-1.969,1.922
								c-0.071,0.093-0.079,0.268-0.049,0.375c0.031,0.113,0.118,0.235,0.224,0.291c0.113,0.06,0.25,0.09,0.375,0.049
								c0.129-0.042,0.209-0.117,0.291-0.224c-0.087,0.113,0.019-0.023,0.04-0.05c0.033-0.041,0.066-0.081,0.099-0.122
								c0.064-0.076,0.128-0.152,0.195-0.226c0.136-0.152,0.277-0.3,0.423-0.442c0.143-0.139,0.29-0.273,0.441-0.401
								c0.08-0.068,0.161-0.134,0.243-0.199c0.016-0.013,0.033-0.025,0.049-0.039c-0.012,0.009-0.015,0.012-0.022,0.018
								c0.004-0.003,0.008-0.007,0.011-0.009c0.046-0.035,0.092-0.069,0.139-0.103c0.105-0.077,0.188-0.161,0.224-0.291
								C170.882,385.541,170.868,385.386,170.801,385.282z"/>
						</g>
						<g>
							<path style="fill:#FFFFFF;" d="M172.487,386.795C172.466,386.815,172.443,386.838,172.487,386.795L172.487,386.795z"/>
							<path style="fill:#FFFFFF;" d="M172.73,385.989c-0.151-0.189-0.478-0.287-0.68-0.105c-0.691,0.621-1.274,1.323-1.761,2.113
								c-0.061,0.1-0.051,0.275-0.01,0.378c0.042,0.109,0.142,0.222,0.252,0.266c0.118,0.048,0.258,0.064,0.378,0.01
								c0.124-0.055,0.196-0.138,0.266-0.252c-0.075,0.121,0.016-0.025,0.035-0.054c0.028-0.044,0.057-0.088,0.086-0.131
								c0.055-0.083,0.112-0.164,0.171-0.245c0.119-0.165,0.245-0.327,0.376-0.484c0.128-0.153,0.26-0.301,0.398-0.445
								c0.072-0.076,0.146-0.15,0.222-0.223c0.015-0.015,0.03-0.029,0.045-0.044c-0.011,0.011-0.013,0.013-0.02,0.02
								c0.003-0.003,0.007-0.007,0.01-0.01c0.042-0.039,0.085-0.078,0.128-0.117c0.097-0.087,0.17-0.179,0.193-0.312
								C172.837,386.238,172.807,386.085,172.73,385.989z"/>
						</g>
						<g>
							<path style="fill:#FFFFFF;" d="M174.713,387.351C174.697,387.375,174.68,387.402,174.713,387.351L174.713,387.351z"/>
							<path style="fill:#FFFFFF;" d="M174.77,386.51c-0.189-0.151-0.53-0.174-0.687,0.048c-0.536,0.759-0.948,1.573-1.248,2.452
								c-0.038,0.111,0.012,0.279,0.074,0.371c0.066,0.097,0.188,0.185,0.305,0.204c0.126,0.02,0.265,0.005,0.371-0.074
								c0.109-0.081,0.16-0.178,0.204-0.305c-0.046,0.134,0.01-0.028,0.022-0.06c0.018-0.049,0.036-0.098,0.055-0.147
								c0.036-0.093,0.073-0.185,0.112-0.277c0.08-0.188,0.166-0.373,0.259-0.555c0.09-0.177,0.187-0.351,0.289-0.522
								c0.054-0.09,0.109-0.179,0.166-0.266c0.012-0.017,0.023-0.035,0.035-0.052c-0.008,0.013-0.01,0.016-0.015,0.024
								c0.003-0.004,0.006-0.009,0.008-0.012c0.032-0.048,0.065-0.095,0.099-0.142c0.075-0.106,0.126-0.212,0.118-0.347
								C174.93,386.729,174.867,386.587,174.77,386.51z"/>
						</g>
					</g>
				</g>
			</g>
			<path style="fill:#162A45;" d="M130.218,359.862h-11.62c-13.202,0-24.748-8.895-28.132-21.657l-4.673-17.676v-0.01h10.611
				c12.001,0,22.691,7.583,26.658,18.909L130.218,359.862z"/>
		</g>
	</g>
	<g>
		<g>
			<path style="fill:#FFB652;" d="M418.677,370.861c-1.094-4.47-4.094-8.44-8.095-10.713c-2.716-1.543-5.999-2.453-7.809-4.999
				c-1.785-2.511-1.598-5.855-1.759-8.932c-0.202-3.836-1.12-7.753-3.424-10.827s-6.192-5.141-9.984-4.527
				c-4.772,0.772-8.152,5.697-8.188,10.531c-0.037,4.834,2.68,9.361,6.271,12.598c1.685,1.519,3.675,2.965,4.299,5.146
				c0.766,2.68-0.805,5.417-1.19,8.177c-0.492,3.533,1.021,7.091,3.199,9.916c3.288,4.265,8.23,7.111,13.487,8.144
				c2.658,0.522,5.412,0.586,8.085,0.132c2.818-0.478,3.346-1.743,4.357-4.279C419.227,377.961,419.515,374.283,418.677,370.861z"/>
			<path style="fill:#162A45;" d="M388.921,334.615c1.71,6.749,3.994,13.348,6.815,19.712c2.816,6.353,6.165,12.469,10.005,18.261
				c2.15,3.243,4.454,6.381,6.9,9.406c0.113,0.139,0.309-0.059,0.197-0.197c-4.362-5.394-8.263-11.158-11.656-17.21
				c-3.392-6.051-6.276-12.386-8.608-18.92c-1.303-3.653-2.432-7.367-3.385-11.127C389.145,334.368,388.876,334.441,388.921,334.615
				L388.921,334.615z"/>
		</g>
		<g>
			<path style="fill:#FF884D;" d="M401.833,376.536c-3.23-5.737-3.946-12.834-1.925-19.1c1.168-3.624,3.194-6.951,4.097-10.651
				c1.473-6.036-0.192-12.382-2.367-18.202c-2.175-5.82-4.897-11.543-5.63-17.713c-0.733-6.17,0.98-13.103,6.062-16.678
				c4.651-3.272,11.283-2.913,16.092,0.122c4.809,3.035,7.881,8.35,9.093,13.906c1.213,5.556,0.728,11.356-0.375,16.935
				c-0.919,4.647-2.232,9.621-0.351,13.969c0.977,2.259,2.722,4.076,4.276,5.985c4.077,5.011,7.025,11.044,7.831,17.454
				c0.805,6.41-0.648,13.191-4.53,18.355c-3.293,4.382-10.777,9.732-16.619,7.829C411.185,386.693,405.107,382.351,401.833,376.536z
				"/>
			<path style="fill:#162A45;" d="M411.64,296.691c1.451,5.704,2.741,11.448,3.864,17.225c1.117,5.749,2.071,11.529,2.859,17.332
				c0.799,5.876,1.427,11.776,1.885,17.689c0.455,5.868,0.743,11.748,0.862,17.632c0.119,5.884,0.07,11.771-0.149,17.652
				c-0.027,0.721-0.056,1.441-0.088,2.162c-0.008,0.179,0.271,0.179,0.278,0c0.259-5.88,0.351-11.766,0.273-17.651
				c-0.078-5.914-0.327-11.825-0.745-17.724c-0.416-5.87-0.999-11.729-1.749-17.566c-0.748-5.821-1.66-11.621-2.738-17.39
				c-1.081-5.785-2.327-11.539-3.738-17.253c-0.18-0.728-0.362-1.456-0.547-2.183C411.864,296.444,411.596,296.517,411.64,296.691
				L411.64,296.691z"/>
		</g>
		<g>
			<path style="fill:#FFB652;" d="M416.454,372.371c0.029-5.903,2.583-11.751,6.895-15.784c2.926-2.737,6.75-4.853,8.246-8.569
				c1.476-3.666,0.242-7.781-0.475-11.667c-0.895-4.845-0.921-10.006,1.035-14.529c1.956-4.522,6.187-8.264,11.1-8.632
				c6.184-0.463,11.871,4.669,13.363,10.688c1.491,6.019-0.545,12.478-4.056,17.589c-1.648,2.398-3.698,4.797-3.824,7.704
				c-0.154,3.571,2.624,6.516,3.928,9.844c1.67,4.26,0.847,9.15-1.025,13.325c-2.826,6.302-8.14,11.331-14.389,14.191
				c-3.16,1.446-6.575,2.349-10.045,2.582c-3.658,0.246-4.695-1.173-6.714-4.035C417.89,381.391,416.432,376.889,416.454,372.371z"
				/>
			<path style="fill:#162A45;" d="M442.418,318.257c-0.057,4.422-0.298,8.842-0.727,13.244c-0.434,4.454-1.057,8.889-1.867,13.29
				c-0.8,4.35-1.782,8.666-2.941,12.935c-1.165,4.289-2.51,8.529-4.03,12.705c-1.524,4.185-3.225,8.305-5.1,12.345
				c-0.235,0.506-0.473,1.011-0.713,1.515c-0.077,0.161,0.163,0.302,0.24,0.141c1.908-4.003,3.649-8.086,5.214-12.236
				c1.576-4.178,2.974-8.424,4.192-12.72c1.218-4.297,2.254-8.645,3.107-13.028c0.846-4.354,1.511-8.743,1.991-13.152
				c0.483-4.439,0.778-8.899,0.882-13.364c0.013-0.558,0.023-1.116,0.03-1.674C442.698,318.078,442.42,318.078,442.418,318.257
				L442.418,318.257z"/>
		</g>
		<g>
			<polygon style="fill:#FF847B;" points="442.042,439.074 400.787,439.074 395.845,387.935 446.984,387.935 			"/>
			<rect x="393.338" y="382.635" style="fill:#A83027;" width="56.152" height="10.6"/>
		</g>
	</g>
</g>
</svg>
