<?xml version="1.0" encoding="UTF-8"?>
<svg xmlns="http://www.w3.org/2000/svg" xmlns:xlink="http://www.w3.org/1999/xlink" viewBox="0 0 1078.3 1000">
  <defs>
    <style>
      .cls-1, .cls-2, .cls-3, .cls-4, .cls-5, .cls-6, .cls-7, .cls-8, .cls-9, .cls-10, .cls-11, .cls-12, .cls-13, .cls-14, .cls-15, .cls-16, .cls-17, .cls-18, .cls-19, .cls-20, .cls-21, .cls-22, .cls-23, .cls-24, .cls-25, .cls-26, .cls-27, .cls-28, .cls-29, .cls-30, .cls-31, .cls-32, .cls-33, .cls-34, .cls-35, .cls-36, .cls-37, .cls-38, .cls-39, .cls-40, .cls-41, .cls-42, .cls-43, .cls-44, .cls-45, .cls-46, .cls-47, .cls-48, .cls-49, .cls-50, .cls-51, .cls-52 {
        stroke-width: 0px;
      }

      .cls-1, .cls-4, .cls-53, .cls-12, .cls-54, .cls-55, .cls-56, .cls-57, .cls-58, .cls-59, .cls-60 {
        stroke-miterlimit: 10;
      }

      .cls-1, .cls-4, .cls-53, .cls-12, .cls-54, .cls-56, .cls-57, .cls-58, .cls-59, .cls-60 {
        stroke: #34110b;
      }

      .cls-1, .cls-5, .cls-61, .cls-62 {
        fill: #000;
      }

      .cls-2 {
        fill: #ffd78f;
      }

      .cls-3 {
        fill: #e68a2e;
      }

      .cls-4, .cls-31 {
        fill: #34110b;
      }

      .cls-6 {
        fill: #ff9a31;
      }

      .cls-61 {
        font-size: 57.01px;
      }

      .cls-61, .cls-62 {
        font-family: Milk-Mango, 'Milk Mango';
      }

      .cls-53 {
        stroke-width: .88px;
      }

      .cls-53, .cls-54, .cls-26, .cls-56, .cls-57, .cls-58, .cls-59, .cls-60 {
        fill: none;
      }

      .cls-7 {
        fill: #ffa81d;
      }

      .cls-8 {
        fill: #fc695f;
      }

      .cls-9 {
        fill: #d96e31;
      }

      .cls-10, .cls-23, .cls-27, .cls-40 {
        fill: #a1bd30;
      }

      .cls-10, .cls-23, .cls-34 {
        mix-blend-mode: screen;
      }

      .cls-11 {
        fill: #282828;
      }

      .cls-12, .cls-43 {
        fill: #fff;
      }

      .cls-13 {
        fill: #f7a064;
      }

      .cls-14 {
        fill: #f48d2f;
      }

      .cls-15 {
        fill: #010012;
      }

      .cls-16 {
        fill: #040000;
      }

      .cls-63 {
        isolation: isolate;
      }

      .cls-17 {
        fill: #fcfdf8;
      }

      .cls-18 {
        fill: #090303;
      }

      .cls-19, .cls-34, .cls-50 {
        fill: #8c6742;
      }

      .cls-54 {
        stroke-width: 1.87px;
      }

      .cls-20 {
        fill: #e28133;
      }

      .cls-21 {
        fill: #ffa171;
      }

      .cls-22 {
        fill: #995823;
      }

      .cls-23 {
        opacity: .52;
      }

      .cls-24 {
        fill: #e15248;
      }

      .cls-25 {
        fill: #e89470;
      }

      .cls-27 {
        opacity: .55;
      }

      .cls-27, .cls-50 {
        mix-blend-mode: multiply;
      }

      .cls-55 {
        stroke: #e89470;
        stroke-width: .81px;
      }

      .cls-55, .cls-42 {
        fill: #ffa574;
      }

      .cls-64 {
        opacity: .54;
      }

      .cls-56 {
        stroke-width: 1.09px;
      }

      .cls-28 {
        fill: #ff7d31;
      }

      .cls-29 {
        fill: red;
      }

      .cls-30 {
        fill: #c97d48;
      }

      .cls-57 {
        stroke-width: .81px;
      }

      .cls-32 {
        fill: #010010;
      }

      .cls-33 {
        fill: #fffaf8;
      }

      .cls-35 {
        fill: #fffbfa;
      }

      .cls-36 {
        fill: #f47c37;
      }

      .cls-37 {
        fill: #5b1500;
      }

      .cls-58 {
        stroke-width: .73px;
      }

      .cls-38 {
        fill: #d38266;
      }

      .cls-39 {
        fill: #ffa567;
      }

      .cls-65 {
        clip-path: url(#clippath);
      }

      .cls-66 {
        opacity: .53;
      }

      .cls-41 {
        fill: #f99f78;
      }

      .cls-59 {
        stroke-width: .94px;
      }

      .cls-44 {
        fill: #ef9456;
      }

      .cls-45 {
        fill: #f9a37d;
      }

      .cls-46 {
        fill: #00000b;
      }

      .cls-47 {
        fill: #080009;
      }

      .cls-60 {
        stroke-width: .8px;
      }

      .cls-48 {
        fill: #db663a;
      }

      .cls-49 {
        fill: #5b2210;
      }

      .cls-62 {
        font-size: 35.95px;
      }

      .cls-51 {
        fill: #f99132;
      }

      .cls-52 {
        fill: #0e1e47;
      }
    </style>
    <clipPath id="clippath">
      <path class="cls-26" d="M317.31,586.33c8.81,26.01,9.25,48.37,9.43,63.64.13,10.69-.45,19.5-.98,25.41-12.36,3.9-30.54,8.13-52.76,8.06-24.46-.07-44.18-5.32-57-9.83-2.06-18.96-2.61-47.69,7.03-80.37,4.68-15.87,10.76-29.24,16.65-39.99,20.77.02,41.54.05,62.3.07,7.81,13.02,12.48,24.61,15.32,33Z"/>
    </clipPath>
  </defs>
  <g class="cls-63">
    <g id="Layer_13" data-name="Layer 13">
      <path class="cls-10" d="M1048.67,787.2c6.4,8.36,20.21,26.39,15.76,45.9-3.11,13.66-13.57,22.19-17.57,24.87-61.82,41.4-143.88,29.56-216.29,12.48-72.4-17.09-150.26-37.51-219.1-9.34-40.27,16.48-73.26,48.36-114.63,61.83-54.17,17.63-118.37-1.9-153.54-46.71-10.35-13.19-18.81-28.68-33.15-37.36-19.92-12.05-45.2-7.69-68.18-3.99-52.78,8.5-106.47,11.37-159.85,8.54-18.08-.96-38.55-3.88-48.94-18.72-9.39-13.43-6.66-32.5,2.2-46.28,7.54-11.74,18.68-20.5,30.14-28.59.22-.16.44-.32.66-.47,2.93-1.19,5.95-2.4,9.05-3.61,180.54-70.94,337.41-71.7,440.55-71.18,176.42.89,328.56,33.03,444.94,68.65,15.72,1.71,60.92,8.69,87.95,43.97Z"/>
      <path class="cls-23" d="M123.16,764.34c-.19.13-.39.27-.59.41h-.41c.33-.14.66-.28,1-.41Z"/>
      <g id="Mascot">
        <g>
          <g id="Tail">
            <g id="Tail_Fill" data-name="Tail Fill">
              <path class="cls-35" d="M806.99,626.96c7.57.53,17.9,2.26,29.08,7.31,12.48,5.64,21,13.14,25.94,18.24,2.09,1.79,5.05,4.75,7.33,9.11,3.03,5.79,3.37,11.15,3.76,18.82.19,3.59.23,8.55-.4,14.46-.63,4.02-1.04,9.14-.56,15.03.21,2.53.55,4.88.96,7.02.38,1.95-.82,3.36-2.77,2.96-2.53-.52-5.54-1.42-8.73-3.02-4.28-2.14-7.45-4.81-9.65-7.09-1.38-1.43-3.69-3.62-5.32-4.75-10.64-7.39-19.52-13.98-26.43-19.26-8.2-6.26-9.85-8.42-12.28-10.3-11.51-8.93-17.41-22.17-14.86-34.27,1.05-4.99,3.36-8.91,5.57-11.75.78-1,2.17-1.83,3.59-2.28,1.26-.4,3.43-.32,4.75-.23Z"/>
              <path class="cls-58" d="M806.99,626.96c7.57.53,17.9,2.26,29.08,7.31,12.48,5.64,21,13.14,25.94,18.24,2.09,1.79,5.05,4.75,7.33,9.11,3.03,5.79,3.37,11.15,3.76,18.82.19,3.59.23,8.55-.4,14.46-.63,4.02-1.04,9.14-.56,15.03.21,2.53.55,4.88.96,7.02.38,1.95-.82,3.36-2.77,2.96-2.53-.52-5.54-1.42-8.73-3.02-4.28-2.14-7.45-4.81-9.65-7.09-1.38-1.43-3.69-3.62-5.32-4.75-10.64-7.39-19.52-13.98-26.43-19.26-8.2-6.26-9.85-8.42-12.28-10.3-11.51-8.93-17.41-22.17-14.86-34.27,1.05-4.99,3.36-8.91,5.57-11.75.78-1,2.17-1.83,3.59-2.28,1.26-.4,3.43-.32,4.75-.23Z"/>
            </g>
            <g id="Pattern">
              <path class="cls-28" d="M835.78,694.36c.21-1.58.31-3.45.15-5.54-.24-3.07-.99-5.65-1.76-7.63-.48-1.23.03-1.81,1.22-1.24,1.98.96,4.42,2.45,6.81,4.71,2.21,2.09,3.75,4.24,4.81,6.04.67,1.14,1.37,1.07,1.54-.24.34-2.72.38-6.81-1.33-11.28-1.12-2.93-2.67-5.18-4.03-6.78-.86-1.01-.62-1.42.61-.94,2.2.85,4.73,2.03,7.38,3.69,2.35,1.47,4.32,3.02,5.92,4.46.98.88,1.75.58,1.64-.74-.12-1.47-.39-3.15-.89-4.97-.47-1.69-1.05-3.17-1.65-4.42s-.23-1.52.79-.68c1.25,1.02,2.62,2.33,3.96,3.97,1.28,1.57,2.25,3.11,2.99,4.49.62,1.17,1.34,1.13,1.63-.16.57-2.57,1.03-5.75,1-9.41-.03-3.38-.46-6.35-1-8.78-.29-1.29-1.27-3.15-2.14-4.15-4.87-5.59-13.25-13.65-25.77-19.75-13.82-6.74-26.53-8.09-34.27-8.24-1.32-.03-3.11.79-3.91,1.85-2.69,3.58-7.39,11.36-6.78,21.86.9,15.35,12.42,23.86,13.95,24.96,8.92,6.62,17.85,13.24,26.77,19.86,1.06.79,2.17.38,2.34-.93Z"/>
              <path class="cls-58" d="M835.78,694.36c.21-1.58.31-3.45.15-5.54-.24-3.07-.99-5.65-1.76-7.63-.48-1.23.03-1.81,1.22-1.24,1.98.96,4.42,2.45,6.81,4.71,2.21,2.09,3.75,4.24,4.81,6.04.67,1.14,1.37,1.07,1.54-.24.34-2.72.38-6.81-1.33-11.28-1.12-2.93-2.67-5.18-4.03-6.78-.86-1.01-.62-1.42.61-.94,2.2.85,4.73,2.03,7.38,3.69,2.35,1.47,4.32,3.02,5.92,4.46.98.88,1.75.58,1.64-.74-.12-1.47-.39-3.15-.89-4.97-.47-1.69-1.05-3.17-1.65-4.42s-.23-1.52.79-.68c1.25,1.02,2.62,2.33,3.96,3.97,1.28,1.57,2.25,3.11,2.99,4.49.62,1.17,1.34,1.13,1.63-.16.57-2.57,1.03-5.75,1-9.41-.03-3.38-.46-6.35-1-8.78-.29-1.29-1.27-3.15-2.14-4.15-4.87-5.59-13.25-13.65-25.77-19.75-13.82-6.74-26.53-8.09-34.27-8.24-1.32-.03-3.11.79-3.91,1.85-2.69,3.58-7.39,11.36-6.78,21.86.9,15.35,12.42,23.86,13.95,24.96,8.92,6.62,17.85,13.24,26.77,19.86,1.06.79,2.17.38,2.34-.93Z"/>
            </g>
            <g id="Tail_Outline" data-name="Tail Outline">
              <path class="cls-56" d="M806.99,626.96c7.57.53,17.9,2.26,29.08,7.31,12.48,5.64,21,13.14,25.94,18.24,2.09,1.79,5.05,4.75,7.33,9.11,3.03,5.79,3.37,11.15,3.76,18.82.19,3.59.23,8.55-.4,14.46-.63,4.02-1.04,9.14-.56,15.03.21,2.53.55,4.88.96,7.02.38,1.95-.82,3.36-2.77,2.96-2.53-.52-5.54-1.42-8.73-3.02-4.28-2.14-7.45-4.81-9.65-7.09-1.38-1.43-3.69-3.62-5.32-4.75-10.64-7.39-19.52-13.98-26.43-19.26-8.2-6.26-9.85-8.42-12.28-10.3-11.51-8.93-17.41-22.17-14.86-34.27,1.05-4.99,3.36-8.91,5.57-11.75.78-1,2.17-1.83,3.59-2.28,1.26-.4,3.43-.32,4.75-.23Z"/>
            </g>
          </g>
          <g id="Body">
            <g>
              <path class="cls-28" d="M823.25,630.83c-.32-4.04-.86-9.83-1.87-16.85-1.67-.22-4.2-.5-7.28-.62-12.8-.47-14.99,2.68-24.94,2.62-9.33-.06-17.32-1.25-23.56-2.62-2.99-.66-7.41-.11-9.82,1.49-5.08,3.35-10.67,7.54-16.27,12.69-7.18,6.59-12.44,13-16.24,18.36-1.71,2.41-3.46,5.94-2.91,10.26.13,1.06.4,2.03.72,2.88.58,1.56,2.68,3.37,4.47,3.83.96.24,2.07.44,3.32.52.67.04,1.3.05,1.91.02,1.05-.04,3.54-.49,5.39-1.25,1.65-.68,3.41-1.58,4.79-2.45,1.53-.96,3.14-2.07,4.75-3.34,2.04-1.6,3.78-3.21,5.25-4.73,1.93-2,3.22-1.68,3.19.87-.06,4.73,0,8.87.09,12.3.04,1.7.33,10.01,1.39,17.03.48,3.16,1.37,7.01,3.05,11.25.94,2.37,2,4.52,3.07,6.44.64,1.14,1.6,2.47,2.69,3.64,1.71,1.83,4.57,3.07,5.83,3.26.71.11,1.48.16,2.29.12.58-.03,1.12-.1,1.63-.19.89-.17,2.54-.82,3.47-1.67.52-.48,1.05-1.05,1.55-1.66,1.15-1.42,2.48-3.97,3.22-5.56.85-1.83,1.65-3.83,2.35-5.97,1.22-3.71,1.91-7.16,2.28-10.2.31-2.54,1.36-4.62,2.6-4.63s2.23,2.07,2.49,4.62c.3,3.03.91,6.47,2.07,10.2.66,2.14,1.43,4.12,2.24,5.95.71,1.6,2.02,4.15,3.09,5.61,1.08,1.47,2.33,2.76,3.4,3.19.91.37,2.03.64,3.34.65,3.7.02,5.88-2.12,6.15-2.4,2.33-2.19,5.2-5.37,7.59-9.58,3.05-5.38,4.08-10.28,4.44-13.57.28-4.51.43-9.23.42-14.14-.03-6.79-.41-11.82-.58-14.96-.86-15.94-.59-16.05-1.01-21.44Z"/>
              <path class="cls-54" d="M823.25,630.83c-.32-4.04-.86-9.83-1.87-16.85-1.67-.22-4.2-.5-7.28-.62-12.8-.47-14.99,2.68-24.94,2.62-9.33-.06-17.32-1.25-23.56-2.62-2.99-.66-7.41-.11-9.82,1.49-5.08,3.35-10.67,7.54-16.27,12.69-7.18,6.59-12.44,13-16.24,18.36-1.71,2.41-3.46,5.94-2.91,10.26.13,1.06.4,2.03.72,2.88.58,1.56,2.68,3.37,4.47,3.83.96.24,2.07.44,3.32.52.67.04,1.3.05,1.91.02,1.05-.04,3.54-.49,5.39-1.25,1.65-.68,3.41-1.58,4.79-2.45,1.53-.96,3.14-2.07,4.75-3.34,2.04-1.6,3.78-3.21,5.25-4.73,1.93-2,3.22-1.68,3.19.87-.06,4.73,0,8.87.09,12.3.04,1.7.33,10.01,1.39,17.03.48,3.16,1.37,7.01,3.05,11.25.94,2.37,2,4.52,3.07,6.44.64,1.14,1.6,2.47,2.69,3.64,1.71,1.83,4.57,3.07,5.83,3.26.71.11,1.48.16,2.29.12.58-.03,1.12-.1,1.63-.19.89-.17,2.54-.82,3.47-1.67.52-.48,1.05-1.05,1.55-1.66,1.15-1.42,2.48-3.97,3.22-5.56.85-1.83,1.65-3.83,2.35-5.97,1.22-3.71,1.91-7.16,2.28-10.2.31-2.54,1.36-4.62,2.6-4.63s2.23,2.07,2.49,4.62c.3,3.03.91,6.47,2.07,10.2.66,2.14,1.43,4.12,2.24,5.95.71,1.6,2.02,4.15,3.09,5.61,1.08,1.47,2.33,2.76,3.4,3.19.91.37,2.03.64,3.34.65,3.7.02,5.88-2.12,6.15-2.4,2.33-2.19,5.2-5.37,7.59-9.58,3.05-5.38,4.08-10.28,4.44-13.57.28-4.51.43-9.23.42-14.14-.03-6.79-.41-11.82-.58-14.96-.86-15.94-.59-16.05-1.01-21.44Z"/>
            </g>
            <g id="Chest">
              <path class="cls-35" d="M765.4,619.33c-.62,1.54-1.2,3.23-1.7,5.08-.69,2.6-1.08,5.01-1.28,7.14-.16,1.73.14,4.52.69,6.18,1.33,4.04,3.97,9.89,9.31,15.42,4.69,4.86,9.74,7.7,13.45,9.32,1.64.72,4.36.63,5.95-.2,3.28-1.7,7.29-4.29,11.12-8.19,6.18-6.31,9.02-13.15,10.37-17.74.49-1.67.7-4.47.46-6.19-.08-.59-.18-1.2-.29-1.83-.18-1.01-.67-3.2-1.18-4.86-.78-2.55-1.72-4.8-2.69-6.74-.78-1.57-2.95-2.51-4.73-2.22-4.96.79-10.86,1.36-17.51,1.26-4.67-.07-8.95-.45-12.78-1-1.78-.25-4.54-.76-5.93-.13s-2.62,3.07-3.28,4.69Z"/>
              <path class="cls-53" d="M765.4,619.33c-.62,1.54-1.2,3.23-1.7,5.08-.69,2.6-1.08,5.01-1.28,7.14-.16,1.73.14,4.52.69,6.18,1.33,4.04,3.97,9.89,9.31,15.42,4.69,4.86,9.74,7.7,13.45,9.32,1.64.72,4.36.63,5.95-.2,3.28-1.7,7.29-4.29,11.12-8.19,6.18-6.31,9.02-13.15,10.37-17.74.49-1.67.7-4.47.46-6.19-.08-.59-.18-1.2-.29-1.83-.18-1.01-.67-3.2-1.18-4.86-.78-2.55-1.72-4.8-2.69-6.74-.78-1.57-2.95-2.51-4.73-2.22-4.96.79-10.86,1.36-17.51,1.26-4.67-.07-8.95-.45-12.78-1-1.78-.25-4.54-.76-5.93-.13s-2.62,3.07-3.28,4.69Z"/>
            </g>
            <g>
              <path class="cls-28" d="M821.37,613.97c-.07,0-.14,0-.2,0h0c2.3.91,3.89,2.01,4.88,2.8,3.81,3.04,5.51,6.91,7.96,12.64,1.2,2.81,1.75,4.22,1.95,5.39.95,5.51-2.61,10.37-4.49,13.06-2.79,3.98-5.91,6.1-9.45,8.5-2.94,2-7.35,4.58-13.23,6.61-7.23,2.84-14.02,1.05-16.06-2.83-2.21-4.19,1.57-9.92,1.89-10.39,2.57-3.8,6.53-5.73,10.39-7.56,5.03-2.39,6.87-2.05,8.4-4.35,1.67-2.5,1.29-5.57.94-8.43-.47-3.85-1.85-6.75-2.81-8.43"/>
              <path class="cls-31" d="M821.38,614.01l-.2.07.03-.18c1.46.26,2.75.99,3.95,1.79,3.7,2.4,6.05,6.35,7.77,10.27,2.55,5.79,5.28,10.32,2.24,16.63-2.47,5.24-6.35,9.86-11.2,13.03-4.65,3.37-9.84,6.09-15.28,7.96-4.07,1.53-8.89,2-12.94.06-6.62-3.04-4.36-11.09-.58-15.55,2.89-3.38,7.04-5.26,10.96-7.06,2.38-1.24,5.58-1.36,6.97-3.88.65-1.12.88-2.45.92-3.81.18-4.18-.77-8.44-2.74-12.17,0,0,.56-.32.56-.32,1.56,2.46,2.5,5.28,2.96,8.16.48,2.89,1.02,6.06-.57,8.78-1.47,2.83-5.03,3.14-7.6,4.39-2.57,1.16-5.19,2.36-7.47,3.94-4.05,2.69-8.18,9.13-5.83,13.94,6.5,9.09,23.21-.34,30.1-5.2,4.78-3.09,8.51-7.5,10.96-12.6,1.16-2.53,1.7-5.4,1.02-8.07-.37-1.33-.95-2.65-1.49-3.96-1.68-3.87-3.21-8-6.01-11.17-1.95-2.36-4.7-3.64-7.23-5.27,0,0,.49.12.49.12,0,0,.21.05.21.05v.07h0Z"/>
            </g>
            <g id="Hands">
              <g>
                <path class="cls-31" d="M739.92,646.99c-.72-1.39-1.41-2.65-2.66-4.13-1.38-1.63-4.78-5.63-7.84-4.87-1.53.38-2.43,1.89-4.22,4.96-1.15,1.97-1.17,2.76-2.55,4.51-.66.84-1.08,1.2-1.41,2.09-.28.75-.23,1.17-.66,3.13-.16.71-.25.94-.28,1.21-.33,2.5.33,4.6.91,5.93.26.49,1.32,2.37,3.96,3.44,1.05.42,2.08.61,2.98.66,1.71.1,4.43-.41,6.05-.78.89-.21,1.85-.48,2.86-.85,1.12-.41,2.1-.87,2.95-1.33,1.55-.84,2.74-3.09,2.59-4.8-.21-2.48-.87-5.69-2.67-9.15Z"/>
                <path class="cls-59" d="M739.92,646.99c-.72-1.39-1.41-2.65-2.66-4.13-1.38-1.63-4.78-5.63-7.84-4.87-1.53.38-2.43,1.89-4.22,4.96-1.15,1.97-1.17,2.76-2.55,4.51-.66.84-1.08,1.2-1.41,2.09-.28.75-.23,1.17-.66,3.13-.16.71-.25.94-.28,1.21-.33,2.5.33,4.6.91,5.93.26.49,1.32,2.37,3.96,3.44,1.05.42,2.08.61,2.98.66,1.71.1,4.43-.41,6.05-.78.89-.21,1.85-.48,2.86-.85,1.12-.41,2.1-.87,2.95-1.33,1.55-.84,2.74-3.09,2.59-4.8-.21-2.48-.87-5.69-2.67-9.15Z"/>
              </g>
              <g>
                <path class="cls-31" d="M810.17,658.83c.12,1.45-.89,3.38-2.22,4.1-.61.34-1.31.66-2.1.96-6.07,1.4-11.36-.38-13.12-3.74-1.49-2.81-.26-6.32.8-8.46.08-.13.18-.26.27-.39.79-1.11,1.69-2.36,2.72-3.73,1.34-1.23,3.07-2.32,5.43-3.66.29.11.55.28.8.5,1.69,1.54,3.63,3.74,5.13,6.61,1.54,2.96,2.11,5.7,2.28,7.82Z"/>
                <path class="cls-60" d="M810.17,658.83c.12,1.45-.89,3.38-2.22,4.1-.61.34-1.31.66-2.1.96-6.07,1.4-11.36-.38-13.12-3.74-1.49-2.81-.26-6.32.8-8.46.08-.13.18-.26.27-.39.79-1.11,1.69-2.36,2.72-3.73,1.34-1.23,3.07-2.32,5.43-3.66.29.11.55.28.8.5,1.69,1.54,3.63,3.74,5.13,6.61,1.54,2.96,2.11,5.7,2.28,7.82Z"/>
              </g>
            </g>
            <g id="Feet">
              <path class="cls-4" d="M764.47,698.8c2.13-2.2,5.87-5.06,11.37-5.74,1.72-.21,3.31-.18,4.69-.02,2.05.23,3.5,2.12,3.02,3.78-.28.96-.68,2.01-1.23,3.12-.51,1.02-1.09,1.92-1.67,2.72-1.05,1.44-3.02,3.18-4.35,3.72-.71.29-1.56.54-2.54.69-2.5.38-4.48-.14-5.3-.4-.69-.22-1.57-.57-2.48-1.11-.33-.2-.63-.4-.9-.59-.48-.35-1.24-1.32-1.75-2.13s-.14-2.7,1.15-4.03Z"/>
              <path class="cls-4" d="M803.27,693.06c-1.72-.21-3.31-.18-4.69-.02-2.05.23-3.5,2.12-3.02,3.78.28.96.68,2.01,1.23,3.12.51,1.02,1.09,1.92,1.67,2.72.5.69,1.22,1.45,1.97,2.11,1.2,1.05,2.93,1.84,3.64,2.03.4.11.83.2,1.29.27,2.5.38,4.48-.14,5.3-.4.69-.22,1.57-.57,2.48-1.11.16-.09.31-.19.46-.28.25-.16.92-.71,1.39-1.31.29-.36.57-.76.8-1.13.51-.81.14-2.7-1.15-4.03-2.13-2.2-5.87-5.06-11.37-5.74Z"/>
            </g>
          </g>
          <g id="Ears">
            <g id="Base_Shape" data-name="Base Shape">
              <path class="cls-31" d="M834.43,559.54c1.47-2.63,3.59-7.19,4.31-13.29.85-7.25-.73-12.88-2.29-18.25-1.32-4.55-3.92-11.65-9.18-19.19-2.58.92-5.7,2.39-8.92,4.77-7.69,5.69-11.59,13.37-13.37,17.58,3.77,1.24,9.33,3.64,15.05,8.5,8.21,6.96,12.45,15.33,14.39,19.88Z"/>
              <path class="cls-57" d="M834.43,559.54c1.47-2.63,3.59-7.19,4.31-13.29.85-7.25-.73-12.88-2.29-18.25-1.32-4.55-3.92-11.65-9.18-19.19-2.58.92-5.7,2.39-8.92,4.77-7.69,5.69-11.59,13.37-13.37,17.58,3.77,1.24,9.33,3.64,15.05,8.5,8.21,6.96,12.45,15.33,14.39,19.88Z"/>
            </g>
            <g id="Skin">
              <path class="cls-28" d="M834.71,556.51c.48-.96,1.11-2.38,1.68-4.18,3.52-11.11-.14-21.95-1.83-26.94-1.26-3.74-3.53-9.17-7.64-14.91-2.3.86-4.99,2.15-7.77,4.14-7.11,5.09-10.95,11.95-12.81,15.98,3.84,1.41,9.47,4.06,15.29,9.13,6.81,5.93,10.88,12.55,13.08,16.79Z"/>
              <path class="cls-57" d="M834.71,556.51c.48-.96,1.11-2.38,1.68-4.18,3.52-11.11-.14-21.95-1.83-26.94-1.26-3.74-3.53-9.17-7.64-14.91-2.3.86-4.99,2.15-7.77,4.14-7.11,5.09-10.95,11.95-12.81,15.98,3.84,1.41,9.47,4.06,15.29,9.13,6.81,5.93,10.88,12.55,13.08,16.79Z"/>
            </g>
            <g>
              <path class="cls-31" d="M820.82,527.38c-1.14-1.05-2.83-2.37-5.08-3.4-1.78-.81-3.4-1.2-4.66-1.39,1.72-2.31,4.35-5.31,8.07-7.97,2.88-2.06,5.6-3.33,7.77-4.14-2.03,5.63-4.07,11.27-6.1,16.9Z"/>
              <path class="cls-57" d="M820.82,527.38c-1.14-1.05-2.83-2.37-5.08-3.4-1.78-.81-3.4-1.2-4.66-1.39,1.72-2.31,4.35-5.31,8.07-7.97,2.88-2.06,5.6-3.33,7.77-4.14-2.03,5.63-4.07,11.27-6.1,16.9Z"/>
            </g>
            <g id="Light_Shade" data-name="Light Shade">
              <path class="cls-33" d="M826.92,510.47c-2.01,3.8-4.17,8.58-6,14.32-1.39,4.38-2.32,8.45-2.94,12.04,2.7,2.08,5.91,4.94,9.18,8.77,3.33,3.91,5.78,7.74,7.54,10.92,1.21-2.64,2.84-7.07,3.13-12.82.09-1.84.12-5.28-1.06-10.64-2.04-9.26-6.07-16.93-9.86-22.58Z"/>
              <path class="cls-57" d="M826.92,510.47c-2.01,3.8-4.17,8.58-6,14.32-1.39,4.38-2.32,8.45-2.94,12.04,2.7,2.08,5.91,4.94,9.18,8.77,3.33,3.91,5.78,7.74,7.54,10.92,1.21-2.64,2.84-7.07,3.13-12.82.09-1.84.12-5.28-1.06-10.64-2.04-9.26-6.07-16.93-9.86-22.58Z"/>
            </g>
          </g>
          <g id="Ears-2" data-name="Ears">
            <g id="Base_Shape-2" data-name="Base Shape">
              <path class="cls-31" d="M744.36,559.54c-1.47-2.63-3.59-7.19-4.31-13.29-.85-7.25.73-12.88,2.29-18.25,1.32-4.55,3.92-11.65,9.18-19.19,2.58.92,5.7,2.39,8.92,4.77,7.69,5.69,11.59,13.37,13.37,17.58-3.77,1.24-9.33,3.64-15.05,8.5-8.21,6.96-12.45,15.33-14.39,19.88Z"/>
              <path class="cls-57" d="M744.36,559.54c-1.47-2.63-3.59-7.19-4.31-13.29-.85-7.25.73-12.88,2.29-18.25,1.32-4.55,3.92-11.65,9.18-19.19,2.58.92,5.7,2.39,8.92,4.77,7.69,5.69,11.59,13.37,13.37,17.58-3.77,1.24-9.33,3.64-15.05,8.5-8.21,6.96-12.45,15.33-14.39,19.88Z"/>
            </g>
            <g id="Skin-2" data-name="Skin">
              <path class="cls-28" d="M744.08,556.51c-.48-.96-1.11-2.38-1.68-4.18-3.52-11.11.14-21.95,1.83-26.94,1.26-3.74,3.53-9.17,7.64-14.91,2.3.86,4.99,2.15,7.77,4.14,7.11,5.09,10.95,11.95,12.81,15.98-3.84,1.41-9.47,4.06-15.29,9.13-6.81,5.93-10.88,12.55-13.08,16.79Z"/>
              <path class="cls-57" d="M744.08,556.51c-.48-.96-1.11-2.38-1.68-4.18-3.52-11.11.14-21.95,1.83-26.94,1.26-3.74,3.53-9.17,7.64-14.91,2.3.86,4.99,2.15,7.77,4.14,7.11,5.09,10.95,11.95,12.81,15.98-3.84,1.41-9.47,4.06-15.29,9.13-6.81,5.93-10.88,12.55-13.08,16.79Z"/>
            </g>
            <g>
              <path class="cls-31" d="M757.97,527.38c1.14-1.05,2.83-2.37,5.08-3.4,1.78-.81,3.4-1.2,4.66-1.39-1.72-2.31-4.35-5.31-8.07-7.97-2.88-2.06-5.6-3.33-7.77-4.14,2.03,5.63,4.07,11.27,6.1,16.9Z"/>
              <path class="cls-57" d="M757.97,527.38c1.14-1.05,2.83-2.37,5.08-3.4,1.78-.81,3.4-1.2,4.66-1.39-1.72-2.31-4.35-5.31-8.07-7.97-2.88-2.06-5.6-3.33-7.77-4.14,2.03,5.63,4.07,11.27,6.1,16.9Z"/>
            </g>
            <g id="Light_Shade-2" data-name="Light Shade">
              <path class="cls-33" d="M751.86,510.47c2.01,3.8,4.17,8.58,6,14.32,1.39,4.38,2.32,8.45,2.94,12.04-2.7,2.08-5.91,4.94-9.18,8.77-3.33,3.91-5.78,7.74-7.54,10.92-1.21-2.64-2.84-7.07-3.13-12.82-.09-1.84-.12-5.28,1.06-10.64,2.04-9.26,6.07-16.93,9.86-22.58Z"/>
              <path class="cls-57" d="M751.86,510.47c2.01,3.8,4.17,8.58,6,14.32,1.39,4.38,2.32,8.45,2.94,12.04-2.7,2.08-5.91,4.94-9.18,8.77-3.33,3.91-5.78,7.74-7.54,10.92-1.21-2.64-2.84-7.07-3.13-12.82-.09-1.84-.12-5.28,1.06-10.64,2.04-9.26,6.07-16.93,9.86-22.58Z"/>
            </g>
          </g>
          <g id="Face">
            <g id="Base_Shape-3" data-name="Base Shape">
              <path class="cls-31" d="M731.31,589.24c1.4,2.69,3.7,6.54,7.29,10.48,17.31,18.97,44.71,18.23,53.39,18,7.21-.2,21.85-.77,37.41-9.91,10-5.87,16.53-13.03,20.32-17.9-1.42-.95-3.49-2.58-5.16-5.16-2.71-4.17-2.49-7.91-3.44-13.85-.26-1.62-1.34-8.03-3.69-13.83-3.54-8.72-9.21-14.18-11.69-16.53-2.42-2.29-7.4-6.91-15.36-10.02-7.3-2.85-13.39-2.99-18.6-3.1-4.84-.11-10.26-.22-16.96,1.76-10.73,3.18-17.39,9.59-20.26,12.41-2.37,2.34-7.58,7.56-11.01,15.86-2.39,5.77-3.34,11.58-3.34,11.58-1.14,7-.16,10.42-2.65,14.55-1.8,2.99-4.43,4.71-6.27,5.66Z"/>
              <path class="cls-57" d="M731.31,589.24c1.4,2.69,3.7,6.54,7.29,10.48,17.31,18.97,44.71,18.23,53.39,18,7.21-.2,21.85-.77,37.41-9.91,10-5.87,16.53-13.03,20.32-17.9-1.42-.95-3.49-2.58-5.16-5.16-2.71-4.17-2.49-7.91-3.44-13.85-.26-1.62-1.34-8.03-3.69-13.83-3.54-8.72-9.21-14.18-11.69-16.53-2.42-2.29-7.4-6.91-15.36-10.02-7.3-2.85-13.39-2.99-18.6-3.1-4.84-.11-10.26-.22-16.96,1.76-10.73,3.18-17.39,9.59-20.26,12.41-2.37,2.34-7.58,7.56-11.01,15.86-2.39,5.77-3.34,11.58-3.34,11.58-1.14,7-.16,10.42-2.65,14.55-1.8,2.99-4.43,4.71-6.27,5.66Z"/>
            </g>
            <g id="SKin">
              <path class="cls-28" d="M736.58,587.31c.82-.52,1.99-1.41,2.85-2.86,1.42-2.38,1.04-4.61,1.17-8.52.06-1.8.25-4.42.83-7.62.99-4.62,3.91-15.28,13.19-24.93,7.89-8.21,16.57-11.73,21.04-13.19,3.86-.92,8.99-1.74,15.03-1.67,5.36.07,9.95.82,13.52,1.67,4.19,1.17,11.68,3.85,19.03,10.18,7.83,6.75,11.65,14.31,13.36,18.38,2.11,5.87,2.96,10.79,3.34,14.35.56,5.23.28,9.38,3.19,13.16,1.54,2,3.43,3.18,4.82,3.87-37.13-.94-74.25-1.88-111.38-2.82Z"/>
              <path class="cls-57" d="M736.58,587.31c.82-.52,1.99-1.41,2.85-2.86,1.42-2.38,1.04-4.61,1.17-8.52.06-1.8.25-4.42.83-7.62.99-4.62,3.91-15.28,13.19-24.93,7.89-8.21,16.57-11.73,21.04-13.19,3.86-.92,8.99-1.74,15.03-1.67,5.36.07,9.95.82,13.52,1.67,4.19,1.17,11.68,3.85,19.03,10.18,7.83,6.75,11.65,14.31,13.36,18.38,2.11,5.87,2.96,10.79,3.34,14.35.56,5.23.28,9.38,3.19,13.16,1.54,2,3.43,3.18,4.82,3.87-37.13-.94-74.25-1.88-111.38-2.82Z"/>
            </g>
            <g id="Cheek">
              <path class="cls-35" d="M733.42,589.96c1.43-1.42,7.58-7.19,17.2-7.51,11.98-.4,19.45,7.99,20.43,9.12,1.03-1.23,7.55-8.71,18.49-9.1,12.51-.45,20.07,8.76,20.85,9.75.91-1.2,6.92-8.91,17.7-9.77,11.49-.92,18.93,6.68,19.87,7.68-3.36,4.31-9.47,11.03-19.03,16.53-9.65,5.55-18.61,7.45-24.04,8.18-3.94.67-9.05,1.29-15.03,1.34-7.5.06-13.11-.89-14.36-1-6-.52-19.65-2.58-31.72-13.02-4.78-4.14-8.09-8.53-10.35-12.19Z"/>
              <path class="cls-57" d="M733.42,589.96c1.43-1.42,7.58-7.19,17.2-7.51,11.98-.4,19.45,7.99,20.43,9.12,1.03-1.23,7.55-8.71,18.49-9.1,12.51-.45,20.07,8.76,20.85,9.75.91-1.2,6.92-8.91,17.7-9.77,11.49-.92,18.93,6.68,19.87,7.68-3.36,4.31-9.47,11.03-19.03,16.53-9.65,5.55-18.61,7.45-24.04,8.18-3.94.67-9.05,1.29-15.03,1.34-7.5.06-13.11-.89-14.36-1-6-.52-19.65-2.58-31.72-13.02-4.78-4.14-8.09-8.53-10.35-12.19Z"/>
            </g>
            <g id="Eyes">
              <g>
                <ellipse class="cls-31" cx="769.94" cy="578.05" rx="13.23" ry="15.3"/>
                <ellipse class="cls-57" cx="769.94" cy="578.05" rx="13.23" ry="15.3"/>
              </g>
              <g>
                <ellipse class="cls-43" cx="768.2" cy="582.69" rx="6.3" ry="7.29"/>
                <ellipse class="cls-57" cx="768.2" cy="582.69" rx="6.3" ry="7.29"/>
              </g>
            </g>
            <g id="Eyes-2" data-name="Eyes">
              <g>
                <ellipse class="cls-31" cx="813.12" cy="578.05" rx="13.23" ry="15.3"/>
                <ellipse class="cls-57" cx="813.12" cy="578.05" rx="13.23" ry="15.3"/>
              </g>
              <g>
                <ellipse class="cls-43" cx="811.37" cy="582.69" rx="6.3" ry="7.29"/>
                <ellipse class="cls-57" cx="811.37" cy="582.69" rx="6.3" ry="7.29"/>
              </g>
            </g>
            <g id="Eyebrows">
              <g>
                <path class="cls-16" d="M756.27,558.85c2.1-3.06,4.1-4.49,5.59-5.22,1.62-.8,4.37-1.63,5.95-2.11,2.17-.66,2.98-.8,3.29-1.28.53-.85-.93-2.03-2.65-2.38-.34-.07-1.88-.34-4.59.53-3.76,1.21-8.61,4.26-10.4,7.91-.69,1.41-1.3,3.66-.2,3.92.93.21,2.64-1.09,3.01-1.38Z"/>
                <path class="cls-57" d="M756.27,558.85c2.1-3.06,4.1-4.49,5.59-5.22,1.62-.8,4.37-1.63,5.95-2.11,2.17-.66,2.98-.8,3.29-1.28.53-.85-.93-2.03-2.65-2.38-.34-.07-1.88-.34-4.59.53-3.76,1.21-8.61,4.26-10.4,7.91-.69,1.41-1.3,3.66-.2,3.92.93.21,2.64-1.09,3.01-1.38Z"/>
              </g>
              <g>
                <path class="cls-16" d="M822.99,558.85c-2.1-3.06-4.1-4.49-5.59-5.22-1.62-.8-4.37-1.63-5.95-2.11-2.17-.66-2.98-.8-3.29-1.28-.53-.85.93-2.03,2.65-2.38.34-.07,1.88-.34,4.59.53,3.76,1.21,8.61,4.26,10.4,7.91.69,1.41,1.3,3.66.2,3.92-.93.21-2.64-1.09-3.01-1.38Z"/>
                <path class="cls-57" d="M822.99,558.85c-2.1-3.06-4.1-4.49-5.59-5.22-1.62-.8-4.37-1.63-5.95-2.11-2.17-.66-2.98-.8-3.29-1.28-.53-.85.93-2.03,2.65-2.38.34-.07,1.88-.34,4.59.53,3.76,1.21,8.61,4.26,10.4,7.91.69,1.41,1.3,3.66.2,3.92-.93.21-2.64-1.09-3.01-1.38Z"/>
              </g>
            </g>
            <g id="Blush">
              <g>
                <ellipse class="cls-48" cx="747.95" cy="591.58" rx="3.73" ry="1.67"/>
                <ellipse class="cls-57" cx="747.95" cy="591.58" rx="3.73" ry="1.67"/>
              </g>
              <g>
                <ellipse class="cls-48" cx="832.54" cy="591.58" rx="3.73" ry="1.67"/>
                <ellipse class="cls-57" cx="832.54" cy="591.58" rx="3.73" ry="1.67"/>
              </g>
            </g>
            <g id="Nose">
              <ellipse class="cls-1" cx="790" cy="591" rx="5.36" ry="3.99"/>
              <ellipse class="cls-12" cx="787.96" cy="589.04" rx="1.53" ry="1.14"/>
            </g>
            <path class="cls-5" d="M796.5,598.64l-.03.56c-.14,3-3.23,5.31-6.85,5.14-1.81-.09-3.43-.78-4.58-1.82-1.15-1.04-1.82-2.44-1.75-3.94l.03-.56c.02-.36.08-.71.18-1.05.1.02.24.04.42.06.91.1,2.75.12,4.28-.99.88-.64,1.32-1.4,1.54-2.02.2-.56.22-1.01.23-1.15,0,.12,0,.57.19,1.16.22.71.71,1.62,1.75,2.39,1.54,1.12,3.3,1.21,4.1,1.18.19,0,.33-.02.39-.03,0,0,.02,0,.03,0,.07.35.1.71.08,1.08Z"/>
            <path class="cls-16" d="M790.22,594.5c.71,3.34,4.39,4.41,6.73,2.19.67-.62,1.15-1.46,1.41-2.45.19,1.01-.09,2.15-.77,3.02-2.43,3.3-8.06,1.55-7.37-2.76h0Z"/>
            <path class="cls-16" d="M790.22,594.5c.44,4.57-5.6,5.53-7.66,1.83-.63-1.05-.79-2.34-.45-3.43.37,4.68,6.6,6.75,8.11,1.6h0Z"/>
            <path class="cls-29" d="M793.93,601.61c-.08.67-1,1.04-1.58,1.28-1.01.42-1.98.41-2.47.37-.42,0-.78-.04-1.04-.07-.5-.06-.79-.13-.98-.18-.24-.07-2.25-.66-2.21-1.79.03-.89,1.3-1.61,2.37-1.57.75.02,1.41.42,1.9.93.39-.4.98-.8,1.8-.76,1.25.05,2.3,1.06,2.21,1.79Z"/>
          </g>
        </g>
      </g>
      <g id="Tree">
        <g>
          <path class="cls-19" d="M878.81,363.51c-.86-1.07-1.85-2.07-3-2.83-.52-.34-1.07-.63-1.66-.84-2.11,1.69-3.87,4.11-5.46,6.22-4,5.32-7.47,11.16-10.65,17-1.13,2.07-2.19,4.19-3.12,6.36-.99,1.9-1.92,3.84-2.79,5.79-.69-2.36-.98-4.86-1.36-7.27-.59-3.68-1.32-7.35-1.96-11.03-.68-3.85-1.52-7.64-2.39-11.44-.47-2.08-.86-5.17-3.45-5.57-2.12-.32-4.65.95-4.82,3.24-.09,1.21.39,2.47.71,3.61.54,1.93,1.11,3.85,1.67,5.77,2.07,7.16,3.68,14.26,4.39,21.69.33,3.47.58,6.97.48,10.46-.09,3.2-.39,6.64-1.55,9.68-1.5,3.34-3.06,6.66-4.71,9.94-4.35,8.66-9.03,17.14-14.97,24.82-5.77,7.46-12.53,14.15-20.27,19.56-15.12,10.55-33.21,15.54-51.47,16.54-8.11.44-16.26-.43-24.35.43-6.62.71-14.53,2.69-18.46,8.58-.13.2-.25.41-.37.61.16.5.33,1,.51,1.49,1.44,3.92,3.47,7.62,5.8,11.08,2.45,3.64,5.26,7.05,8.3,10.22,1.89,1.96,3.87,3.84,5.93,5.61.17-.04.34-.07.5-.11,2.84-.68,5.55-1.81,8.23-2.93,3.68-1.53,7.39-2.96,11.05-4.53,4.64-2,9.25-4.07,14-5.77,4.68-1.68,9.49-2.96,14.24-4.43,8.28-2.56,16.1-6.18,23.55-10.59,13.97-8.27,26.42-19.21,36.41-32,5.25-6.72,9.85-13.97,13.61-21.63.83-2.09,1.61-4.2,2.34-6.32,1.63-4.72,3-9.53,4.12-14.39,1.08-4.68,1.89-9.42,2.82-14.13,1.18-5.93,2.56-12.28,4.75-18.11,2.42-6.44,6.25-11.6,10.05-17.27,1.44-2.16,2.85-4.41,3.89-6.81-.17-.24-.35-.47-.53-.7Z"/>
          <path class="cls-50" d="M761.47,493.33c-2.69.12-5.39.15-8.08.21-2.69.06-5.38.13-8.06.32-2.66.19-5.32.49-7.93,1.01-.73.14-1.45.31-2.16.48.78.09,1.56.18,2.35.27,2.83.3,5.66.56,8.51.7,2.86.14,5.74.17,8.6,0,2.77-.17,5.54-.52,8.24-1.19,2.32-.58,4.59-1.39,6.71-2.5-.06,0-.11.02-.17.02-2.65.37-5.33.57-8,.68Z"/>
          <path class="cls-50" d="M857.05,384.91c-.1.27-.2.54-.29.82-1.06,3.08-1.83,6.31-1.82,9.58.04-.12.08-.25.13-.37,1.07-3.04,2.32-6.02,3.71-8.92,1.37-2.85,2.87-5.64,4.46-8.37,1.58-2.7,3.24-5.35,4.95-7.97,1.73-2.65,3.51-5.28,5.29-7.9.39-.58.78-1.15,1.17-1.73-.16-.07-.33-.14-.5-.2-2.11,1.69-3.87,4.11-5.46,6.22-4,5.32-7.47,11.16-10.65,17-.33.61-.66,1.23-.98,1.85Z"/>
          <path class="cls-50" d="M841.86,437.67c.33-.52.66-1.04.98-1.57,1.25-2.07,2.39-4.23,3.25-6.5.63-1.66,1.12-3.45,1.17-5.24-.47.93-.91,1.87-1.32,2.83-1.47,3.45-2.6,7.03-4.07,10.48Z"/>
          <path class="cls-50" d="M835.5,439.6c-.69,1.16-1.37,2.33-2.04,3.5-.73,1.29-1.43,2.59-2.15,3.89-.85,1.54-1.72,3.07-2.59,4.59.28-.28.55-.56.82-.84,1.75-1.86,3.33-3.87,4.76-5.97,1.46-2.15,2.76-4.4,3.92-6.73,1.12-2.27,2.11-4.61,2.94-7,.55-1.59,1.03-3.2,1.44-4.84-.87,2.16-1.9,4.26-3,6.3-1.3,2.4-2.7,4.75-4.09,7.1Z"/>
          <path class="cls-50" d="M806.96,475.97c-1.05.59-2.1,1.19-3.16,1.77-1.05.57-2.1,1.15-3.18,1.66-2.06.96-4.22,1.69-6.39,2.36-1.7.52-3.41,1-5.1,1.51,1.99-.08,3.97-.31,5.91-.7,2.38-.48,4.71-1.21,6.95-2.16,2.25-.96,4.4-2.15,6.4-3.55,1.84-1.29,3.56-2.75,5.13-4.35-.04.02-.07.03-.11.05-2.2,1.04-4.32,2.23-6.44,3.42Z"/>
          <path class="cls-50" d="M841.92,363.36c1.11,2.96,1.85,6.05,2.53,9.13.65,2.91,1.2,5.83,1.76,8.75.17.89.34,1.78.54,2.66.6,2.55.99,5.16,1.33,7.75.67,5.23,1.06,10.5,2.02,15.7.79-1.51,1.14-3.21,1.33-4.9.19-1.65.23-3.32.32-4.98.05-.94.12-1.88.22-2.82-.58-2.2-.86-4.5-1.21-6.73-.59-3.68-1.32-7.35-1.96-11.03-.68-3.85-1.52-7.64-2.39-11.44-.47-2.08-.86-5.17-3.45-5.57-.83-.13-1.73,0-2.52.33.62.97,1.08,2.06,1.48,3.13Z"/>
          <path class="cls-50" d="M860.54,390.95c-3.71,8.06-5.42,16.89-7.59,25.45-2.18,8.59-4.76,17.01-8.54,25.05-7.41,15.77-18.98,29.89-33.7,39.35-13.91,8.94-29.97,13.34-45.65,18.04-14.59,4.37-29.25,9.32-41.62,18.36.13.14.26.28.39.42,1.89,1.96,3.87,3.84,5.93,5.61.17-.04.34-.07.5-.11,2.84-.68,5.55-1.81,8.23-2.93,3.68-1.53,7.39-2.96,11.05-4.53,4.64-2,9.25-4.07,14-5.77,4.68-1.68,9.49-2.96,14.24-4.43,8.28-2.56,16.1-6.18,23.55-10.59,13.97-8.27,26.42-19.21,36.41-32,5.25-6.72,9.85-13.97,13.61-21.63.83-2.09,1.61-4.2,2.34-6.32,1.63-4.72,3-9.53,4.12-14.39,1.08-4.68,1.89-9.42,2.82-14.13,1.18-5.93,2.56-12.28,4.75-18.11,2.42-6.44,6.25-11.6,10.05-17.27,1.44-2.16,2.85-4.41,3.89-6.81-.1-.14-.21-.28-.31-.41-6.94,8.54-13.86,17.11-18.49,27.16Z"/>
        </g>
        <g>
          <path class="cls-19" d="M548.06,344.68c.78-.97,1.67-1.87,2.71-2.56.47-.31.97-.57,1.5-.76,1.91,1.53,3.5,3.72,4.94,5.63,3.62,4.81,6.75,10.09,9.64,15.37,1.02,1.87,1.98,3.79,2.82,5.76.9,1.72,1.74,3.47,2.52,5.23.62-2.14.88-4.4,1.23-6.58.53-3.33,1.19-6.65,1.78-9.97.61-3.48,1.37-6.91,2.16-10.35.43-1.88.77-4.68,3.12-5.03,1.92-.29,4.21.86,4.36,2.93.08,1.1-.35,2.23-.64,3.27-.49,1.74-1,3.48-1.51,5.22-1.87,6.47-3.33,12.89-3.97,19.61-.3,3.14-.52,6.31-.43,9.46.08,2.89.36,6.01,1.4,8.76,1.36,3.02,2.77,6.02,4.26,8.99,3.93,7.83,8.17,15.5,13.54,22.45,5.22,6.75,11.33,12.8,18.33,17.69,13.67,9.54,30.03,14.05,46.55,14.96,7.34.4,14.7-.39,22.02.39,5.98.64,13.14,2.44,16.7,7.76.12.18.23.37.34.55-.15.45-.3.9-.46,1.35-1.3,3.55-3.14,6.89-5.24,10.02-2.22,3.3-4.76,6.38-7.51,9.24-1.71,1.78-3.5,3.47-5.37,5.08-.15-.03-.3-.07-.45-.1-2.57-.61-5.01-1.64-7.44-2.65-3.32-1.38-6.68-2.67-9.99-4.1-4.19-1.81-8.36-3.68-12.66-5.22-4.23-1.52-8.58-2.68-12.87-4-7.49-2.31-14.56-5.59-21.3-9.57-12.63-7.48-23.89-17.37-32.92-28.94-4.75-6.08-8.9-12.63-12.31-19.56-.75-1.89-1.46-3.79-2.12-5.71-1.47-4.27-2.71-8.62-3.73-13.02-.97-4.23-1.7-8.52-2.55-12.78-1.07-5.36-2.31-11.11-4.29-16.38-2.19-5.83-5.66-10.49-9.08-15.62-1.31-1.95-2.58-3.99-3.52-6.16.16-.21.32-.43.48-.64Z"/>
          <path class="cls-50" d="M654.16,462.07c2.44.11,4.87.14,7.31.19,2.43.05,4.86.12,7.29.29,2.41.17,4.81.44,7.17.91.66.13,1.31.28,1.96.44-.71.08-1.42.16-2.12.24-2.56.27-5.12.51-7.69.64-2.59.13-5.19.16-7.78,0-2.51-.15-5.01-.47-7.45-1.08-2.1-.52-4.15-1.25-6.07-2.26.05,0,.1.02.15.02,2.4.34,4.82.51,7.23.62Z"/>
          <path class="cls-50" d="M567.73,364.03c.09.25.18.49.27.74.96,2.78,1.65,5.71,1.65,8.66-.04-.11-.08-.22-.12-.34-.97-2.75-2.1-5.44-3.36-8.07-1.24-2.58-2.59-5.1-4.04-7.57-1.42-2.44-2.93-4.84-4.47-7.2-1.57-2.4-3.17-4.77-4.78-7.14-.35-.52-.71-1.04-1.06-1.56.15-.07.3-.13.45-.18,1.91,1.53,3.5,3.72,4.94,5.63,3.62,4.81,6.75,10.09,9.64,15.37.3.55.6,1.11.89,1.67Z"/>
          <path class="cls-50" d="M581.47,411.74c-.3-.47-.6-.94-.88-1.42-1.13-1.88-2.16-3.82-2.94-5.87-.57-1.5-1.01-3.12-1.05-4.74.43.84.82,1.69,1.19,2.56,1.33,3.12,2.35,6.36,3.68,9.47Z"/>
          <path class="cls-50" d="M587.22,413.49c.62,1.05,1.24,2.1,1.85,3.16.66,1.16,1.29,2.35,1.94,3.52.77,1.39,1.55,2.77,2.34,4.15-.25-.25-.5-.5-.74-.76-1.58-1.68-3.01-3.5-4.3-5.4-1.32-1.94-2.5-3.98-3.54-6.09-1.02-2.05-1.91-4.17-2.66-6.33-.5-1.44-.93-2.9-1.3-4.37.79,1.95,1.71,3.85,2.71,5.7,1.17,2.17,2.44,4.29,3.7,6.42Z"/>
          <path class="cls-50" d="M613.03,446.37c.95.54,1.9,1.08,2.86,1.6.95.52,1.9,1.04,2.88,1.5,1.86.87,3.82,1.53,5.78,2.13,1.53.47,3.08.9,4.62,1.36-1.8-.07-3.59-.28-5.35-.64-2.15-.44-4.26-1.09-6.28-1.96-2.03-.87-3.98-1.95-5.79-3.21-1.67-1.16-3.22-2.48-4.64-3.93.03.02.07.03.1.04,1.99.94,3.91,2.01,5.82,3.1Z"/>
          <path class="cls-50" d="M581.42,344.54c-1,2.67-1.67,5.47-2.29,8.25-.58,2.63-1.08,5.27-1.59,7.92-.15.8-.3,1.61-.49,2.41-.54,2.31-.9,4.66-1.2,7.01-.61,4.73-.96,9.5-1.83,14.19-.71-1.37-1.03-2.91-1.21-4.43-.17-1.49-.21-3-.29-4.5-.04-.85-.11-1.7-.2-2.55.53-1.99.78-4.07,1.1-6.08.53-3.33,1.19-6.65,1.78-9.97.61-3.48,1.37-6.91,2.16-10.35.43-1.88.77-4.68,3.12-5.03.75-.12,1.56,0,2.28.3-.56.88-.97,1.86-1.34,2.83Z"/>
          <path class="cls-50" d="M564.58,369.5c3.36,7.29,4.9,15.28,6.87,23.01,1.97,7.77,4.3,15.38,7.72,22.65,6.7,14.26,17.16,27.03,30.47,35.59,12.57,8.08,27.1,12.07,41.28,16.32,13.2,3.96,26.45,8.43,37.63,16.6-.12.13-.24.25-.36.38-1.71,1.78-3.5,3.47-5.37,5.08-.15-.03-.3-.07-.45-.1-2.57-.61-5.01-1.64-7.44-2.65-3.32-1.38-6.68-2.67-9.99-4.1-4.19-1.81-8.36-3.68-12.66-5.22-4.23-1.52-8.58-2.68-12.87-4-7.49-2.31-14.56-5.59-21.3-9.57-12.63-7.48-23.89-17.37-32.92-28.94-4.75-6.08-8.9-12.63-12.31-19.56-.75-1.89-1.46-3.79-2.12-5.71-1.47-4.27-2.71-8.62-3.73-13.02-.97-4.23-1.7-8.52-2.55-12.78-1.07-5.36-2.31-11.11-4.29-16.38-2.19-5.83-5.66-10.49-9.08-15.62-1.31-1.95-2.58-3.99-3.52-6.16.09-.13.19-.25.28-.38,6.27,7.73,12.53,15.47,16.72,24.56Z"/>
        </g>
        <g>
          <g>
            <path class="cls-19" d="M802.44,706.27c-4.4-4.23-13.73-7.99-16.72-11.23-13.27-14.37-22.24-32.09-26.8-51.05-2.31-9.58-3.7-19.35-4.67-29.15-2.08-20.93-2.6-42.03-2.9-63.05-.41-29.41.29-57.81,6.2-86.8,6.16-30.2,16.23-60.37,30.36-87.8,1.4-2.71,3.02-5.17,4.59-7.77.91-1.5,2.6-4,1.31-5.71-1.28-1.69-3.73-1.7-5.64-1.51-2.74.29-5.4,1.14-8.02,1.97-3.08.97-6.1,1.62-9.36,1.71-2.28.06-4.56-.1-6.83-.34-.37-.04-.75.29-.87.61-7.27,18.97-8.57,40.52-19.71,57.93-10.07,15.72-21.01-3-24.32-13.17-7.82-24.03-14.8-49.46-19.21-74.36-.58-3.26-.68-6.6-1.12-9.88-.34-2.52-.58-6.37-2.58-8.24-1.76-1.63-4.06-1.07-5.99-.12-1.97.98-3.86,1.82-5.92,2.59-1.64.61-3.52,1.28-4.76,2.58-1.08,1.13-1.13,2.63-.87,4.09.34,1.95,1.16,3.79,1.85,5.63.92,2.46,1.53,5.07,2.17,7.61,3.61,14.31,5.57,29.12,8.82,43.61,1.93,8.61,3.79,17.28,4.65,26.08.67,6.91,1.77,13.33-.71,20.07-.57,1.54-1.33,3.11-2.69,4.04-7.67,5.23-21.58-12.03-25.65-16.88-3.35-4-22.42-37.41-25.92-35.7-2.11,1.04-3.57,3.87-4.71,5.78-1.69,2.83-3.2,5.78-4.54,8.79-.35.78-.99,1.82-1.06,2.69-.06.76.82,1.3,1.34,1.82.93.92,1.9,1.81,2.87,2.69,4.11,3.7,8.48,7.13,12.15,11.28,10.82,12.22,21.22,26.6,28.35,41.3,10.63,21.92,8.84,46.04,8.47,69.66-.6,38.32,1.91,77.91-7.5,115.37-3.04,12.12-7.99,24.39-15.3,34.85-8.16,11.69-19.47,17.44-29.38,26.91-2.45,2.34-4.4,5.2-6.17,8.08-.93,1.51-1.82,3.11-2.35,4.81-.4,1.27-.68,2.92.27,4.03.23.26.66.23.92.02,1.64-1.37,3.06-2.95,4.54-4.48,1.53-1.57,3.16-2.89,5.05-4,1.95-1.15,4.01-2.12,6.1-3,1.99-.84,4.01-1.68,6.07-2.33,6.69-2.1,13.74-2.44,20.64-3.49-1.49.84-2.99,1.65-4.49,2.47-2.71,1.47-5.53,2.88-7.89,4.89-1.97,1.67-3.86,3.43-5.66,5.28-.98,1-1.93,2.04-2.81,3.13-.76.93-1.5,1.91-2.04,2.98-.36.71-.74,1.61-.5,2.42.31,1.03,1.33,1.06,2.22.9,1.47-.27,2.89-.86,4.27-1.42.65-.26,1.3-.53,1.95-.8.21-.09.42-.17.63-.25.05-.02.1-.04.15-.06-.03.01.3-.1.31-.1.16-.05.32-.1.48-.15,2.61-.78,5.25-1.42,7.93-1.93,2.6-.49,5.21-.79,7.83-1.15,5.22-.72,10.42-1.76,15.33-3.71,1.32-.52,2.63-1.1,3.93-1.7-.06.08-.13.16-.19.25-.78,1.07-1.51,2.21-2.15,3.37-.38.69-.73,1.39-1,2.13-.2.56-.38,1.19-.26,1.79.32,1.62,2.68.78,3.56.26,1.02-.61,1.88-1.51,2.72-2.34.88-.87,1.78-1.62,2.79-2.35,2.42-1.74,4.97-3.32,7.8-4.3,2.1-.73,4.35-1.02,6.54-1.34,1.67-.24,3.35-.46,5.01-.77.89,1.45,2.01,2.81,3.26,3.94,1.96,1.78,4.57,2.51,7.07,3.17,2.91.78,5.73,1.77,8.53,2.86,2.23.87,4.45,1.78,6.69,2.62,1.43.53,3.35,1.02,4.41-.46.57-.79.6-1.84.54-2.78-.1-1.36-.44-2.67-.95-3.93-1.05-2.58-2.64-4.88-4.25-7.14-.24-.33-.47-.66-.71-.99,1.29.44,2.61.81,3.94,1.12,3.22.74,6.52,1.16,9.81,1.46,3.41.31,6.84.47,10.26.49,3.37.02,6.73-.11,10.09-.4,3.43-.3,6.86-.67,10.31-.61,1.68.03,3.37.16,5.03.48,1.57.3,3.09.81,4.64,1.22,1.53.4,3.1.67,4.69.58,1.66-.1,3.33-.25,4.98-.48.81-.12,1.61-.26,2.4-.43.4-.09.71-.43.67-.85-.12-1.36-1-2.67-2.32-3.95Z"/>
            <path class="cls-50" d="M632.15,401.15c.93.92,1.9,1.81,2.87,2.69,4.11,3.7,8.48,7.13,12.15,11.28,3.02,3.41,6.01,7,8.9,10.71.93-.45,1.85-.93,2.75-1.44,2.59-1.49,5.03-3.25,7.29-5.22.41-.35.81-.72,1.2-1.08-.09-.11-.18-.22-.27-.32-3.35-4-22.42-37.41-25.92-35.7-2.11,1.04-3.57,3.87-4.71,5.78-1.69,2.83-3.2,5.78-4.54,8.79-.35.78-.99,1.82-1.06,2.69-.06.76.82,1.3,1.34,1.82Z"/>
            <path class="cls-50" d="M761.46,392.89c2.28,2.49,4.92,4.67,7.93,6.22,2.31,1.19,4.81,1.95,7.38,2.27,3.39-8.24,7.1-16.33,11.15-24.19,1.4-2.71,3.02-5.17,4.59-7.77.91-1.5,2.6-4,1.31-5.71-1.28-1.69-3.73-1.7-5.64-1.51-2.74.29-5.4,1.14-8.02,1.97-3.08.97-6.1,1.62-9.36,1.71-2.28.06-4.56-.1-6.83-.34-.37-.04-.75.29-.87.61-2.57,6.7-4.39,13.73-6.17,20.78,1.35,2.1,2.85,4.11,4.54,5.95Z"/>
            <path class="cls-50" d="M680.46,333.23c.92,2.46,1.53,5.07,2.17,7.61,3.57,14.19,5.53,28.85,8.73,43.22.37-.06.73-.12,1.1-.21,2.51-.59,4.85-1.77,6.98-3.19,2.31-1.53,4.41-3.38,6.33-5.38.73-.76,1.43-1.55,2.11-2.37-3.15-12.1-5.89-24.29-8.03-36.36-.58-3.26-.68-6.6-1.12-9.88-.34-2.52-.58-6.37-2.58-8.24-1.76-1.63-4.06-1.07-5.99-.12-1.97.98-3.86,1.82-5.92,2.59-1.64.61-3.52,1.28-4.76,2.58-1.08,1.13-1.13,2.63-.87,4.09.34,1.95,1.16,3.79,1.85,5.63Z"/>
            <g>
              <path class="cls-34" d="M674.3,649.12c4-10.15,6.25-21.07,7.75-31.83,1.79-12.79,2.97-25.67,3.66-38.57.67-12.67.96-25.36,1.38-38.05.4-12.25.82-24.51.28-36.76-.54-12.13-2.09-24.21-5.41-35.91-2.91-10.25-7.39-19.87-13.17-28.81-5.86-9.06-12.95-17.01-20.07-25.08-5.62-6.38-11.2-12.94-15.53-20.27-.45.92-.89,1.85-1.31,2.79-.35.78-.99,1.82-1.06,2.69-.06.76.82,1.3,1.34,1.82.93.92,1.9,1.81,2.87,2.69,4.11,3.7,8.48,7.13,12.15,11.28,10.82,12.22,21.22,26.6,28.35,41.3,10.63,21.92,8.84,46.04,8.47,69.66-.6,38.32,1.91,77.91-7.5,115.37-.64,2.56-1.37,5.12-2.19,7.67Z"/>
              <path class="cls-34" d="M693.97,495.86c.02,1.3.04,2.6.05,3.9.05,5.76,0,11.52.04,17.28.04,5.76.15,11.51.52,17.26.34,5.27.9,10.54,1.81,15.74.45-5.4.63-10.83.59-16.25-.08-10.33-.97-20.63-2.15-30.89-.27-2.35-.56-4.7-.85-7.04Z"/>
              <path class="cls-34" d="M744.59,441.06c.2-.47.4-.94.59-1.41,2.52-6.31,3.91-12.99,5.26-19.62,1.37-6.72,2.69-13.5,5.03-19.97,2.49-6.88,5.01-13.75,7.58-20.61,1.69-4.52,3.37-9.04,4.99-13.58-1.36-.06-2.72-.17-4.08-.31-.37-.04-.75.29-.87.61-6.05,15.78-7.97,33.34-14.85,48.82-1.57,8.64-2.84,17.33-3.65,26.07Z"/>
              <path class="cls-34" d="M713.53,554.94c-.01.5-.03.99-.04,1.49-.09,4.65-.1,9.3-.02,13.96.08,4.69.24,9.37.5,14.05.25,4.67.6,9.34,1.04,14,.4,4.18.88,8.35,1.45,12.51.71-4.36,1.03-8.78,1.06-13.19.05-8.46-.93-16.89-1.99-25.27-.74-5.84-1.5-11.68-2-17.54Z"/>
              <path class="cls-34" d="M694.95,663.46c-.42,2.87-.93,5.72-1.41,8.57-.44,2.6-.83,5.21-1.11,7.84.74-1.38,1.28-2.86,1.71-4.36,1.05-3.68,1.49-7.57,1.36-11.39-.03-.98-.11-1.96-.23-2.93-.1.76-.2,1.52-.31,2.27Z"/>
              <path class="cls-34" d="M680.46,333.23c.92,2.46,1.53,5.07,2.17,7.61,3.61,14.31,5.57,29.12,8.82,43.61,1.93,8.61,3.79,17.28,4.65,26.08.09.96.2,1.91.29,2.85.03-.88.05-1.75.05-2.62,0-6.8-.89-13.56-1.91-20.27-.44-2.88-.91-5.76-1.31-8.65-.6-4.29-1.13-8.57-1.9-12.83-1.63-9.07-3.8-18.03-5.78-27.03-1.46-6.64-2.82-13.31-3.78-20.04-.85.41-1.64.91-2.27,1.57-1.08,1.13-1.13,2.63-.87,4.09.34,1.95,1.16,3.79,1.85,5.63Z"/>
            </g>
            <g class="cls-66">
              <path class="cls-50" d="M694.04,617.79c-.45-4.7-.98-9.39-1.51-14.08-.36-3.23-.71-6.47-1.03-9.71,0,2.19,0,4.38.01,6.58.03,10.1.1,20.2.31,30.3.2,9.77.53,19.54,1.04,29.3.03-.15.07-.29.11-.44,1.03-4.49,1.63-9.07,1.94-13.66.31-4.66.31-9.35.14-14.02-.18-4.77-.55-9.53-1.01-14.28Z"/>
              <path class="cls-50" d="M727.01,595.69c-.63-3.08-1.28-6.17-1.75-9.28-.52,4.32-.8,8.67-.89,13.03-.1,4.7.02,9.4.35,14.08.33,4.57.85,9.13,1.62,13.65.64,3.78,1.45,7.54,2.48,11.23.01-.23.02-.46.03-.7.21-4.91.41-9.82.46-14.74.05-5.03-.05-10.07-.41-15.09-.29-4.12-1.06-8.14-1.89-12.18Z"/>
              <path class="cls-50" d="M665.46,683.51c.14-.05.29-.09.43-.14,2.04-.77,3.77-2.17,5.06-3.92,1.37-1.86,2.28-4.02,2.92-6.23.7-2.41,1.09-4.91,1.3-7.41.14-1.63.2-3.27.21-4.92-1.72,3.83-3.4,7.68-5.07,11.53-1.61,3.7-3.21,7.41-4.86,11.09Z"/>
              <path class="cls-50" d="M735,505.4c1.16-2.88,1.99-5.88,2.54-8.94.54-2.99.81-6.03.93-9.06.11-3.03.07-6.06-.02-9.09-.09-3.06-.22-6.11-.28-9.17-.03-1.54-.04-3.08-.03-4.62-.39,1.05-.74,2.11-1.07,3.18-.97,3.18-1.71,6.43-2.25,9.7-.56,3.37-.93,6.78-1.11,10.2-.18,3.31-.18,6.63.01,9.94.17,2.85.49,5.7,1.01,8.5.09-.21.18-.43.27-.64Z"/>
              <path class="cls-50" d="M708.49,642.53c-.17-1.16-.36-2.32-.54-3.48-.43,1.66-.77,3.35-1.03,5.05-.39,2.5-.64,5.03-.8,7.56-.16,2.63-.21,5.26-.17,7.89.04,2.58.16,5.16.39,7.73.18,2.13.44,4.25.79,6.36.05-.11.1-.22.14-.34.94-2.36,1.58-4.83,1.99-7.33.42-2.57.59-5.18.6-7.78.01-2.64-.14-5.29-.38-7.92-.24-2.59-.59-5.17-.97-7.74Z"/>
              <path class="cls-50" d="M747.07,660.49c-.99-2.81-2.1-5.57-3.26-8.31-1.16-2.75-2.37-5.48-3.53-8.23-1.07-2.53-2.11-5.08-3.05-7.66.29,2.67.71,5.32,1.26,7.95.66,3.11,1.51,6.18,2.57,9.18,1.06,2.98,2.32,5.9,3.83,8.68,1.36,2.52,2.92,4.94,4.69,7.2-.02-.11-.04-.22-.07-.34-.62-2.87-1.46-5.69-2.43-8.47Z"/>
              <path class="cls-50" d="M724.84,503.55c-.48-6.87-1.05-13.73-1.62-20.59-.35-4.26-.7-8.51-1.03-12.77-.34,3.51-.47,7.04-.5,10.55-.06,6.24.2,12.47.28,18.71.07,5.92-.06,11.85-.09,17.77-.04,6.17,0,12.35.33,18.52.32,5.82.9,11.63,2.03,17.35.12-.36.23-.73.34-1.09,1.48-5.07,2.02-10.39,2.2-15.66.19-5.63-.06-11.26-.48-16.87-.4-5.31-1.08-10.6-1.44-15.92Z"/>
              <path class="cls-50" d="M704.02,525.75c-.03.51-.06,1.02-.09,1.54-.36,7-.52,14.01-.5,21.02.03,7.13.25,14.26.7,21.37.44,6.96,1.09,13.92,2,20.84.84,6.35,1.9,12.66,3.25,18.92.92-6.5,1.19-13.08,1.01-19.64-.33-12.17-2.12-24.23-3.72-36.28-1.23-9.21-2.37-18.48-2.65-27.77Z"/>
            </g>
            <g class="cls-64">
              <path class="cls-50" d="M802.44,706.27c-4.4-4.23-13.73-7.99-16.72-11.23-13.27-14.37-22.24-32.09-26.8-51.05-2.31-9.58-3.7-19.35-4.67-29.15-2.08-20.93-2.6-42.03-2.9-63.05-.41-29.41.29-57.81,6.2-86.8,6.16-30.2,16.23-60.37,30.36-87.8,1.4-2.71,3.02-5.17,4.59-7.77.91-1.5,2.6-4,1.31-5.71-1.28-1.69-3.73-1.7-5.64-1.51-.86.09-1.71.24-2.56.42-3.95,9.56-8.64,18.8-12.92,28.22-5.12,11.28-9.2,23.02-12.92,34.83-3.65,11.6-6.92,23.34-9.24,35.28-2.36,12.17-3.96,24.47-5.08,36.81-2.16,23.89-2.75,47.97-2.47,71.95.28,23.7,1.51,47.67,7.47,70.72,2.9,11.22,6.39,22.62,11.69,32.95,2.59,5.05,5.69,9.9,9.46,14.15,3.55,4,7.49,7.63,10.79,11.86.11.14.01.34-.17.3-11.07-2.27-19.06-11.68-25.63-20.19-.65-.84-1.29-1.69-1.93-2.54,1.5,2.49,3.25,4.83,4.99,7.16,3.13,4.22,6.88,8.68,8.04,13.93.02.09-.03.2-.13.22-5.82,1.2-12.14,1.22-17.98.16-5.41-.98-9.45-3.4-12.23-8.22-5.48-9.49-5.66-21.48-7.25-32.05-.36-2.43-.77-4.86-1.41-7.23,0-.04-.09-.39-.17-.68-.02.05-.03.1-.04.14-.1.63-.23,1.26-.34,1.89-.21,1.22-.4,2.44-.58,3.66-.8,5.52-1.26,11.09-1.35,16.67-.27,17.95,3.78,37.79,17.15,49.79.51-.78.54-1.79.48-2.68-.1-1.36-.44-2.67-.95-3.93-1.05-2.58-2.64-4.88-4.25-7.14-.24-.33-.47-.66-.71-.99,1.29.44,2.61.81,3.94,1.12,3.22.74,6.52,1.16,9.81,1.46,3.41.31,6.84.47,10.26.49,3.37.02,6.73-.11,10.09-.4,3.43-.3,6.86-.67,10.31-.61,1.68.03,3.37.16,5.03.48,1.57.3,3.09.81,4.64,1.22,1.53.4,3.1.67,4.69.58,1.66-.1,3.33-.25,4.98-.48.81-.12,1.61-.26,2.4-.43.4-.09.71-.43.67-.85-.12-1.36-1-2.67-2.32-3.95Z"/>
              <path class="cls-50" d="M686.02,714.76c1.25-1.31,2.43-2.69,3.49-4.15,1.65-2.26,2.99-4.73,3.88-7.39.98-2.92,1.4-5.99,1.44-9.06.04-3.72-.45-7.43-1.17-11.07-.1.33-.21.65-.31.98-1.38,4.32-2.82,8.65-4.85,12.71-1.96,3.93-4.54,7.59-7.97,10.37-1.89,1.53-4.01,2.71-6.17,3.81-2.33,1.18-4.72,2.24-7.13,3.22-4.86,1.98-9.83,3.67-14.76,5.48-3.04,1.12-6.07,2.29-9.03,3.6-.02.25-.01.51.06.75.31,1.03,1.33,1.06,2.22.9,1.47-.27,2.89-.86,4.27-1.42.65-.26,1.3-.53,1.95-.8.21-.09.42-.17.63-.25.05-.02.1-.04.15-.06-.03.01.3-.1.31-.1.16-.05.32-.1.48-.15,2.61-.78,5.25-1.42,7.93-1.93,2.6-.49,5.21-.79,7.83-1.15,5.22-.72,10.42-1.76,15.33-3.71.48-.19.95-.39,1.42-.59Z"/>
              <path class="cls-50" d="M695.19,337.17c2.15,9.91,3.3,20.01,4.45,30.07,1.07,9.33,2.23,18.61,4.13,27.81,1.83,8.86,3.57,17.75,6.14,26.43,2.65,8.95,6.12,18.04,11.94,25.45,2.21,2.81,4.88,5.7,8.03,7.47,1.53.86,3.32,1.32,5.03.73,1.68-.58,2.94-1.98,3.89-3.43,1.31-1.98,2.2-4.23,2.93-6.47,1.88-5.76,2.82-11.83,3.53-17.83.31-2.62.56-5.24.77-7.87-.82,1.55-1.7,3.07-2.65,4.57-10.07,15.72-21.01-3-24.32-13.17-7.82-24.03-14.8-49.46-19.21-74.36-.58-3.26-.68-6.6-1.12-9.88-.34-2.52-.58-6.37-2.58-8.24-1.76-1.63-4.06-1.07-5.99-.12-.24.12-.47.23-.71.34,2.61,5.91,4.38,12.21,5.74,18.49Z"/>
              <path class="cls-50" d="M645.29,393.79c3.2,4.35,5.97,9,8.67,13.67,2.72,4.72,5.36,9.49,8.28,14.1,2.84,4.48,5.96,8.81,9.67,12.62,1.83,1.88,3.81,3.63,5.94,5.17,1.89,1.36,3.89,2.63,6.03,3.55,2.5,1.07,5.57,1.74,8,.15,2.18-1.42,3.18-4.11,3.75-6.53.75-3.18.87-6.49.8-9.74-.24,1.27-.58,2.55-1.06,3.84-.57,1.54-1.33,3.11-2.69,4.04-7.67,5.23-21.58-12.03-25.65-16.88-3.35-4-22.42-37.41-25.92-35.7-1.29.63-2.34,1.94-3.21,3.3,2.73,2.55,5.17,5.41,7.38,8.42Z"/>
              <path class="cls-50" d="M666.88,702.85c-1.49.84-2.99,1.65-4.49,2.47-1.55.84-3.14,1.67-4.65,2.59,1.22-.37,2.44-.75,3.65-1.18,1.6-.58,3.18-1.25,4.66-2.09,1.48-.85,2.88-1.83,3.96-3.16,2.2-2.68,3.27-6.13,4.08-9.44.73-2.96,1.22-5.98,1.97-8.94-.09.14-.17.28-.26.42-1.27,1.95-2.79,3.73-4.49,5.32-1.67,1.56-3.5,2.93-5.43,4.15-1.95,1.23-4,2.31-6.09,3.3-2.11,1-4.25,1.9-6.41,2.77-2.17.88-4.35,1.72-6.52,2.61-2.13.87-4.25,1.76-6.31,2.77-1.99.97-3.95,2.03-5.79,3.25-1.8,1.19-3.49,2.55-4.99,4.1-1.53,1.57-2.84,3.35-3.88,5.28-.54.99-.99,2.02-1.38,3.08,1.63-1.37,3.04-2.94,4.52-4.46,1.53-1.57,3.16-2.89,5.05-4,1.95-1.15,4.01-2.12,6.1-3,1.99-.84,4.01-1.68,6.07-2.33,6.69-2.1,13.74-2.44,20.64-3.49Z"/>
              <path class="cls-50" d="M713.77,704.16c-.49-4.18-.55-8.39-.46-12.59.1-4.24.36-8.47.56-12.7.16-3.53.29-7.07.19-10.6-.02.11-.04.22-.06.32-.93,5.21-1.5,10.47-2.46,15.68-.96,5.17-2.33,10.33-4.8,15.01-.94,1.77-2.06,3.43-3.2,5.07-1.04,1.5-2.12,2.98-3.21,4.45-2.12,2.82-4.31,5.6-6.67,8.23.12-.09.24-.18.36-.27,2.42-1.74,4.97-3.32,7.8-4.3,2.1-.73,4.35-1.02,6.54-1.34,1.67-.24,3.35-.46,5.01-.77.67,1.09,1.47,2.12,2.35,3.05-.97-3-1.58-6.11-1.94-9.24Z"/>
            </g>
          </g>
          <path class="cls-40" d="M919.66,348.24c-.36-1.5-1.1-2.89-2.19-3.98-1.12-1.11-2.51-1.87-4-2.36-3.65-1.22-7.71-1.03-11.47-.52-2.28.31-4.54.77-6.78,1.34,2.62-4.32,4.88-8.86,6.8-13.56,4.49-11.02,7.25-22.84,7.9-34.73.64-11.65-.78-23.64-5.53-34.38-4.75-10.77-12.98-19.88-23.42-25.39-10.11-5.34-21.77-6.95-33.05-5.52-1.61.2-3.21.47-4.8.8-.16-1.65-.5-3.29-1.13-4.83-.91-2.24-2.43-4.17-4.52-5.41-2.79-1.65-6.24-2.17-9.4-1.52-4,.82-7.52,3.21-10.53,5.86-.11.1-.22.2-.32.3-.26-.6-.52-1.2-.8-1.79-2.54-5.48-5.82-10.74-10.05-15.09-4.13-4.24-9.07-7.59-14.5-9.93-5.47-2.36-11.37-3.68-17.31-4.08-3.08-.21-6.17-.15-9.25,0-2.81.14-5.63.39-8.41.8-4.02.6-7.99,1.56-11.78,3.01-.77-1.26-1.68-2.44-2.77-3.49-4.35-4.2-10.96-5.66-16.74-4.15-4.59,1.2-8.62,3.95-11.92,7.36-2.48-1.38-5.08-2.51-7.76-3.42-3.09-1.04-6.28-1.78-9.5-2.26-3.34-.49-6.72-.72-10.1-.7-3.52.02-7.05.29-10.54.78-3.57.5-7.11,1.22-10.6,2.15-3.6.95-7.14,2.11-10.61,3.46-3.48,1.35-6.89,2.9-10.21,4.62-3.35,1.75-6.6,3.67-9.74,5.78-3.11,2.09-6.09,4.36-8.94,6.8-2.78,2.38-5.41,4.93-7.85,7.66-2.41,2.68-4.65,5.53-6.65,8.54-1.95,2.93-3.67,6.01-5.11,9.22-.22.5-.44,1-.65,1.51-.73-2.91-1.57-5.8-2.61-8.62-.98-2.65-2.14-5.3-3.75-7.64-1.26-1.82-2.91-3.56-5.06-4.28-2.29-.76-4.66-.08-6.66,1.13-1.48.89-2.82,2.03-3.8,3.46-1.11,1.62-1.75,3.52-2.11,5.44-.8,4.19-.38,8.57.24,12.75.3,2.03.63,4.06,1.05,6.08-1.62-.82-3.32-1.5-5.07-1.96-5.98-1.6-12.41-.94-18.3.76-5.9,1.71-11.47,4.5-16.44,8.09-4.92,3.55-9.32,7.9-12.69,12.96-3.49,5.23-5.66,11.23-6.49,17.46-.86,6.48-.19,13.1,1.68,19.35,1.91,6.37,5.03,12.36,8.94,17.73,2.92,4,6.27,7.62,10.05,10.8-.69.19-1.38.4-2.07.63-2.92.99-5.76,2.41-8.13,4.4-2.29,1.93-4.1,4.38-5,7.25-1.04,3.31-.83,6.86.04,10.19,1.14,4.35,3.37,8.37,6.25,11.81,2.4,2.87,5.25,5.38,8.41,7.38-.17.13-.34.25-.5.38-2.93,2.36-5.54,5.25-7.24,8.63-1.47,2.93-2.33,6.34-1.89,9.63.25,1.88,1.15,3.69,2.89,4.59,1.82.94,3.97.9,5.95.62,2.58-.37,5.1-1.23,7.5-2.21,1.15-.47,2.29-.98,3.41-1.51-.02,5.92,1.5,11.81,4.53,16.92,3.73,6.3,9.64,11.19,16.35,14.06,6.61,2.82,14,3.54,21.05,2.21,7.18-1.35,13.89-4.79,19.28-9.71,1.7-1.55,3.25-3.23,4.6-5.07,1.89.85,3.87,1.53,5.85,2.1,3.02.86,6.16,1.5,9.3,1.69,4.59.27,9.22-.54,13.6-1.88,4.69-1.45,9.17-3.52,13.39-6.02,3.97-2.35,7.79-5.07,11.14-8.25,3.42-3.24,6.21-7.14,8.5-11.24,2.31-4.12,4.16-8.53,5.44-13.07.69-2.44,1.15-4.91,1.22-7.45.07-2.39-.18-4.78-.62-7.13-.13-.7-.28-1.39-.44-2.08,1,1.74,2.33,3.31,4.13,4.24,2.1,1.09,4.6,1.26,6.5-.33,1.83-1.53,2.72-3.94,3.28-6.18.62-2.5.89-5.09.95-7.66.07-3.29-.39-6.49-1.21-9.61,11.07,5.37,22.67-1.22,30.43-9.82.05,1.1.14,2.19.25,3.28.21,1.96.5,4.01,1.27,5.83.69,1.63,2.14,3.03,3.92,3.37,2.04.39,4.01-.64,5.53-1.92,1.58-1.33,2.87-2.98,3.98-4.73,3.19,4.85,7.16,9.07,11.81,12.66-2.13,1.52-4.11,3.25-5.69,5.29-1.07,1.38-1.97,3-2.13,4.78-.16,1.76.53,3.45,1.7,4.75,3.08,3.45,8,2.38,11.81.8.11.65.24,1.29.39,1.93,1.63,7.14,5.64,13.41,11.11,18.24,5.59,4.94,12.42,8.33,19.47,10.66,6.99,2.32,14.32,3.64,21.66,4.11,0,0,.02,0,.03,0,.59,3.8,2.25,7.65,5.78,9.52,2.19,1.17,4.72,1.43,7.16,1.2,2.83-.26,5.56-1.07,8.16-2.21,5.67-2.5,10.96-6.34,15.01-11.03.85-.98,1.67-2.05,2.42-3.18.84,2.14,1.87,4.2,3.12,6.14,1.87,2.91,4.27,5.59,7.25,7.4,2.89,1.77,6.25,2.56,9.62,2.22,4.24-.43,7.96-2.63,10.77-5.77,2.97-3.31,4.99-7.41,6.41-11.59,1.24-3.65,2.07-7.47,2.35-11.32.28-3.89.14-7.87-.64-11.7-.04-.22-.09-.44-.14-.66,4.48-.82,8.91-2.08,13.07-3.96,3.95-1.78,7.85-4.17,10.53-7.64,2.27-2.94,3.28-6.69,2.39-10.34Z"/>
          <path class="cls-27" d="M919.66,348.24c-.36-1.5-1.1-2.89-2.19-3.98-1.12-1.11-2.51-1.87-4-2.36-3.65-1.22-7.71-1.03-11.47-.52-2.28.31-4.54.77-6.78,1.34,2.62-4.32,4.88-8.86,6.8-13.56,4.49-11.02,7.25-22.84,7.9-34.73.64-11.65-.78-23.64-5.53-34.38-4.75-10.77-12.98-19.88-23.42-25.39-10.11-5.34-21.77-6.95-33.05-5.52-1.61.2-3.21.47-4.8.8-.16-1.65-.5-3.29-1.13-4.83-.91-2.24-2.43-4.17-4.52-5.41-2.79-1.65-6.24-2.17-9.4-1.52-4,.82-7.52,3.21-10.53,5.86-.11.1-.22.2-.32.3-.26-.6-.52-1.2-.8-1.79-2.54-5.48-5.82-10.74-10.05-15.09-4.13-4.24-9.07-7.59-14.5-9.93-5.47-2.36-11.37-3.68-17.31-4.08-3.08-.21-6.17-.15-9.25,0-2.81.14-5.63.39-8.41.8-4.02.6-7.99,1.56-11.78,3.01-.77-1.26-1.68-2.44-2.77-3.49-4.35-4.2-10.96-5.66-16.74-4.15-4.59,1.2-8.62,3.95-11.92,7.36-2.48-1.38-5.08-2.51-7.76-3.42-3.09-1.04-6.28-1.78-9.5-2.26-3.34-.49-6.72-.72-10.1-.7-3.52.02-7.05.29-10.54.78-3.57.5-7.11,1.22-10.6,2.15-3.6.95-7.14,2.11-10.61,3.46-3.48,1.35-6.89,2.9-10.21,4.62-3.35,1.75-6.6,3.67-9.74,5.78-3.11,2.09-6.09,4.36-8.94,6.8-2.78,2.38-5.41,4.93-7.85,7.66-2.41,2.68-4.65,5.53-6.65,8.54-1.95,2.93-3.67,6.01-5.11,9.22-.22.5-.44,1-.65,1.51-.73-2.91-1.57-5.8-2.61-8.62-.98-2.65-2.14-5.3-3.75-7.64-1.26-1.82-2.91-3.56-5.06-4.28-2.29-.76-4.66-.08-6.66,1.13-1.48.89-2.82,2.03-3.8,3.46-1.11,1.62-1.75,3.52-2.11,5.44-.8,4.19-.38,8.57.24,12.75.3,2.03.63,4.06,1.05,6.08-1.62-.82-3.32-1.5-5.07-1.96-5.98-1.6-12.41-.94-18.3.76-5.9,1.71-11.47,4.5-16.44,8.09-4.92,3.55-9.32,7.9-12.69,12.96-3.49,5.23-5.66,11.23-6.49,17.46-.86,6.48-.19,13.1,1.68,19.35,1.91,6.37,5.03,12.36,8.94,17.73,2.92,4,6.27,7.62,10.05,10.8-.69.19-1.38.4-2.07.63-2.92.99-5.76,2.41-8.13,4.4-2.29,1.93-4.1,4.38-5,7.25-1.04,3.31-.83,6.86.04,10.19,1.14,4.35,3.37,8.37,6.25,11.81,2.4,2.87,5.25,5.38,8.41,7.38-.17.13-.34.25-.5.38-2.93,2.36-5.54,5.25-7.24,8.63-1.47,2.93-2.33,6.34-1.89,9.63.25,1.88,1.15,3.69,2.89,4.59,1.82.94,3.97.9,5.95.62,2.58-.37,5.1-1.23,7.5-2.21,1.15-.47,2.29-.98,3.41-1.51-.02,5.92,1.5,11.81,4.53,16.92,3.73,6.3,9.64,11.19,16.35,14.06,6.61,2.82,14,3.54,21.05,2.21,7.18-1.35,13.89-4.79,19.28-9.71,1.7-1.55,3.25-3.23,4.6-5.07,1.89.85,3.87,1.53,5.85,2.1,3.02.86,6.16,1.5,9.3,1.69,4.59.27,9.22-.54,13.6-1.88,4.69-1.45,9.17-3.52,13.39-6.02,3.97-2.35,7.79-5.07,11.14-8.25,3.42-3.24,6.21-7.14,8.5-11.24,2.31-4.12,4.16-8.53,5.44-13.07.69-2.44,1.15-4.91,1.22-7.45.07-2.39-.18-4.78-.62-7.13-.13-.7-.28-1.39-.44-2.08,1,1.74,2.33,3.31,4.13,4.24,2.1,1.09,4.6,1.26,6.5-.33,1.83-1.53,2.72-3.94,3.28-6.18.62-2.5.89-5.09.95-7.66.07-3.29-.39-6.49-1.21-9.61,11.07,5.37,22.67-1.22,30.43-9.82.05,1.1.14,2.19.25,3.28.21,1.96.5,4.01,1.27,5.83.69,1.63,2.14,3.03,3.92,3.37,2.04.39,4.01-.64,5.53-1.92,1.58-1.33,2.87-2.98,3.98-4.73,3.19,4.85,7.16,9.07,11.81,12.66-2.13,1.52-4.11,3.25-5.69,5.29-1.07,1.38-1.97,3-2.13,4.78-.16,1.76.53,3.45,1.7,4.75,3.08,3.45,8,2.38,11.81.8.11.65.24,1.29.39,1.93,1.63,7.14,5.64,13.41,11.11,18.24,5.59,4.94,12.42,8.33,19.47,10.66,6.99,2.32,14.32,3.64,21.66,4.11,0,0,.02,0,.03,0,.59,3.8,2.25,7.65,5.78,9.52,2.19,1.17,4.72,1.43,7.16,1.2,2.83-.26,5.57-1.07,8.16-2.21,5.67-2.5,10.96-6.34,15.01-11.03.85-.98,1.67-2.05,2.42-3.18.84,2.14,1.87,4.2,3.12,6.14,1.87,2.91,4.27,5.59,7.25,7.4,2.89,1.77,6.25,2.56,9.62,2.22,4.24-.43,7.96-2.63,10.77-5.77,2.97-3.31,4.99-7.41,6.41-11.59,1.24-3.65,2.07-7.47,2.35-11.32.28-3.89.14-7.87-.64-11.7-.04-.22-.09-.44-.14-.66,4.48-.82,8.91-2.08,13.07-3.96,3.95-1.78,7.85-4.17,10.53-7.64,2.27-2.94,3.28-6.69,2.39-10.34ZM679.63,309.89c-.94,2.42-2.64,4.48-4.55,6.19-2.07,1.86-4.44,3.36-6.92,4.6-2.67,1.32-5.48,2.34-8.37,3.06-2.9.72-5.88,1.14-8.86,1.17-2.79.03-5.61-.27-8.28-1.1-2.32-.72-4.53-1.85-6.35-3.48-.02.7-.06,1.4-.11,2.1-.19,2.53-.59,5.04-1.16,7.51-.59,2.54-1.38,5.03-2.4,7.42-.97,2.26-2.16,4.43-3.67,6.38-1.37,1.77-3.03,3.35-5,4.43-1.92,1.06-4.21,1.67-6.41,1.55-1.97-.11-3.73-.99-4.93-2.56-1.24-1.62-1.81-3.68-2.14-5.66-.23-1.45-.34-2.92-.36-4.39-.61,2.74-1.44,5.43-2.47,8.04-1.1,2.81-2.42,5.54-4.01,8.11-1.46,2.36-3.16,4.62-5.23,6.49-1.76,1.59-3.82,2.92-6.16,3.45-.08.02-.16-.01-.2-.08-.67-1.25-.68-2.78-.56-4.16.09-1,.27-1.99.49-2.97-2.19,2.16-4.5,4.19-6.91,6.08-3.22,2.52-6.66,4.81-10.33,6.62-3.35,1.66-6.94,2.96-10.67,3.39-3.39.39-6.87-.03-9.94-1.57-1.62-.81-3.08-1.9-4.36-3.17-1.37-1.37-2.6-2.92-3.4-4.7-.67-1.49-1.01-3.12-.94-4.76.06-1.62.51-3.21,1.19-4.68,1.54-3.35,4.2-6.13,7.01-8.46,3.08-2.55,6.52-4.67,10.12-6.41,2.7-1.31,5.55-2.47,8.5-3.14-.04,0-.08-.01-.13-.02-1.29-.2-2.59-.45-3.84-.85-.82-.26-1.65-.59-2.36-1.08-.88-.62-1.51-1.57-1.11-2.66.45-1.21,1.64-2.07,2.69-2.73.44-.28.9-.53,1.37-.77-.61-.12-1.21-.25-1.81-.38-2.57-.58-5.1-1.33-7.55-2.28-2.4-.93-4.74-2.06-6.9-3.46-2.02-1.31-3.9-2.86-5.46-4.71-1.5-1.79-2.68-3.85-3.36-6.1-.76-2.49-1.01-5.24-.33-7.77.69-2.58,2.31-4.82,4.37-6.49,1.27-1.03,2.7-1.86,4.21-2.5-1.14-.45-2.25-.96-3.3-1.57-2.3-1.33-4.78-3.41-4.79-6.31,0-1.21.38-2.49,1.18-3.41.77-.89,1.85-1.44,2.96-1.79,1.31-.42,2.71-.57,4.08-.6,1.48-.03,2.96.1,4.42.34-.94-1.34-1.75-2.76-2.39-4.27-.84-1.98-1.37-4.11-1.41-6.27-.03-2.05.42-4.1,1.4-5.91,1.08-2,2.76-3.61,4.68-4.82,2.35-1.47,5.06-2.42,7.78-2.92,2.7-.5,5.47-.55,8.18-.18,2.71.37,5.36,1.15,7.83,2.34,2.22,1.07,4.29,2.49,6.07,4.2-.26-1.86-.45-3.73-.53-5.6-.1-2.46-.04-4.98.52-7.38.44-1.89,1.23-3.82,2.74-5.11,1.4-1.2,3.48-1.84,5.3-1.34,1.79.5,2.89,2.1,3.55,3.74.86,2.12,1.16,4.46,1.32,6.72.15,2.09.14,4.18.06,6.27.72-1.25,1.54-2.44,2.41-3.58,1.91-2.52,4.09-4.84,6.45-6.94,2.17-1.94,4.52-3.72,7.06-5.16,1.03-.58,2.1-1.11,3.22-1.52,1.11-.41,2.25-.62,3.42-.74,2.39-.24,5.06-.1,7.1,1.32,1.62,1.13,2.54,2.92,2.91,4.83.43,2.27.21,4.63-.24,6.87-.5,2.51-1.31,4.95-2.31,7.3-.69,1.62-1.47,3.21-2.37,4.73,1.7-1.68,3.54-3.22,5.43-4.68,2.54-1.97,5.2-3.79,7.97-5.42,2.76-1.62,5.65-3.06,8.7-4.05,2.51-.81,5.26-1.36,7.9-.88,2.37.43,4.44,1.84,5.61,3.96,1.11,2,.93,4.32.1,6.39-1.04,2.6-2.88,4.84-4.81,6.83-2.3,2.36-4.9,4.44-7.61,6.31-.29.2-.58.4-.88.59,3.96-.87,8.11-1.25,12.13-.7,3.86.53,8.13,2.13,10.14,5.72.83,1.49.98,3.19.27,4.76-.73,1.62-2.16,2.86-3.64,3.8-.66.42-1.35.78-2.06,1.1,1.34.3,2.64.79,3.86,1.46,3.06,1.68,5.56,4.41,6.93,7.62,1.41,3.31,1.54,7.05.23,10.41ZM767.45,266.09c-.74,1.77-1.81,3.47-3.24,4.77-.99.9-2.32,1.76-3.73,1.66-1.33-.09-2.2-1.13-2.63-2.32-.66-1.83-.58-3.91-.32-5.87-.18.4-.36.8-.55,1.19-3.76,7.61-10.5,13.52-17.75,17.72-7.71,4.47-16.55,7.35-25.49,7.74-8.1.35-16.68-1.55-22.84-7.12-5.87-5.31-8.83-13.53-8.21-21.38.3-3.82,1.47-7.59,3.58-10.79,1.99-3.02,4.77-5.38,7.98-6.97-2.01.28-4.07.32-6.08.19-4.05-.25-9.97-1.3-10.98-6.02-.52-2.43.42-4.7,2.52-6.02,1.8-1.13,4.07-1.5,6.17-1.2-3.78-3.42-6.68-8.01-7.72-13.02-.87-4.16-.31-8.61,2.32-12.05,3.17-4.14,8.64-6.18,13.72-6.4,10.92-.49,22.05,6.78,26.43,16.74.27-3.34.47-6.69,1.13-9.99.55-2.76,1.37-6.37,3.83-8.1,2.39-1.67,5.95-.21,7.49,1.97,1.84,2.59,1.71,6.19,1.24,9.32,3.78-3.38,9.21-6.58,13.96-3.98,4.39,2.4,4.02,6.78,2.21,10.68,1.82-1.91,3.92-3.58,6.04-5.03,3.83-2.63,8.17-4.76,12.76-5.66,4.12-.81,8.62-.54,12.08,2.05,1.66,1.24,3.04,2.94,3.32,5.05.26,1.89-.4,3.77-1.4,5.36-1.09,1.71-2.58,3.21-4.28,4.42,1.74-.45,3.52-.77,5.25-1.01,4.05-.56,8.29-.67,12.29.28,3.31.78,6.6,2.47,8.12,5.66.82,1.71,1.4,3.71.87,5.59-.44,1.55-1.6,2.72-3,3.46-3.05,1.61-6.99,1.57-10.27.57.24.28.49.55.73.83,3.6,4.15,6.94,8.61,9.45,13.51,2.33,4.56,4.15,9.94,2.96,15.1-1.34,5.75-6.62,9.84-12.07,11.47-5.88,1.75-11.95,0-16.5-3.97-4.14-3.6-6.98-8.66-8.21-14.01-.07,1.92-.47,3.82-1.21,5.59ZM890.52,302.18c-2.99,7.54-11.22,11.04-18.48,13.21.42.54.82,1.09,1.2,1.65,2.2,3.26,3.9,6.87,5.26,10.55,1.52,4.09,2.63,8.35,3.19,12.68.99,7.61.39,16.73-5.67,22.22-2.92,2.64-6.86,4.12-10.76,4.41-3.26.24-6.49-.59-9.16-2.52-5.74-4.15-8.26-11.71-9.59-18.36-.74-3.69-1.13-7.45-1.23-11.21-.02-.76-.02-1.51-.02-2.27-.55,2.02-1.29,4-2.22,5.87-1.76,3.54-4.41,7.24-8.28,8.61-3.52,1.25-7.38.05-9.7-2.82-2.39-2.95-3.37-7.03-3.06-10.78.2-2.41,1.01-4.84,2.56-6.65-3.41,1.79-7.15,2.92-10.93,3.6-4.42.79-8.95.98-13.42.62-4.47-.36-8.92-1.27-13.12-2.86-3.89-1.48-7.6-3.56-10.62-6.44-2.92-2.77-5.09-6.27-6.1-10.18-1.05-4.06-1.09-8.66.62-12.55,1.54-3.52,4.5-6.11,7.93-7.73,3.79-1.79,8.01-2.53,12.17-2.76,4.42-.24,8.88.12,13.22.93,3.36.63,6.73,1.52,9.87,2.9-1.3-1.28-2.72-3-2.45-4.8.21-1.41,1.55-2.19,2.79-2.6,1.92-.64,4.05-.67,6.06-.53,2.39.17,4.78.64,7.05,1.43,1.93.67,3.83,1.58,5.38,2.92.02-.63.05-1.27.09-1.9.43-7.08,1.61-14.32,4.35-20.9,2.56-6.13,6.89-11.97,13.64-13.66,3.32-.83,7.14-.76,10.39.38,2.46.87,4.53,2.54,5.63,4.94,1.13,2.45,1.24,5.26.97,7.9-.33,3.18-1.2,6.29-2.29,9.28-.15.42-.32.84-.48,1.26.12-.08.23-.16.35-.24,3.79-2.56,7.94-4.95,12.39-6.14,3.14-.84,7.11-1.08,9.28,1.83,2.99,4.03.88,8.89-1.86,12.4-1.72,2.2-3.77,4.14-5.96,5.87-.85.67-1.72,1.32-2.62,1.93,2.15-.87,4.41-1.49,6.7-1.71,2.45-.24,5.34.07,6.91,2.21.84,1.15,1.13,2.61,1.15,4.01.03,2.02-.38,4.12-1.13,5.99Z"/>
          <path class="cls-27" d="M919.66,348.24c-.36-1.5-1.1-2.89-2.19-3.98-1.12-1.11-2.51-1.87-4-2.36-1.34-.45-2.73-.7-4.14-.82,1.5,1.87,2.47,4.1,2.5,6.57.07,5.18-3.65,9.78-7.88,12.37-4.4,2.7-10.05,3.56-14.65.92.83,3,0,6.52-2.73,8.29-1.14.74-2.54,1.02-3.86.65-1.52-.43-2.65-1.59-3.48-2.89.27,4.63-.19,9.51-2.17,13.74-1.83,3.9-5.14,6.73-9.48,7.35-4.65.66-9.63-.4-13.47-3.14-3.62-2.57-6.18-6.33-8.25-10.19-2.04-3.8-3.65-7.8-5.48-11.7.49,3.98,1.09,7.94,1.25,11.96.17,4.09.19,8.78-1.74,12.52-1.41,2.72-4.9,4.81-7.89,3.13-3.06-1.73-3.4-6.39-3.48-9.48-.07-2.47.07-4.99.43-7.47-1.07,2.69-2.76,5.19-4.7,7.23-2.06,2.18-5,4.34-8.18,3.89-3.51-.5-5.8-4-6.64-7.18-1.06-4.02-.5-8.37.48-12.34.38-1.53.83-3.05,1.36-4.54-1.24,2.02-2.6,3.96-4.08,5.81-3.12,3.92-6.85,7.87-11.44,10.04-3.38,1.6-8.18,2.02-10.71-1.35-2.45-3.26,1.71-6.84,4.12-8.56,1.9-1.37,3.98-2.51,6.13-3.45,1.04-.45,2.14-.91,3.27-1.2-3.96-.22-7.92-.32-11.86-.78-7.62-.88-15.86-3.22-19.85-10.38-3.25-5.84-1.99-13.54,2.73-18.05-1.67.75-3.42,1.32-5.18,1.67-2.65.53-5.7.61-8.07-.88-2.42-1.53-3.57-4.53-3.19-7.32.22-1.62.84-3.15,1.65-4.58-2.5,1.67-6.39,3.28-8.5.23-.7-1.02-.67-2.35-.43-3.52.34-1.68,1.09-3.27,1.91-4.76.28-.51.57-1,.87-1.5-1.05.53-2.11,1.03-3.19,1.48-3.13,1.32-6.6,2.55-10.05,2.39-2-.09-4.03-.58-5.7-1.73-1.41-.97-2.46-2.35-3.12-3.93-.73-1.76-1-3.67-.94-5.59-.76,1.78-1.73,3.47-2.84,5.05-2.14,3.04-4.9,5.92-8.27,7.58-2.84,1.4-6.28,1.68-9.02-.12-1.71-1.13-2.96-2.79-3.89-4.63.04,3.17-.36,6.36-1.49,9.33-1.24,3.26-3.42,6.55-6.46,8.38-5.33,3.21-10.98-.3-14.93-4.14,1.16,2.11,2.11,4.37,2.71,6.69.57,2.19.98,5-.44,6.97-1.37,1.9-3.91,2.12-5.96,1.31-.92-.36-1.77-.86-2.58-1.45,2.06,4.11,3.53,8.6,3.95,13.2.39,4.27-.19,8.8-2.6,12.45-1.16,1.75-2.81,3.64-4.98,4.05-1.73.33-3.36-.46-4.62-1.6-1.55-1.4-2.67-3.27-3.54-5.15,0-.02-.01-.03-.02-.05.01.08.03.17.04.25.39,2.49.63,5,.7,7.51.07,2.52-.02,5.06-.48,7.54-.36,1.96-.97,4.03-2.28,5.58-1.15,1.36-2.9,2.04-4.67,1.74-1.95-.33-3.48-1.67-4.57-3.26-1.37-1.99-2.19-4.34-2.83-6.64-.23-.83-.43-1.66-.62-2.49-1.37,5.58-3.86,10.93-7.12,15.62-1.74,2.51-3.74,4.87-6.07,6.85-2.15,1.82-4.56,3.34-7.11,4.53-4.74,2.21-10.4,3.58-15.58,2.23-2.35-.61-4.52-1.86-6.12-3.7-1.72-1.98-2.7-4.45-3.2-6.99-.37,1.68-.76,3.35-1.23,5.01-.62,2.17-1.36,4.36-2.47,6.33-.79,1.39-1.95,3.02-3.65,3.28-2.06.32-3.4-1.44-3.75-3.26-.29-1.48-.2-2.99-.03-4.48-1.27,4.07-2.79,8.15-5.07,11.77-1.99,3.15-4.85,6.28-8.77,6.69-2.08.22-4.14-.39-5.97-1.34-2.39-1.26-4.62-3.06-6.27-5.21-3.16-4.1-3.88-9.38-2.99-14.38.75-4.22,2.52-8.25,4.92-11.82-2.21,2.13-4.7,4.03-7.23,5.72-1.78,1.19-3.64,2.28-5.61,3.11-1.56.66-3.28,1.22-4.99,1.14-1.44-.06-2.74-.67-3.56-1.87-.99-1.46-1.3-3.42-.92-5.12.46-2.04,1.74-3.84,3.12-5.36,1.71-1.88,3.72-3.48,5.83-4.89.46-.31.92-.6,1.39-.89-1.71-.27-3.38-.76-4.98-1.42-2.15-.88-4.18-2.05-6.02-3.46-1.75-1.35-3.34-2.91-4.65-4.69-.99-1.36-1.85-2.83-2.63-4.32-.91-1.74-1.71-3.53-2.41-5.36-.75-1.95-1.38-3.95-1.85-5.99-.44-1.94-.74-3.93-.77-5.93,0-.07,0-.14,0-.21-.4.76-.74,1.55-1,2.38-1.04,3.31-.83,6.86.04,10.19,1.14,4.35,3.37,8.37,6.25,11.81,2.4,2.87,5.25,5.38,8.41,7.38-.17.13-.34.25-.5.38-2.93,2.36-5.54,5.25-7.24,8.63-1.47,2.93-2.33,6.34-1.89,9.63.25,1.88,1.15,3.69,2.89,4.59,1.82.94,3.97.9,5.95.62,2.58-.37,5.1-1.23,7.5-2.21,1.15-.47,2.29-.98,3.41-1.51-.02,5.92,1.5,11.81,4.53,16.92,3.73,6.3,9.64,11.19,16.35,14.06,6.61,2.82,14,3.54,21.05,2.21,7.18-1.35,13.89-4.79,19.28-9.71,1.7-1.55,3.25-3.23,4.6-5.07,1.89.85,3.87,1.53,5.85,2.1,3.02.86,6.16,1.5,9.3,1.69,4.59.27,9.22-.54,13.6-1.88,4.69-1.45,9.17-3.52,13.39-6.02,3.97-2.35,7.79-5.07,11.14-8.25,3.42-3.24,6.21-7.14,8.5-11.24,2.31-4.12,4.16-8.53,5.44-13.07.69-2.44,1.15-4.91,1.22-7.45.07-2.39-.18-4.78-.62-7.13-.13-.7-.28-1.39-.44-2.08,1,1.74,2.33,3.31,4.13,4.24,2.1,1.09,4.6,1.26,6.5-.33,1.83-1.53,2.72-3.94,3.28-6.18.62-2.5.89-5.09.95-7.66.07-3.29-.39-6.49-1.21-9.61,11.07,5.37,22.67-1.22,30.43-9.82.05,1.1.14,2.19.25,3.28.21,1.96.5,4.01,1.27,5.83.69,1.63,2.14,3.03,3.92,3.37,2.04.39,4.01-.64,5.53-1.92,1.58-1.33,2.87-2.98,3.98-4.73,3.19,4.85,7.16,9.07,11.81,12.66-2.13,1.52-4.11,3.25-5.69,5.29-1.07,1.38-1.97,3-2.13,4.78-.16,1.76.53,3.45,1.7,4.75,3.08,3.45,8,2.38,11.81.8.11.65.24,1.29.39,1.93,1.63,7.14,5.64,13.41,11.11,18.24,5.59,4.94,12.42,8.33,19.47,10.66,6.99,2.32,14.32,3.64,21.66,4.11,0,0,.02,0,.03,0,.59,3.8,2.25,7.65,5.78,9.52,2.19,1.17,4.72,1.43,7.16,1.2,2.83-.26,5.57-1.07,8.16-2.21,5.67-2.5,10.96-6.34,15.01-11.03.85-.98,1.67-2.05,2.42-3.18.84,2.14,1.87,4.2,3.12,6.14,1.87,2.91,4.27,5.59,7.25,7.4,2.89,1.77,6.25,2.56,9.62,2.22,4.24-.43,7.96-2.63,10.77-5.77,2.97-3.31,4.99-7.41,6.41-11.59,1.24-3.65,2.07-7.47,2.35-11.32.28-3.89.14-7.87-.64-11.7-.04-.22-.09-.44-.14-.66,4.48-.82,8.91-2.08,13.07-3.96,3.95-1.78,7.85-4.17,10.53-7.64,2.27-2.94,3.28-6.69,2.39-10.34Z"/>
          <path class="cls-10" d="M531.83,319.27c-1.98-4.37-3.61-8.92-4.68-13.61-1.04-4.55-1.57-9.24-1.31-13.9.26-4.59,1.31-9.13,3.25-13.31,2.07-4.46,5.14-8.31,8.71-11.68,3.46-3.27,7.37-6.05,11.58-8.28,4.15-2.19,8.59-3.84,13.15-4.94,4.56-1.1,9.24-1.66,13.93-1.7,2.82-.03,5.64.13,8.44.46-.31-1.4-.55-2.82-.74-4.24-.48-3.54-.64-7.16-.16-10.71.41-3.01,1.31-6.17,3.41-8.46,1.39-1.51,3.43-2.78,5.54-2.76,1.81.02,3.41,1.01,4.65,2.26,1.61,1.62,2.77,3.66,3.74,5.71,1.18,2.48,2.09,5.08,2.86,7.72.8,2.71,1.45,5.47,1.97,8.25.1.51.19,1.01.27,1.52.94-3.49,2.2-6.89,3.75-10.16,2.64-5.57,6.11-10.74,10.15-15.39,4.08-4.7,8.75-8.89,13.81-12.52,5.09-3.66,10.59-6.75,16.35-9.22,4.39-1.88,8.96-3.45,13.59-4.65,4.51-1.17,9.11-2.01,13.74-2.57,5.01-.6,10.07-.85,15.11-.63,4.84.22,9.69.87,14.34,2.25,2.3.68,4.55,1.56,6.68,2.66,0,0,0,0,0,0,1.65-1.72,3.43-3.34,5.41-4.69,1.89-1.29,3.98-2.33,6.2-2.91,2.34-.61,4.79-.67,7.17-.24,2.31.41,4.6,1.25,6.59,2.5,1.63,1.03,3.05,2.36,4.13,3.97,1.02,1.52,1.71,3.25,2.1,5.04.5-.28,1-.55,1.51-.81,3.37-1.68,6.99-2.83,10.67-3.61,3.88-.82,7.86-1.23,11.82-1.3,3.9-.07,7.81.19,11.66.81,3.48.56,6.93,1.42,10.2,2.74,3.61,1.46,7.06,3.48,10,6.05,3,2.64,5.44,5.89,7.17,9.49,1.71,3.57,2.74,7.42,3.27,11.33.35,2.64.48,5.3.42,7.96,0,0,0-.01.01-.02,1.89-2.67,3.96-5.23,6.29-7.54,2.03-2.02,4.29-3.91,6.87-5.19,2.07-1.02,4.44-1.64,6.73-1.08,2.44.59,4.57,2.24,5.8,4.4,1.29,2.25,1.69,4.91,1.72,7.47.01,1.02-.03,2.03-.12,3.04,1.7-.96,3.48-1.77,5.32-2.43,3.35-1.21,6.85-1.94,10.39-2.3,3.64-.37,7.32-.36,10.96,0,3.53.34,7.03.99,10.44,1.97,3.64,1.04,7.18,2.47,10.5,4.29,3.43,1.88,6.6,4.23,9.35,7.02.09.09.18.19.26.28-4.34-5.31-9.69-9.77-15.81-12.99-10.11-5.34-21.77-6.95-33.05-5.52-1.61.2-3.21.47-4.8.8-.16-1.65-.5-3.29-1.13-4.83-.91-2.24-2.43-4.17-4.52-5.41-2.79-1.65-6.24-2.17-9.4-1.52-4,.82-7.52,3.21-10.53,5.86-.11.1-.22.2-.32.3-.26-.6-.52-1.2-.8-1.79-2.54-5.48-5.82-10.74-10.05-15.09-4.13-4.24-9.07-7.59-14.5-9.93-5.47-2.36-11.37-3.68-17.31-4.08-3.08-.21-6.17-.15-9.25,0-2.81.14-5.63.39-8.41.8-4.02.6-7.99,1.56-11.78,3.01-.77-1.26-1.68-2.44-2.77-3.49-4.35-4.2-10.96-5.66-16.74-4.15-4.59,1.2-8.62,3.95-11.92,7.36-2.48-1.38-5.08-2.51-7.76-3.42-3.09-1.04-6.28-1.78-9.5-2.26-3.34-.49-6.72-.72-10.1-.7-3.52.02-7.05.29-10.54.78-3.57.5-7.11,1.22-10.6,2.15-3.6.95-7.14,2.11-10.61,3.46-3.48,1.35-6.89,2.9-10.21,4.62-3.35,1.75-6.6,3.67-9.74,5.78-3.11,2.09-6.09,4.36-8.94,6.8-2.78,2.38-5.41,4.93-7.85,7.66-2.41,2.68-4.65,5.53-6.65,8.54-1.95,2.93-3.67,6.01-5.11,9.22-.22.5-.44,1-.65,1.51-.73-2.91-1.57-5.8-2.61-8.62-.98-2.65-2.14-5.3-3.75-7.64-1.26-1.82-2.91-3.56-5.06-4.28-2.29-.76-4.66-.08-6.66,1.13-1.48.89-2.82,2.03-3.8,3.46-1.11,1.62-1.75,3.52-2.11,5.44-.8,4.19-.38,8.57.24,12.75.3,2.03.63,4.06,1.05,6.08-1.62-.82-3.32-1.5-5.07-1.96-5.98-1.6-12.41-.94-18.3.76-5.9,1.71-11.47,4.5-16.44,8.09-4.92,3.55-9.32,7.9-12.69,12.96-3.49,5.23-5.66,11.23-6.49,17.46-.86,6.48-.19,13.1,1.68,19.35,1.71,5.71,4.39,11.11,7.74,16.03-.46-.93-.91-1.87-1.34-2.81Z"/>
          <path class="cls-23" d="M623.77,283.52c-.91-1.88-2.79-3-4.72-3.61-2.11-.66-4.39-.8-6.59-.67-2.47.15-4.86.73-7.2,1.54-.24.08-.47.17-.71.26.17-.18.34-.37.49-.56.75-.91,1.51-1.97,1.67-3.16.12-.91-.29-1.83-1.09-2.3-.87-.51-1.93-.49-2.89-.34-2.68.42-5.24,1.88-7.48,3.34-.47.3-.92.63-1.37.96.32-.61.62-1.23.9-1.86.61-1.36,1.14-2.76,1.5-4.21.31-1.27.52-2.61.31-3.91-.16-1.02-.69-2-1.63-2.49-1.27-.66-2.91-.56-4.25-.18-2.08.6-3.81,2.06-5.19,3.69-1.19,1.4-2.18,2.96-3.03,4.59-.01-1.21-.08-2.43-.23-3.63-.21-1.63-.57-3.28-1.34-4.75-.61-1.16-1.57-2.18-2.88-2.51-1.59-.4-3.37.15-4.72,1.01-3.48,2.23-4.55,6.96-4.72,10.81-.1,2.23.08,4.5.57,6.69.17.75.38,1.5.63,2.24-.03-.02-.06-.04-.09-.06-1.28-.83-3.1-1.72-4.56-.8-1.48.93-1.62,3.01-.92,4.45.82,1.69,2.34,3.08,3.82,4.21.18.13.36.26.54.39-1.71.1-3.37.29-5.02.8-1.83.57-3.61,1.41-5.1,2.63-2.85,2.34-4.94,6.44-3.27,10.07,1.49,3.23,5.35,4.85,8.75,4.85,2.55,0,5.1-.77,7.38-1.87.98-.48,1.92-1.03,2.83-1.64-.27.57-.51,1.15-.71,1.74-.58,1.72-1.28,4.48.26,5.93.78.73,1.96.78,2.96.59,1.14-.21,2.12-.92,2.96-1.69,2.14-1.96,3.61-4.67,4.78-7.29.17-.39.34-.79.5-1.19.05.34.1.68.16,1.02.45,2.47,1.45,5.18,3.62,6.65,2.42,1.65,5.82,1.2,8.22-.26,2.5-1.52,3.72-4.31,4.14-7.1.25-1.63.23-3.28.09-4.92-.07-.8-.18-1.6-.32-2.39-.07-.4-.18-.78-.29-1.16,1.73.33,3.57.32,5.21.17,2.15-.19,4.28-.6,6.37-1.15,1.91-.5,3.8-1.09,5.56-1.99,2.13-1.08,4.2-2.51,5.55-4.51,1.3-1.92,1.57-4.3.55-6.4Z"/>
          <path class="cls-23" d="M647.86,299.76c-.82-.77-1.94-1.18-3.04-1.37-2.71-.48-5.59.04-8.15.99-.47.17-.96.38-1.46.61.45-1.85.8-3.83.48-5.69-.13-.78-.45-1.59-1.1-2.08-.73-.55-1.77-.56-2.62-.33-2.48.66-3.55,3.3-3.99,5.59-.27,1.44-.33,2.92-.22,4.38.06.79.17,1.59.38,2.36-.06-.05-.12-.1-.16-.13-.48-.4-.89-.89-1.32-1.34-.39-.42-.8-.86-1.29-1.17-.59-.37-1.31-.61-1.99-.77-3.02-.69-6.03.35-8.13,2.59-1.03,1.1-2.1,2.84-.92,4.22,1.04,1.21,2.84,1.68,4.32,2.06,1.49.38,3.07.59,4.55,1.03-2.97,2.64-6.3,4.88-8.32,8.41-.73,1.29-1.35,2.66-1.78,4.08-.43,1.41-.75,3.02-.37,4.47.36,1.35,1.45,2.35,2.83,2.59,1.52.26,3-.45,4.18-1.34,2.55-1.9,4.38-4.65,6.13-7.26,1.24-1.85,2.47-3.71,3.45-5.71.46-.95.89-1.94,1.2-2.96,1.09,2.12,3.17,3.69,5.68,3.48,1.55-.13,3.44-.85,4-2.44.46-1.29-.18-2.69-.86-3.78-.39-.62-.83-1.2-1.31-1.75.41.07.83.12,1.24.16,1.5.14,3.05.1,4.53-.21,1.4-.29,2.78-.84,3.84-1.82,1.06-.98,1.6-2.39,1.53-3.83-.05-1.16-.46-2.21-1.32-3.01Z"/>
          <path class="cls-23" d="M739.57,232.78c-.74-1.17-1.98-1.9-3.26-2.36-3.25-1.18-7-.99-10.38-.61-1.18.13-2.37.3-3.56.52.52-.64,1.01-1.3,1.43-2.01.55-.92.97-1.84.96-2.92,0-1.06-.23-2.18-.92-3.01-.62-.74-1.5-1.18-2.44-1.34-2.27-.39-4.69.38-6.69,1.42-.41.21-.82.45-1.23.7-.34-2.58-1.33-5.07-2.77-7.23-1.11-1.67-2.51-3.17-4.13-4.35-1.54-1.13-3.39-2.1-5.3-2.37-1.71-.24-3.35.27-4.58,1.49-1.26,1.24-1.94,3-2.32,4.69-.92,4.07-.24,8.4,1.53,12.15,1.02,2.15,2.46,4.14,4.34,5.63,1.37,1.08,2.94,1.83,4.53,2.52-.29.06-.57.14-.85.22-1.37.43-2.71,1.17-3.63,2.3-.85,1.05-1.36,2.57-.81,3.88.5,1.18,1.77,1.62,2.96,1.7.56.04,1.13,0,1.71-.08-2.22,1.95-4.18,4.25-5.85,6.64-2.23,3.2-4.01,6.89-4.43,10.8-.2,1.85-.08,3.8.54,5.56.49,1.4,1.42,2.67,2.94,2.99,1.46.3,2.99-.19,4.27-.86,1.59-.83,2.99-1.95,4.28-3.19,2.48-2.37,4.55-5.29,5.74-8.52.17.98.42,1.94.83,2.83.38.84.92,1.67,1.78,2.06.95.43,2.01.19,2.89-.29,2.14-1.17,3.53-3.17,4.26-5.45.69-2.16.92-4.56.45-6.8-.11-.5-.26-.98-.45-1.44.32.03.64.05.93.07,2.3.1,4.55-.26,6.72-1,2.53-.87,4.97-2.18,7.02-3.92,1.9-1.61,3.5-3.65,4.04-6.12.32-1.46.29-3.01-.53-4.3Z"/>
          <path class="cls-23" d="M780.72,230.37c-.62-.86-1.57-1.4-2.56-1.72-2.45-.79-5.26-.51-7.74,0-1.44.29-2.87.71-4.24,1.26-.42.17-.84.36-1.25.57.71-1.03,1.39-2.08,1.91-3.22.78-1.68,1.32-3.48,1.47-5.33.11-1.37.03-2.81-.43-4.12-.38-1.08-1.08-2.14-2.26-2.42-1.32-.31-2.71.36-3.74,1.14-1,.76-1.81,1.74-2.45,2.81-1.39,2.33-2.06,5.08-2.3,7.76-.14,1.67-.14,3.43.16,5.12-.64-.44-1.35-.78-2.04-1.05-1.78-.67-4.01-.85-5.61.37-1.21.92-2.16,2.75-1.12,4.14.93,1.24,2.7,1.77,4.13,2.15,1.15.3,2.31.5,3.48.68-1.99.95-4.09,1.67-5.99,2.8-1.88,1.12-3.47,2.7-4.86,4.4-2.14,2.62-5.11,7.52-1.4,10.19,2.34,1.69,5.51.34,7.68-.97,3.02-1.81,5.63-4.39,7.82-7.13,1.03-1.29,1.99-2.64,2.78-4.09,0,0,0,0,0,0,.83,1.66,2.48,3.07,4.04,3.67,1.83.71,3.66.32,5.14-.94.71-.6,1.3-1.41,1.35-2.37.05-.82-.31-1.61-.79-2.25-.56-.74-1.26-1.38-2.04-1.93,1.79.03,3.61-.22,5.26-.67,2.81-.77,5.83-2.47,6.25-5.64.15-1.11,0-2.29-.67-3.21Z"/>
          <path class="cls-23" d="M833.95,302.76c-.65-.88-1.73-1.35-2.75-1.63-2.87-.8-6.06-.6-8.98-.22-1.4.18-2.79.44-4.15.8.09-.22.17-.44.23-.66.51-1.82.29-3.85-1.17-5.15-1.36-1.22-3.37-1.34-5.08-1.01-1.98.38-3.86,1.36-5.34,2.73-.27.25-.54.53-.78.82-.51-.39-1.04-.75-1.58-1.07-3.16-1.89-6.88-2.97-10.53-3.32-3.2-.31-6.83-.07-9.54,1.83-1.46,1.02-2.49,2.54-2.86,4.28-.47,2.2.02,4.52,1.1,6.48,1.19,2.15,3.1,3.66,5.45,4.37,2.78.85,5.74.6,8.59.39.21-.02.43-.03.64-.05-1.1.99-1.99,2.28-2.7,3.49-1.05,1.78-2.11,4.07-1.69,6.19.39,1.96,2.46,3,4.31,2.48,2.17-.61,3.97-2.37,5.35-4.09.5,1.64,1.63,3.14,3.17,3.89,1.96.96,4.32.65,6.09-.57,1.78-1.22,2.81-3.23,3.23-5.3.35-1.73.29-3.57-.22-5.27,3.25,1.2,6.97,1.3,10.3.55,3.75-.84,7.8-3.13,9.16-6.95.36-1,.39-2.13-.26-3.02Z"/>
          <path class="cls-23" d="M879.05,295.95c-1.6-1.64-4.19-1.94-6.37-1.95-1.13,0-2.3.07-3.46.24,2.68-2.83,3.58-7.7-.26-9.78-4.41-2.39-9.12,2.21-11,5.85-.35.69-.67,1.42-.9,2.18-.88-1.81-2.32-3.52-4.47-3.6-2.13-.08-4.13,1.21-4.49,3.37-.34,2.09.6,4.31,1.5,6.14.63,1.28,1.38,2.58,2.26,3.75-1.39-.02-2.84.45-4.03,1.08-2.02,1.06-4.1,2.84-4.67,5.14-.51,2.06.6,4.41,2.75,4.96,2.25.57,4.64-.71,6.47-1.88,1.02-.65,1.99-1.38,2.92-2.15-.02.04-.04.08-.05.11-.6,1.31-1.06,2.69-1.36,4.1-.52,2.4-.8,5.63,1.25,7.43,1,.88,2.46,1.13,3.75,1.04,1.4-.1,2.67-.63,3.72-1.56,2.07-1.83,2.88-4.77,3.19-7.41.19-1.61.19-3.23.04-4.84-.08-.86-.21-1.73-.41-2.57,2.05.54,4.24.68,6.32.48,2.71-.26,5.56-1.19,7.2-3.5,1.32-1.85,1.81-4.87.1-6.63Z"/>
        </g>
      </g>
      <g id="Father">
        <g id="Legs">
          <g>
            <g id="Feet-2" data-name="Feet">
              <path class="cls-39" d="M262.58,722.31c-5.41,1.21-11.36-.46-14.84-.41-.04,0-.07,0-.1.03-.4.23.26,1.68-.17,1.99-.15.1-.36.03-.43.01-1.16-.34-8.71-.31-12.91,1.13-1.66.57-4.09,1.81-6.55,4.86,5.66.36,11.59.61,17.76.71,6.17.1,12.09.03,17.76-.16.01-1.14,0-2.35-.08-3.61-.09-1.62-.24-3.14-.43-4.54Z"/>
              <path class="cls-5" d="M263.54,734.67c-12.09.01-24.18.03-36.27.04-.13-.03-1.5-.38-1.89-1.49-.41-1.18.41-2.83,2.15-3.44,11.84.1,23.69.2,35.53.29.22.52.48,1.27.58,2.2.11,1,0,1.83-.11,2.4Z"/>
              <path class="cls-5" d="M230.28,727.36c1.37-.02,3.63.14,6.11,1.23,1.45.64,2.57,1.42,3.38,2.09h4.73c-.71-.95-2.21-2.7-4.73-3.97-2.53-1.28-4.83-1.45-6.03-1.46-1.15.71-2.3,1.41-3.46,2.12Z"/>
              <path class="cls-5" d="M246.36,723.8c1.23.44,2.99,1.22,4.8,2.66,1.6,1.27,2.68,2.61,3.38,3.61h-4.24c-.6-.76-1.35-1.58-2.28-2.36-3.23-2.7-6.81-3.45-8.78-3.69.92-.1,1.89-.18,2.92-.23,1.5-.07,2.91-.06,4.21,0Z"/>
            </g>
            <path id="Leg" class="cls-22" d="M247.74,721.91c-3.42-6-7.07-13.43-10.22-22.23-3.08-8.62-4.96-16.52-6.13-23.22,5.52,1.13,11.71,2.1,18.5,2.71,7.28.65,13.96.77,19.92.59-1.19,4.6-2.3,9.44-3.3,14.5-2.04,10.33-3.29,20.05-4.01,28.99-1.82.42-4.58.83-7.9.47-2.92-.31-5.26-1.11-6.87-1.81Z"/>
          </g>
          <g>
            <g id="Feet-3" data-name="Feet">
              <path class="cls-39" d="M282.11,722.31c5.41,1.21,11.36-.46,14.84-.41.04,0,.07,0,.1.03.4.23-.26,1.68.17,1.99.15.1.36.03.43.01,1.16-.34,8.71-.31,12.91,1.13,1.66.57,4.09,1.81,6.55,4.86-5.66.36-11.59.61-17.76.71-6.17.1-12.09.03-17.76-.16-.01-1.14,0-2.35.08-3.61.09-1.62.24-3.14.43-4.54Z"/>
              <path class="cls-5" d="M281.16,734.67c12.09.01,24.18.03,36.27.04.13-.03,1.5-.38,1.89-1.49.41-1.18-.41-2.83-2.15-3.44-11.84.1-23.69.2-35.53.29-.22.52-.48,1.27-.58,2.2-.11,1,0,1.83.11,2.4Z"/>
              <path class="cls-5" d="M314.42,727.36c-1.37-.02-3.63.14-6.11,1.23-1.45.64-2.57,1.42-3.38,2.09h-4.73c.71-.95,2.21-2.7,4.73-3.97,2.53-1.28,4.83-1.45,6.03-1.46,1.15.71,2.3,1.41,3.46,2.12Z"/>
              <path class="cls-5" d="M298.34,723.8c-1.23.44-2.99,1.22-4.8,2.66-1.6,1.27-2.68,2.61-3.38,3.61h4.24c.6-.76,1.35-1.58,2.28-2.36,3.23-2.7,6.81-3.45,8.78-3.69-.92-.1-1.89-.18-2.92-.23-1.5-.07-2.91-.06-4.21,0Z"/>
            </g>
            <path id="Leg-2" data-name="Leg" class="cls-22" d="M296.96,721.91c3.42-6,7.07-13.43,10.22-22.23,3.08-8.62,4.96-16.52,6.13-23.22-5.52,1.13-11.71,2.1-18.5,2.71-7.28.65-13.96.77-19.92.59,1.19,4.6,2.3,9.44,3.3,14.5,2.04,10.33,3.29,20.05,4.01,28.99,1.82.42,4.58.83,7.9.47,2.92-.31,5.26-1.11,6.87-1.81Z"/>
          </g>
        </g>
        <g id="Chest_Hands" data-name="Chest &amp;amp; Hands">
          <g id="Shirt">
            <path class="cls-6" d="M326.74,650.18c-.12-9.68-.33-22.23-2.73-36.76-.71-4.33-1.62-8.83-2.77-13.48-.6-2.44-1.28-4.93-2.04-7.45-.1-.34-.2-.67-.3-1.01-.06-.2-.12-.4-.18-.59-.44-1.43-.91-2.88-1.4-4.34-2.84-8.38-7.5-19.95-15.29-32.95h0s-.02-.03-.02-.05c-20.25-.02-40.48-.06-60.73-.08h-1.58c-4.92,8.97-9.96,19.76-14.22,32.31-.02.05-.03.09-.05.13-.52,1.53-1.02,3.09-1.51,4.68-.3.95-.59,1.9-.87,2.87-2.27,7.71-3.99,15.2-5.23,22.39-4.07,23.3-3.37,43.49-1.8,57.98,4.45,1.57,9.75,3.23,15.78,4.71,10.33,2.57,22.84,4.67,37.08,5.05,1.36.04,2.74.06,4.14.06.96,0,1.91,0,2.85-.02,14.22-.18,26.7-2.1,36.96-4.48,4.83-1.13,9.17-2.35,12.96-3.54.52-5.91,1.1-14.72.97-25.41ZM229.07,590.53c.25-.03.52-.06.78-.06-.25.18-.48.39-.68.63l-.1-.57ZM229.71,602.32c.13.15.27.29.42.42-.21.1-.4.21-.59.32l-.28-.53c.15-.07.3-.14.45-.21ZM227.44,595.14c-.11.02-.23.03-.34.06l-.11-.78c.19-.02.38-.04.57-.05-.06.25-.1.51-.12.77Z"/>
            <g class="cls-65">
              <g>
                <path class="cls-3" d="M223.63,546.75h3.72c-.14,48.25-.27,96.51-.41,144.76-1.46-.49-2.19-.75-3.64-1.28.11-47.83.22-95.65.33-143.48Z"/>
                <path class="cls-3" d="M214.37,546.75h1.86c-.03,46.87-.05,93.74-.08,140.61-.71-.31-1.07-.47-1.78-.79v-139.82Z"/>
                <path class="cls-3" d="M233.34,546.75h6.22c-.17,49.41-.33,98.82-.5,148.23-2.5-.59-3.74-.91-6.21-1.62.16-48.87.32-97.74.48-146.61Z"/>
                <path class="cls-3" d="M246.7,546.75h8.5c-.11,50.33-.22,100.66-.33,150.99-2.88-.32-5.77-.75-8.63-1.27.15-49.91.3-99.82.45-149.73Z"/>
                <path class="cls-3" d="M262.34,546.75h9.26c0,50.63.02,101.25.03,151.88-3.15.04-6.33-.04-9.47-.24.06-50.54.12-101.09.18-151.63Z"/>
                <path class="cls-3" d="M290.43,546.75c3.9,0,7.79,0,11.69,0,.17,49.34.33,98.67.5,148.01-3.89.95-7.82,1.72-11.78,2.33-.14-50.11-.27-100.22-.41-150.34Z"/>
                <path class="cls-3" d="M310.62,546.75h7.14c.1,47.75.21,95.51.31,143.26-2.78,1.04-4.18,1.52-7,2.4-.15-48.55-.3-97.11-.45-145.66Z"/>
                <path class="cls-3" d="M324.28,546.75h2.13c0,46.61,0,93.21,0,139.82-.81.37-1.22.55-2.03.9-.03-46.91-.06-93.81-.09-140.72Z"/>
              </g>
            </g>
            <g id="Shoulders">
              <g>
                <path class="cls-51" d="M208.65,586.07c2.97-6.15,8.33-15.14,17.68-23.33,4.71-4.12,9.35-7.11,13.35-9.27-2.36,4.53-4.71,9.35-6.99,14.45-3.84,8.59-6.99,16.82-9.57,24.54-1.25.22-4.49.6-8.11-.97-3.73-1.62-5.68-4.36-6.36-5.42Z"/>
                <path class="cls-51" d="M333.41,586.07c-2.84-6.02-8.14-15.14-17.68-23.33-4.87-4.19-9.68-7.13-13.75-9.19,2.49,4.42,4.98,9.21,7.38,14.38,4.05,8.7,7.16,16.97,9.57,24.54,1.25.22,4.49.6,8.11-.97,3.73-1.62,5.68-4.36,6.36-5.42Z"/>
              </g>
            </g>
            <g id="Collar">
              <path class="cls-20" d="M270.29,572.08h4.91v25.77c0,.69-.56,1.26-1.26,1.26h-2.55c-.61,0-1.1-.49-1.1-1.1v-25.93h0Z"/>
              <g>
                <ellipse class="cls-37" cx="272.85" cy="587.27" rx="1.5" ry="1.68"/>
                <ellipse class="cls-7" cx="272.85" cy="587.27" rx=".89" ry=".99"/>
              </g>
              <g>
                <ellipse class="cls-37" cx="272.85" cy="575.67" rx="1.5" ry="1.68"/>
                <ellipse class="cls-7" cx="272.85" cy="575.67" rx=".89" ry=".99"/>
              </g>
            </g>
            <g id="Pocket">
              <path class="cls-14" d="M304.19,609.71h-20.27v-21.06c.36-.64.99-1.52,2.04-2.04,2.63-1.3,4.35,1.43,8.48,1.1,2.27-.18,5.4-1.3,7.39-1.1,1.04.11,1.53.55,1.67.69.43.43.69,1.02.69,1.67v20.74Z"/>
              <path class="cls-37" d="M284.93,589.91c2.1-3.41,5.99,0,8.99-.42,1.58,0,3.14-.37,4.72-.71,1.49-.39,3.61-.56,4.35,1.14,0,0-.02.01-.02.01-.81-1.63-2.81-1.38-4.29-.99-1.56.37-3.13.77-4.75.79-3.13.37-6.68-3.02-8.99.19h0Z"/>
            </g>
          </g>
          <path id="Chest-2" data-name="Chest" class="cls-44" d="M275.2,572.08h-4.91c-1.93-3.82-3.85-7.65-5.78-11.47h15.87c-1.73,3.82-3.46,7.65-5.19,11.47Z"/>
          <g id="Hands-2" data-name="Hands">
            <path class="cls-13" d="M321.45,597.61v.66c-.06,1.6-.52,3.15-1.41,4.33-1.57,2.11-4.07,2.55-6.94,3.01-4.69.75-13.45.73-14.61-2.88-1.09-3.38,5.04-8.24,9.2-10.36,2.96-1.51,7.03-3.59,10.3-1.58.24.14.46.31.67.49.25.2.48.42.68.66.62.68,1.1,1.51,1.45,2.4.1.24.18.48.25.74.25.82.38,1.68.4,2.54Z"/>
            <path class="cls-30" d="M321.05,595.07c-1.52-.19-3.07-.12-4.6.22-1.79.4-3.51,1.17-5.02,2.27,1.43-1.2,3.11-2.12,4.91-2.66,1.43-.44,2.94-.63,4.45-.57.1.24.18.48.25.74Z"/>
            <path class="cls-30" d="M321.44,598.27c-.22-.07-.46-.13-.69-.19-.15-.04-.3-.07-.45-.1-.97-.2-1.97-.28-2.96-.22-1.62.08-3.23.49-4.7,1.23,1.42-.83,3.01-1.38,4.67-1.58.99-.13,2-.13,3.01,0,.09,0,.17.02.26.04.29.03.58.09.86.16v.66Z"/>
            <path class="cls-30" d="M319.34,591.94c-2.65-.39-5.41.76-7.16,2.83,1.48-2.06,3.91-3.41,6.47-3.49.25.2.48.42.68.66Z"/>
            <path class="cls-13" d="M208.82,586.88c-2.32,4.89-3.61,9.17-4.36,12.28-1.62,6.76-1.12,9.7-.79,11.09,0,0,.7,2.98,2.38,5.55,5.32,8.12,28.15,6.78,34.87,6.34,13.12-.87,29.01-2.21,47.15-4.36-2.7-.54-5.4-1.08-8.1-1.62-5.15-1.03-8.79-2.53-10.39-3.08-13.56-4.7-33.41-9.16-34.2-9.16s-4.75-.79-7.92-.79c-1.66,0-4.88.18-5.55-.79-.67-.97.13-2.3.79-4.75.41-1.52.81-3.65.79-6.34-4.89-1.45-9.77-2.91-14.66-4.36Z"/>
            <path class="cls-39" d="M333.62,608.67c-3.04,1.68-6.51,3.32-10.41,4.75-.74.28-1.5.55-2.27.8-12.36,4.1-23.76,4.34-32.35,3.51h-.03c-2.37-.23-4.52-.54-6.42-.86-1.62-.51-3.25-1.01-4.9-1.51-.02,0-.05-.02-.07-.02-1.3-.4-2.61-.79-3.93-1.19-4.37-1.32-8.8-2.61-13.31-3.88-7.46-2.11-14.79-4.07-21.98-5.88,0,0-.02,0-.03,0-.44-.12-.88-.23-1.32-.34-.19.02-.37.06-.55.08h-.02c-2.1.26-3.99.31-5.66-.63-.18-.1-.36-.22-.54-.35-.17-.12-.32-.25-.48-.38-.15-.13-.29-.27-.42-.42-.82-.86-1.43-1.94-1.82-3.11-.08-.25-.16-.5-.21-.76-.27-1.09-.36-2.23-.24-3.31.02-.26.06-.52.12-.77.22-1.17.71-2.26,1.47-3.13.04-.05.08-.1.13-.13.21-.24.44-.44.68-.63,2.6-1.98,6.54-1.32,9.49-.82,2.92.49,6.94,1.8,9.47,3.6,1.21.55,2.84,1.24,4.79,1.95,8.3,3.05,16.22,4.3,30.33,4.67,1.44.04,2.96.06,4.54.09,3.17.04,6.66.05,10.44,0h0c1.75-.02,3.51-.06,5.29-.1,5.44-.14,10.76-.37,15.97-.68.16-.88.31-2.28,0-3.96-.34-1.84-1.08-3.19-1.58-3.96,4.74-2.02,9.58-3.96,14.52-5.84.44-.17.88-.33,1.32-.5.74,2.71,1.44,6.2,1.58,10.3.2,5.57-.69,10.21-1.58,13.47Z"/>
            <path class="cls-30" d="M226.89,598.45c3.43-.92,7.16-.33,10.06,1.51-3.04-1.62-6.7-1.86-9.85-.74l-.21-.76Z"/>
            <path class="cls-30" d="M236.23,602.1c-2.31-.67-4.81-.41-6.89.64-.15-.13-.29-.27-.42-.42,2.31-1.02,4.99-1.09,7.31-.22Z"/>
            <path class="cls-30" d="M236.75,597.57c-1.51-1.1-3.23-1.88-5.02-2.27-1.68-.38-3.41-.42-5.09-.16.02-.26.06-.52.12-.77,1.72-.13,3.45.05,5.07.54,1.81.55,3.49,1.46,4.91,2.66Z"/>
            <path class="cls-30" d="M236,593.97c-1.85-2.19-4.82-3.34-7.61-2.75l-.02-.12c.21-.24.44-.44.68-.63,2.73-.08,5.38,1.3,6.95,3.49Z"/>
          </g>
        </g>
        <g id="Face-2" data-name="Face">
          <g id="Ears-3" data-name="Ears">
            <g id="Ear">
              <ellipse class="cls-44" cx="222.01" cy="526.5" rx="10.61" ry="11.93"/>
              <path class="cls-49" d="M215.96,521.96c2.92-3.58,8.52-2.71,10.72,1.27,0,0-.45.23-.45.23-2.31,1.21-4.03,3.49-4.62,6.19-.05-2.85,1.67-5.63,4.18-7,0,0-.17.66-.17.66-2.13-3.19-6.65-3.8-9.67-1.35h0Z"/>
            </g>
            <g id="Ear-2" data-name="Ear">
              <g>
                <ellipse class="cls-44" cx="316.15" cy="526.5" rx="10.61" ry="11.93"/>
                <path class="cls-49" d="M322.2,521.96c-3.02-2.45-7.54-1.84-9.67,1.35,0,0-.17-.66-.17-.66,2.51,1.37,4.23,4.16,4.18,7-.59-2.71-2.31-4.98-4.62-6.19l-.45-.23c2.2-3.98,7.8-4.85,10.72-1.27h0Z"/>
              </g>
            </g>
          </g>
          <path id="Base_Face_Shape" data-name="Base Face Shape" class="cls-39" d="M226.64,516.3c-.39,2.28-3.17,20.18,9.11,32.69,4.94,5.03,10.52,7.36,14.15,8.48,4.99,1.72,12.79,3.74,22.47,3.61,8.82-.11,15.97-1.97,20.74-3.61,2.64-.68,10.36-3.05,16.34-10.53,7.24-9.06,6.77-19.16,6.6-21.53-.95-7.08-2.42-15.02-4.71-23.57-1.94-7.26-4.17-13.82-6.44-19.64-8.75,1.75-19.59,3.16-32.05,3.14-14.53-.02-26.97-2-36.61-4.24-2.17,5.42-4.3,11.62-6.13,18.54-1.57,5.96-2.68,11.55-3.46,16.66Z"/>
          <g id="Mouth">
            <path class="cls-47" d="M278.36,536.51c-1.89,1.8-4.12,2.24-5.08,2.36-.83-.04-3.98-.29-6.53-2.83-3.53-3.52-2.79-8.35-2.71-8.84,1.2.24,2.57.46,4.06.61.18.02.37.04.55.05,1.38.12,2.87.18,4.46.16,1.44-.03,2.78-.12,4.04-.26.08,0,.15-.02.22-.03,1.23-.14,2.37-.33,3.4-.54.07.29,1.31,5.75-2.41,9.31Z"/>
            <path class="cls-8" d="M264.42,532.17c.76-.22,3.58-.93,6.69.45,3.39,1.5,4.74,4.41,5.03,5.09-.35.27-.89.62-1.61.86-2.4.8-4.65-.36-5.54-.82-.71-.37-1.92-1.12-2.99-2.47-.93-1.19-1.37-2.37-1.58-3.1Z"/>
            <path class="cls-17" d="M277.15,527.77c-1.27.15-2.69.26-4.24.28-1.55.02-2.98-.06-4.26-.18-.19-.02-.37-.03-.55-.05.23.46.81,1.46,2.03,2.12,1.26.69,2.45.6,2.87.55.37.03,1.5.06,2.64-.66,1.12-.7,1.59-1.7,1.74-2.09l-.22.03Z"/>
          </g>
          <g id="Moustache">
            <path class="cls-32" d="M273.07,518.34c-1.12-.58-2.63-1.19-4.48-1.49-4.89-.79-8.81,1.13-10.29,1.96-1.65,1.22-3.15,2.01-4.24,2.51-2.12.98-3.96,1.83-6.36,1.73-1.89-.08-3.37-.71-4.24-1.18.32,1.29,1.12,3.69,3.22,5.81,4.17,4.19,9.9,3.7,10.76,3.61,2.72.15,4.87-.29,6.24-.67,1.83-.51,4.62-1.3,6.88-3.81,1.03-1.14,1.63-2.29,1.96-3.06.27-.6.59-1.52.71-2.67.12-1.15-.02-2.11-.16-2.75Z"/>
            <path class="cls-32" d="M273.48,518.34c1.12-.58,2.63-1.19,4.48-1.49,4.89-.79,8.81,1.13,10.29,1.96,1.65,1.22,3.15,2.01,4.24,2.51,2.12.98,3.96,1.83,6.36,1.73,1.89-.08,3.37-.71,4.24-1.18-.32,1.29-1.12,3.69-3.22,5.81-4.17,4.19-9.9,3.7-10.76,3.61-2.72.15-4.87-.29-6.24-.67-1.83-.51-4.62-1.3-6.88-3.81-1.03-1.14-1.63-2.29-1.96-3.06-.27-.6-.59-1.52-.71-2.67-.12-1.15.02-2.11.16-2.75Z"/>
          </g>
          <circle id="Nose-2" data-name="Nose" class="cls-44" cx="273.23" cy="516.54" r="4.16"/>
          <path id="Hair" class="cls-32" d="M237.49,481.58c3.79,1.84,9.29,4.2,16.18,6.13,8.59,2.4,19.12,5.35,31.74,2.83,4.48-.89,11.62-2.96,19.48-8.33,1.72,5.16,3.41,10.56,5.03,16.18,1.58,5.5,2.99,10.85,4.24,16.03,8.14-11.2,9.22-23.87,3.46-30.95-1.21-1.48-3.69-3.93-8.48-5.34,1.71-1.81,4.99-5.86,5.34-11.47.54-8.62-6.02-17.43-16.5-21.21,1.36,3.24.91,5.41.58,6.42-1.7,5.22-9.78,8.7-19.91,7.09-4.74-1.96-10.99-3.75-18.38-3.93-4.74-.12-11.79-.29-19.48,3.61-5.67,2.88-9.31,6.76-11.31,9.27-.66,1.03-1.57,2.74-2.04,5.03-.53,2.57-.26,4.72,0,5.97-2.07,1-5.27,2.86-8.33,6.13-3.15,3.37-4.8,6.79-5.66,8.96-.29,2.33-.46,6.04.63,10.37,1.32,5.23,3.84,8.89,5.42,10.84.95-.25,2.56-.53,4.48-.16.95.19,1.75.49,2.36.79v4.87l2.83,1.89c.25-5.16.74-9.5,1.2-12.78.73-5.13,1.62-9.32,1.94-10.79,2.28-10.41,2.53-8.9,2.51-11,0-.95-.11-3.34,1.41-5.26.45-.56.92-.94,1.26-1.18Z"/>
          <g id="Eyes-3" data-name="Eyes">
            <g id="Eye">
              <ellipse class="cls-43" cx="255.55" cy="508.09" rx="9.43" ry="10.49"/>
              <ellipse class="cls-15" cx="256.85" cy="509.31" rx="7.58" ry="8.09"/>
              <circle class="cls-43" cx="254.61" cy="507.52" r="3.45"/>
            </g>
          </g>
          <g id="Eyes-4" data-name="Eyes">
            <g id="Eye-2" data-name="Eye">
              <ellipse class="cls-43" cx="291.81" cy="508.09" rx="9.43" ry="10.49"/>
              <ellipse class="cls-15" cx="290.51" cy="509.31" rx="7.58" ry="8.09"/>
              <circle class="cls-43" cx="288.19" cy="507.52" r="3.45"/>
            </g>
          </g>
          <g id="Eyebrow">
            <path id="Eyebrows-2" data-name="Eyebrows" class="cls-46" d="M257.78,496.55c-.52-.14-1.11-.24-1.75-.28-1.13-.07-2.14.08-3,.32-1.61.45-3.21,1.41-3.76,1.27-.33-.09-.63-.27-.84-.53-.51-.65-.42-1.69.29-2.32.89-.69,3.09-2.2,6.25-2.39,1.84-.11,3.35.26,4.3.59,1.11.47,1.7,1.58,1.47,2.53-.09.36-.27.64-.48.86-.38.39-1.53.2-2.48-.05Z"/>
            <path id="Eyebrows-3" data-name="Eyebrows" class="cls-46" d="M287.53,496.55c.52-.14,1.11-.24,1.75-.28,1.13-.07,2.14.08,3,.32,1.61.45,3.21,1.41,3.76,1.27.33-.09.63-.27.84-.53.51-.65.42-1.69-.29-2.32-.89-.69-3.09-2.2-6.25-2.39-1.84-.11-3.35.26-4.3.59-1.11.47-1.7,1.58-1.47,2.53.09.36.27.64.48.86.38.39,1.53.2,2.48-.05Z"/>
          </g>
        </g>
      </g>
      <g id="Main_Character" data-name="Main Character">
        <g id="Bottom">
          <path class="cls-5" d="M401.21,760.71s-4.2,6.67-3.39,15.59,29.22,24.35,42.21,25.16c0,0,6.44-.94,8.09-9.81l-46.91-30.95Z"/>
          <path class="cls-5" d="M492.12,751.78c-1.67,2.41-4.35,7.11-3.39,12.35,1.34,7.25,8.84,11.02,16.23,14.61,6.22,3.02,17.16,7.18,32.47,7.31,1.36-.21,4.39-.86,7.31-3.25,3.28-2.69,4.47-6,4.87-7.31-19.16-7.9-38.33-15.81-57.49-23.71Z"/>
          <path class="cls-11" d="M406.72,753.61l21.93,5.72,17.87,23.47c2.44,3.16,2.74,7.41.81,10.55-2.35,3.83-7.64,5.4-12.18,3.25-8.98-4.47-15.7-9.28-20.29-12.99-8.97-7.25-14.79-12.09-14.61-18.67.14-5.16,3.91-9.14,6.46-11.33Z"/>
          <path class="cls-11" d="M496.82,746.3l21.93,5.72c3.95,1.71,8.02,3.57,12.19,5.61,5.47,2.67,10.61,5.4,15.42,8.12.71.82,4.84,5.76,3.25,9.74-1.52,3.8-7.33,4.42-12.18,4.87-3.24.3-17.67,1.32-34.09-8.93-6.99-4.36-12.75-7.95-12.99-13.8-.23-5.57,4.67-9.89,6.46-11.33Z"/>
          <path class="cls-21" d="M420.55,689.46c.8,2.73,1.63,6.63,1.62,11.36,0,4.66-.83,8.51-1.62,11.22-1.05,6.4-2.59,13.56-4.87,21.25-2.46,8.3-5.3,15.63-8.12,21.92-.24.67-2.2,6.3.81,10.55,3.25,4.59,11.15,5.97,17.86,1.62,3.58-7,7.24-15.13,10.55-24.35,3.27-9.09,5.61-17.58,7.31-25.16,1.68-3.23,3.56-7.6,4.87-12.99,1.22-5.03,1.59-9.49,1.62-12.99-10.01-.81-20.02-1.62-30.03-2.44Z"/>
          <path class="cls-21" d="M491.86,689.46c.85,7.03,1.71,14.07,2.56,21.1v38.15c-.22,5.72,2.57,10.73,6.49,12.18,5.35,1.98,13.65-2.36,15.42-11.36.2-5.84.47-11.8.81-17.86.44-7.76.99-15.34,1.62-22.73.54-7.31,1.08-14.61,1.62-21.92-9.51.81-19.02,1.62-28.53,2.44Z"/>
          <path class="cls-52" d="M420.55,642.38c-1.44,3.55-2.81,7.34-4.06,11.36-4.48,14.42-6.14,27.76-6.49,38.96,5.38,1.86,11.63,3.6,18.67,4.87,12.28,2.21,23.13,2.26,31.66,1.62,1.97-4.03,4.09-9.21,5.68-15.42,1.59-6.21,2.23-11.76,2.44-16.23,1.5,4.28,4.15,10.21,8.93,16.23,3.06,3.86,6.22,6.78,8.93,8.93,4.24,1.23,11.45,2.72,20.29,1.62,7.08-.88,12.62-3.09,16.23-4.88-1.11-8.11-3.06-17.78-6.49-28.4-3.43-10.6-7.52-19.56-11.36-26.79-28.14,2.71-56.28,5.41-84.42,8.12Z"/>
        </g>
        <g id="Body-2" data-name="Body">
          <path class="cls-21" d="M628.35,544.98c-.1.66-.87,1.26-1.76,1.15-.19-.03-.4-.06-.6-.04-6.11.48-12.22.97-18.34,1.44l12.58,1.5c.96.2,1.62.93,1.62,1.62,0,.88-1.06,1.86-2.44,1.62-4.17-.54-8.34-1.08-12.51-1.62l10.07,5.68c.94.57,1.23,1.69.81,2.44-.3.53-.94.84-1.62.81-2.15-1.11-4.59-2.22-7.31-3.25-1.03-.39-2.05-.74-3.03-1.06-1.18-.38-2.39-.57-3.63-.57h-12.82c-11.27,1.56-24.38,2.61-38.96,2.44-11.95-.15-22.83-1.1-32.47-2.44.1-5.4.19-10.8.28-16.19,7.52-1.51,16.13-2.75,25.69-3.29,14.03-.79,26.39.15,36.53,1.62,2.7.27,5.41.54,8.12.81.89-.63,2.27-1.54,4.06-2.44,3.79-1.89,6.38-2.19,9.74-3.25,2.21-.69,5.32-1.88,8.93-4.06,1.31-.76,2.83-.2,3.25.81.31.76,0,1.79-.81,2.44-2.98,1.62-5.95,3.25-8.93,4.87l19.23-1.06c.76-.04,1.53.37,1.79,1.09.09.25.12.52.09.79-.09.66-.57,1.22-1.23,1.44-6.01.9-12.03,1.8-18.05,2.71l20.1,2.35c1.04.02,1.73.91,1.62,1.62Z"/>
          <path class="cls-2" d="M521.2,558.77c-3.31.38-6.83.91-10.55,1.62-3.77.72-7.3,1.55-10.55,2.44-.29,9.11-.12,19.17.81,30.03,1.5,17.39,4.62,32.68,8.12,45.45-8.74,2.63-18.8,4.98-30.03,6.49-24.67,3.3-45.96,1.29-61.69-1.62.93-8.15,1.54-17.11,1.62-26.79.05-5.73-.11-11.24-.4-16.5-.42-7.47-1.14-14.43-2.04-20.84-3.61-.77-9.08-1.52-15.59-.77-.76.08-1.54.19-2.34.32-.77.12-1.56.27-2.36.45-4.18.92-7.69,2.28-10.47,3.62-.31.15-.61.29-.89.44.19-4.85,1.42-20.03,12.99-34.09,8.23-10.01,22.27-20.29,31.66-19.48,1.15.1,5.15.62,10.55,0,1.56-.18,3.74-.66,8.12-1.62,7.22-1.59,10.29-2.52,15.5-2.62.74-.01,1.26,0,2.2,0,3.77.06,7.91.36,12.33.99,5.52.8,10.41,1.97,14.61,3.25,4.88.62,10.03,1.41,15.42,2.44,5.15.98,10.03,2.08,14.61,3.25-.97,2.48-1.97,5.78-2.44,9.74-.68,5.78.05,10.6.81,13.8Z"/>
          <path class="cls-21" d="M470.88,535.24c.67-.67.67-1.77,0-2.44s-1.77-.67-2.44,0c-2.64,1.98-5.51,3.65-8.12,5.68,0,0-3.12,2.42-5.68,2.44,0,0-.02,0-.03,0-.19-.19,2.76-3.34,4.9-5.67,1.61-1.75,3.84-4.22,6.49-7.31.51-.77.5-1.75,0-2.44,0,0,0-.02-.02-.02-.04-.06-.09-.11-.14-.15-.58-.57-1.54-.57-2.18-.02t-.02.02c-2.86,2.43-13.27,11.31-15.19,13.19.98-1.25,4.16-5.77,8.17-11.54.29-.43.54-.89.71-1.38.03-.08.06-.16.08-.25.38-1.4.27-2.62-.34-3.08-.88-.66-3.14.04-4.87,2.44-.41.6-.84,1.2-1.25,1.8-2.56,3.69-5.11,7.39-7.68,11.08.14-1.57.19-3.46,0-5.58-.13-1.44-.34-2.74-.59-3.9-.03-.14-.06-.27-.12-.4-.32-.8-1.03-1.41-1.89-1.44-.22-.02-.43,0-.64.06-.83.23-1.49,1.01-1.66,1.98-.07.4-.06.83.04,1.27-.19,3.77-.8,8.52-2.44,13.8-.97,3.1-2.11,5.82-3.25,8.12-7.12,4.13-15.37,9.89-23.54,17.86-3.11,3.04-5.86,6.06-8.29,8.97-.22.26-.43.52-.64.77-.47-.15-1.04-.31-1.7-.45-.77.12-1.56.27-2.36.45-4.18.92-7.69,2.28-10.47,3.62-1.71,3.6-3.84,10.1-1.7,17.48,1.74,6.01,5.46,9.75,7.31,11.36,3.35.1,8.73-.15,14.61-2.44,4.37-1.7,7.89-4.09,12.59-9.2,4.01-4.33,8.86-10.59,15.82-20.02,3.86-5.24,8.66-11.84,14.1-19.57,2.24-.66,4.58-1.44,7-2.35,5.24-1.97,9.85-4.22,13.82-6.46.83-.47,1.37-1.4,1.19-2.35-.06-.33-.19-.66-.41-.93-.55-.72-1.52-1.05-2.44-.81-2.41.74-5.42,1.4-8.93,1.62-1.76.11-3.39.09-4.87,0,2.4-1.82,4.85-3.71,7.31-5.68,3.4-2.72,6.65-5.44,9.74-8.12ZM448.15,538.85h0s.1-.15.28-.32c-.16.21-.26.32-.28.32Z"/>
        </g>
        <g id="Face-3" data-name="Face">
          <path id="Neck" class="cls-41" d="M455.69,523.62l-1.79-6.06-26.25,4.93-.78,6.47c10.96,4.67,21.44,4.44,26.38-1.01.9-1,1.81-2.38,2.44-4.33Z"/>
          <path class="cls-9" d="M382.41,493.03s-17.05-6.49-24.35,15.42c0,0,12.02-9.83,16.56-8.16l-7.63,12.22.81,9.74,8.93-4.87s7.31-9.74,5.68-24.35Z"/>
          <g id="Ears-4" data-name="Ears">
            <g id="Ears-5" data-name="Ears">
              <path class="cls-42" d="M396.04,496.83c-3.24-3.14-7.05-5.2-10.5-4.64-1.34.22-2.48.8-3.4,1.51-1.57,1.19-2.56,2.71-2.9,3.3-3.17,5.35-1.12,13,3.57,17.26,5.89,5.37,13.77,3.42,14.41,3.25,2.35-.62,4.74-1.25,5.84-3.21,2.22-3.98-1.6-12.23-7.02-17.47ZM397.09,509.07c-.71.55-1.66,1.06-2.85,1.25-.97.16-1.84.07-2.57-.11-1.34-.35-3-2-3.16-3.37-.12-1.02.07-2.08.58-3.01.94-1.69,2.78-2.69,4.72-2.55h0c1.35.96,2.61,2.22,3.67,3.77.78,1.14.69,3.17-.41,4.03Z"/>
              <path class="cls-55" d="M397.09,509.07c-.71.55-1.66,1.06-2.85,1.25-.97.16-1.84.07-2.57-.11-1.34-.35-3-2-3.16-3.37-.12-1.02.07-2.08.58-3.01.94-1.69,2.78-2.69,4.72-2.55h0c1.35.96,2.61,2.22,3.67,3.77.78,1.14.69,3.17-.41,4.03Z"/>
              <path class="cls-25" d="M380.22,504.27c1.48-5.3,7.5-7.36,12.02-4.33.37.29,1.57,1.05,1.55,1.37-5.16-3.62-10.57-2.45-13.57,2.96h0Z"/>
            </g>
            <g id="Ears-6" data-name="Ears">
              <path class="cls-45" d="M477.18,492.68c.77-5.79-2.33-12.36-7.75-14.22-.94-.32-4.41-1.35-7.3.39-7.37,4.44-5.48,23.6.8,25.93,1.93.72,4-.27,6.02-1.23.55-.26,7.26-3.6,8.22-10.87Z"/>
              <path class="cls-38" d="M473.04,484.2c-5.46-2.05-9.99,1.31-10.93,6.79-.21,1.51-.47,3.27.12,4.71.56,1.04,1.48,1.48,2.61,1.18,1.48-.29,2.96-1.27,3.56-2.68.38-1.02.51-2.42-.15-3.31-1.58-2.22-4.53-2.29-6.58-.75,1.88-1.94,5.35-1.72,6.94.48,1.61,2.31.03,5.53-2.4,6.49-7.06,2.92-5.43-7.87-2.61-10.96,2.11-2.9,6.48-3.57,9.43-1.94h0Z"/>
            </g>
          </g>
          <path id="Base_Face" data-name="Base Face" class="cls-42" d="M459.32,462.42c1.12,3.24,2.51,7.57,3.88,12.73,3.95,14.89,6.09,23.44,2.24,31.42-1.05,2.17-2.79,4.81-5.82,7.38-3.63,2.63-11.31,7.45-22.27,9.05-11.2,1.64-20.1-.92-24.33-2.45-1.31-.23-3.64-.81-6.02-2.5-1.86-1.33-3.03-2.83-3.7-3.85-1.65-4.91-3.77-11.94-5.58-20.58-.54-2.59-1.45-6.9-1.98-11.19-.79-6.49-1.17-16.66,1.9-29.77l40.18-3.27,21.49,13.03Z"/>
          <ellipse id="Nose-3" data-name="Nose" class="cls-44" cx="438.31" cy="497.1" rx="4.87" ry="4.08" transform="translate(-67.64 69.04) rotate(-8.36)"/>
          <g id="Mouth-2" data-name="Mouth">
            <path class="cls-5" d="M450.48,500.96c-3.07,1.69-7.06,3.53-11.89,4.92-3.61,1.05-6.92,1.62-9.76,1.94.49.95,2.02,3.57,5.24,5.14,4.33,2.11,8.44.69,9.21.41.45-.15,6.2-2.14,7.43-7.5.47-2.05.1-3.83-.23-4.91Z"/>
            <path class="cls-43" d="M447.91,502.29c-2.14,1.05-4.69,2.14-7.62,3.07-2.78.89-5.35,1.46-7.6,1.84.31.51.65.89.97,1.17,2.5,2.17,6.48.86,6.97.69,1.05-.36,3.67-.99,5.61-3.45.99-1.26,1.45-2.51,1.68-3.32Z"/>
            <path class="cls-24" d="M447.16,511.3c-1.37-.42-3.15-.82-5.25-.89-4.06-.14-7.26,1.01-9.08,1.83,1.02.64,2.55,1.41,4.53,1.73,5.01.79,8.89-1.99,9.8-2.67Z"/>
          </g>
          <path id="Hairs" class="cls-18" d="M459.42,462.28c-2.92-.13-6.98-.64-11.51-2.32-6.33-2.35-10.68-5.89-13.13-8.24,2.82,2.53,5.64,5.07,8.45,7.6,2.36,1.88,3.55,3.8,3.03,4.77-.11.21-.36.48-.97.64-2.68.62-7.84,1.43-14-.07-5.14-1.26-8.84-3.6-10.93-5.17,2.8,2.83,5.61,5.67,8.41,8.5.84.33,1.16,1.06.97,1.48-.18.38-.77.44-.83.45-3.37.03-9.35-.35-16.03-3.3-6.14-2.72-10.22-6.44-12.47-8.83,1.03,1.4,5.06,7.25,4.21,15.38-.7,6.68-4.3,11.03-5.63,12.5,1.31,3.27,2.64,7.76,2.94,13.18.12,2.2.05,4.23-.12,6.04-.03.49-.32.86-.67.91-.2.03-.38-.06-.47-.12-2.76-8.81-8.51-14.35-13.73-13.98-1.07.08-2.66.44-4.5,1.85-1.12-1.45-2.28-3.21-3.35-5.28-2.5-4.87-3.37-9.44-3.68-12.67-.32,1.28-.64,2.55-.96,3.83-.03.12-.19.71-.53.78-.37.08-.92-.45-1.18-1.43-.47-1.53-2.7-9.39,1.66-17.31,3.03-5.51,7.64-8.12,9.52-9.06-.94-1.24-1.87-2.87-2.35-4.89-1.86-7.78,4.49-14.4,5.18-15.1,1.13-1.38,2.99-1.4,3.81-.53.59.62.67,1.72.21,2.7-.86,1.78-1.75,3.92-2.5,6.39-.63,2.08-1.04,4-1.31,5.71,1.49-3.7,3.81-8.13,7.52-12.46,11.38-13.32,27.32-15.81,32.46-16.4,3.89-.97,6.83-.82,7.4.42.13.28.21.78-.22,1.64-.8,1.38-1.98,3.11-3.68,4.86-1.77,1.83-3.54,3.11-4.94,3.97,3.75-1.25,10.65-2.99,19.25-1.98,9.81,1.15,16.79,5.28,20.13,7.58,1.02.89,1.52,2.14,1.23,3.25-.15.6-.5,1.03-.76,1.28-2.89,1.12-5.78,2.23-8.67,3.35,7.65,1,13.88,6.58,15.6,13.9,1.57,6.67-.86,13.76-6.23,18.24-.47,2.17-.93,4.34-1.4,6.51-1.76-6.19-3.51-12.39-5.27-18.58Z"/>
          <path class="cls-36" d="M462.76,470.3c1.35,4.24,2.06,8.12,2.44,11.36-1.56.47-3.86,1.16-6.66,1.98-1.06.31-19.14,5.89-27.43,7.76-12.67,2.85-24.47,4.51-35.06,5.43-3.24-3.14-7.05-5.2-10.5-4.64-1.34.22-2.48.8-3.4,1.51-1.01-1.63-2.04-3.47-2.99-5.54-1.79-3.87-2.82-7.43-3.46-10.28,15.38-.19,34-1.84,54.59-6.76,10.77-2.57,20.53-5.68,29.22-8.93,1.13,2.31,2.26,5.02,3.25,8.12Z"/>
        </g>
      </g>
      <text class="cls-61" transform="translate(357.94 430.98) rotate(-20.14)"><tspan x="0" y="0">?</tspan></text>
      <text class="cls-62" transform="translate(447.36 417.05) rotate(13.06)"><tspan x="0" y="0">?</tspan></text>
    </g>
  </g>
</svg>